<svg width="48" height="48" viewBox="0 0 48 48" fill="none" xmlns="http://www.w3.org/2000/svg">
<path d="M31.592 38.7741L25.6 30.8C24.798 29.734 23.204 29.734 22.402 30.8L16.4098 38.7741C15.4138 40.1001 16.354 42.0002 18.008 42.0002H29.9938C31.6458 42.0002 32.588 40.1001 31.592 38.7741Z" fill="#0473EA"/>
<path opacity="0.4" d="M29.842 26.9399C29.736 26.9399 29.63 26.9298 29.522 26.9058C28.714 26.7318 28.2 25.9321 28.374 25.1221C28.46 24.7301 28.5 24.362 28.5 23.998C28.5 21.516 26.48 19.498 24 19.498C21.52 19.498 19.5 21.516 19.5 23.998C19.5 24.362 19.542 24.7281 19.626 25.1221C19.8 25.9321 19.286 26.7298 18.478 26.9058C17.67 27.0838 16.8679 26.5678 16.6919 25.7578C16.5639 25.1638 16.498 24.572 16.498 24C16.498 19.864 19.864 16.5 23.998 16.5C28.132 16.5 31.498 19.864 31.498 24C31.498 24.572 31.434 25.1638 31.304 25.7578C31.154 26.4598 30.532 26.9399 29.842 26.9399Z" fill="#38BF07"/>
<path opacity="0.4" d="M33.8779 32.3398C33.5859 32.3398 33.2879 32.2542 33.0259 32.0742C32.3459 31.6042 32.174 30.6678 32.646 29.9878C33.858 28.2338 34.5 26.162 34.5 24C34.5 18.21 29.79 13.5 24 13.5C18.21 13.5 13.5 18.21 13.5 24C13.5 26.162 14.14 28.2318 15.354 29.9878C15.824 30.6698 15.6521 31.6042 14.9741 32.0742C14.2861 32.5462 13.354 32.3719 12.886 31.6919C11.326 29.4339 10.502 26.774 10.502 24C10.502 16.556 16.558 10.5 24.002 10.5C31.446 10.5 37.502 16.556 37.502 24C37.502 26.774 36.6779 29.4339 35.1179 31.6919C34.8239 32.1139 34.3559 32.3398 33.8779 32.3398Z" fill="#38BF07"/>
<path opacity="0.4" d="M37.6001 37.2598C37.2501 37.2598 36.898 37.1381 36.614 36.8901C35.99 36.3461 35.924 35.3979 36.47 34.7739C39.07 31.7959 40.502 27.97 40.502 24C40.502 14.902 33.1 7.5 24.002 7.5C14.904 7.5 7.50195 14.902 7.50195 24C7.50195 27.97 8.93394 31.7959 11.5339 34.7739C12.0779 35.3979 12.0139 36.3461 11.3899 36.8901C10.7639 37.4341 9.81797 37.3701 9.27197 36.7461C6.19597 33.2221 4.50195 28.696 4.50195 24C4.50195 13.248 13.25 4.5 24.002 4.5C34.754 4.5 43.502 13.248 43.502 24C43.502 28.696 41.8079 33.2221 38.7319 36.7461C38.4339 37.0861 38.0181 37.2598 37.6001 37.2598Z" fill="#38BF07"/>
</svg>
