<svg width="48" height="48" viewBox="0 0 48 48" fill="none" xmlns="http://www.w3.org/2000/svg">
<path d="M41.0601 27.2202C41.0601 27.2202 42 28.5798 42 30.7798C42 34.4798 39.2399 37.52 35.6599 37.96C34.8199 40.48 32.98 42 30 42C28 42 25.5 40.4602 25.5 37.7402V34C25.5 31.02 28.5999 29.3798 28.6799 29.3398C29.4199 28.9598 29.7201 28.0598 29.3401 27.3198C28.9801 26.5798 28.0801 26.2802 27.3401 26.6602C27.2401 26.7002 26.44 27.1199 25.5 27.9199V24C25.5 21.02 28.5999 19.3798 28.6799 19.3398C29.4199 18.9598 29.7201 18.0598 29.3401 17.3198C28.9801 16.5798 28.0801 16.2802 27.3401 16.6602C27.2401 16.7002 26.44 17.1199 25.5 17.9199V9.16016C25.5 6.72016 27.1 6 28 6C32.46 6 33.78 10.46 33.78 10.46C33.78 10.46 38 12.0001 38 16.6401C38 17.2001 37.94 17.7402 37.8 18.2402C40.24 19.0002 42 21.3 42 24.02C42 25.22 41.0601 27.2202 41.0601 27.2202Z" fill="#0473EA"/>
<path d="M18.6599 17.3198C18.2999 18.0598 18.5801 18.9598 19.3201 19.3398C19.3601 19.3598 22.5 21 22.5 24V27.9199C21.56 27.1199 20.7599 26.7002 20.6599 26.6602C19.9399 26.2802 19.0399 26.5798 18.6599 27.3198C18.2999 28.0598 18.5801 28.9598 19.3201 29.3398C19.3601 29.3598 22.5 31 22.5 34V37.7402C22.5 40.4602 20 42 18 42C15.02 42 13.1801 40.48 12.3401 37.96C8.76009 37.52 6 34.4798 6 30.7798C6 28.5798 6.93994 27.2202 6.93994 27.2202C6.93994 27.2202 6 25.22 6 24.02C6 21.3 7.75995 19.0002 10.2 18.2402C10.06 17.7402 10 17.2001 10 16.6401C10 12.0001 14.22 10.46 14.22 10.46C14.22 10.46 15.54 6 20 6C20.9 6 22.5 6.72016 22.5 9.16016V17.9199C21.56 17.1199 20.7599 16.7002 20.6599 16.6602C19.9399 16.2802 19.0399 16.5798 18.6599 17.3198Z" fill="#0473EA"/>
</svg>
