<svg width="48" height="48" viewBox="0 0 48 48" fill="none" xmlns="http://www.w3.org/2000/svg">
<path opacity="0.4" d="M40 20.1001V24C40 28.42 32.84 32 24 32C15.16 32 8 28.42 8 24V20.1001C11.32 23.1001 17.12 25 24 25C30.88 25 36.7 23.1001 40 20.1001ZM24 35C17.12 35 11.32 33.1001 8 30.1001V34C8 38.42 15.16 42 24 42C32.84 42 40 38.42 40 34V30.1001C36.7 33.1001 30.88 35 24 35Z" fill="#38BF07"/>
<path d="M24 22C32.8366 22 40 18.4183 40 14C40 9.58172 32.8366 6 24 6C15.1634 6 8 9.58172 8 14C8 18.4183 15.1634 22 24 22Z" fill="#0473EA"/>
</svg>
