<svg width="24" height="24" viewBox="0 0 24 24" fill="none" xmlns="http://www.w3.org/2000/svg">
<path d="M16.3764 3.00377L14.0394 3C11.4139 3 9.71719 4.75059 9.71719 7.46009V9.5165H7.36747C7.16442 9.5165 7 9.68203 7 9.88622V12.8657C7 13.0699 7.16461 13.2353 7.36747 13.2353H9.71719V20.7535C9.71719 20.9577 9.88161 21.123 10.0847 21.123H13.1504C13.3534 21.123 13.5178 20.9575 13.5178 20.7535V13.2353H16.2652C16.4682 13.2353 16.6327 13.0699 16.6327 12.8657L16.6338 9.88622C16.6338 9.78818 16.595 9.69429 16.5262 9.62491C16.4574 9.55552 16.3636 9.5165 16.2661 9.5165H13.5178V7.77326C13.5178 6.93539 13.7164 6.51004 14.8017 6.51004L16.376 6.50948C16.5789 6.50948 16.7433 6.34394 16.7433 6.13994V3.37331C16.7433 3.1695 16.579 3.00415 16.3764 3.00377Z" fill="#A8A9AA"/>
</svg>
