<svg width="43" height="36" viewBox="0 0 43 36" fill="none" xmlns="http://www.w3.org/2000/svg">
<path d="M4.07365 10.9771H3.46118C2.54405 10.9799 1.66529 11.3603 1.01678 12.0351C0.368276 12.7099 0.00275785 13.6244 0 14.5787V19.799C0.00275785 20.7534 0.368276 21.6678 1.01678 22.3426C1.66529 23.0174 2.54405 23.3978 3.46118 23.4007H4.07748C2.74054 19.3771 2.73921 15.0032 4.07365 10.9788V10.9771Z" fill="#0473EA"/>
<path d="M39.1762 10.9771H38.5605C39.8949 15.0015 39.8935 19.3754 38.5566 23.3989H39.1762C40.0934 23.3962 40.9723 23.0159 41.6208 22.3411C42.2694 21.6662 42.6349 20.7517 42.6375 19.7973V14.5787C42.6349 13.6243 42.2694 12.7098 41.6208 12.0349C40.9723 11.3601 40.0934 10.9798 39.1762 10.9771Z" fill="#0473EA"/>
<path d="M21.3167 3.59367e-08C17.7564 -0.000239474 14.2914 1.19674 11.4381 3.41252C8.58484 5.62829 6.49605 8.74422 5.48318 12.2958C4.47031 15.8474 4.5876 19.6446 5.8175 23.1212C7.04739 26.5978 9.32404 29.5678 12.3081 31.5884L11.7546 34.9724C11.7268 35.1423 11.7476 35.317 11.8144 35.4748C11.8812 35.6325 11.991 35.7664 12.1303 35.8597C12.2695 35.9531 12.432 36.0018 12.5977 36C12.7633 35.9981 12.9248 35.9456 13.062 35.8491L16.3086 33.5667C18.5798 34.3184 20.9804 34.5497 23.3456 34.2448C25.7108 33.94 27.9846 33.1061 30.0108 31.8005C32.0371 30.4949 33.7678 28.7485 35.0843 26.6812C36.4007 24.6139 37.2716 22.2747 37.6371 19.8241C38.0027 17.3735 37.8544 14.8696 37.2022 12.4843C36.55 10.099 35.4095 7.88882 33.859 6.00548C32.3084 4.12214 30.3845 2.61025 28.2195 1.57362C26.0544 0.536983 23.6994 0.000162292 21.3161 3.59367e-08H21.3167ZM33.0474 16.5096C33.0474 17.2174 32.9134 17.9182 32.6532 18.572C32.3929 19.2259 32.0114 19.82 31.5304 20.3204C31.0495 20.8209 30.4786 21.2178 29.8502 21.4887C29.2218 21.7595 28.5484 21.8989 27.8682 21.8989H14.4603C13.0867 21.8989 11.7693 21.3311 10.798 20.3204C9.82676 19.3097 9.28109 17.939 9.28109 16.5096C9.28124 15.0804 9.82697 13.7098 10.7982 12.6992C11.7695 11.6887 13.0868 11.1209 14.4603 11.1209H27.8682C29.2417 11.1209 30.559 11.6887 31.5303 12.6992C32.5016 13.7098 33.0473 15.0804 33.0474 16.5096Z" fill="#0473EA"/>
<path d="M15.5151 13.9141C15.0216 13.9139 14.5391 14.0661 14.1287 14.3513C13.7183 14.6366 13.3985 15.042 13.2096 15.5164C13.0207 15.9908 12.9712 16.5129 13.0674 17.0166C13.1637 17.5202 13.4014 17.9829 13.7503 18.346C14.0993 18.7091 14.5438 18.9563 15.0279 19.0565C15.5119 19.1567 16.0136 19.1052 16.4695 18.9086C16.9254 18.7121 17.3151 18.3792 17.5892 17.9522C17.8633 17.5252 18.0095 17.0232 18.0094 16.5096C18.0093 15.8213 17.7464 15.1612 17.2787 14.6745C16.8109 14.1877 16.1766 13.9142 15.5151 13.9141Z" fill="#0473EA"/>
<path d="M26.8231 19.1064C28.201 19.1064 29.318 17.944 29.318 16.5102C29.318 15.0764 28.201 13.9141 26.8231 13.9141C25.4451 13.9141 24.3281 15.0764 24.3281 16.5102C24.3281 17.944 25.4451 19.1064 26.8231 19.1064Z" fill="#0473EA"/>
</svg>
