<svg width="24" height="24" viewBox="0 0 24 24" fill="none" xmlns="http://www.w3.org/2000/svg">
<path d="M16.4806 2C19.5241 2 22.0001 4.47601 22 7.51928V16.4807C22 19.524 19.5241 22 16.4806 22H7.51916C4.4759 22 2 19.5241 2 16.4807V7.51928C2 4.47601 4.4759 2 7.51916 2H16.4806ZM20.2256 16.4807H20.2255V7.51928C20.2255 5.45447 18.5455 3.7745 16.4806 3.7745H7.51916C5.45435 3.7745 3.7745 5.45447 3.7745 7.51928V16.4807C3.7745 18.5456 5.45435 20.2256 7.51916 20.2255H16.4807C18.5456 20.2255 20.2256 18.5456 20.2256 16.4807ZM12 7C14.757 7 17 9.24301 17 12.0001C17 14.7571 14.757 17 12 17C9.24296 17 7 14.7571 7 12.0001C7 9.24301 9.24296 7 12 7ZM12 15.2782C13.8076 15.2782 15.2784 13.8077 15.2784 12C15.2784 10.1922 13.8077 8.72157 12 8.72157C10.1923 8.72157 8.72164 10.1922 8.72164 12C8.72164 13.8077 10.1924 15.2782 12 15.2782ZM17.4167 5.33333C17.7462 5.33333 18.0689 5.46629 18.3008 5.69924C18.5337 5.93106 18.6667 6.25379 18.6667 6.58333C18.6667 6.91174 18.5337 7.23447 18.3008 7.46742C18.0678 7.69924 17.7462 7.83333 17.4167 7.83333C17.0883 7.83333 16.7655 7.69924 16.5337 7.46742C16.3008 7.23447 16.1667 6.91186 16.1667 6.58333C16.1667 6.25379 16.3006 5.93106 16.5337 5.69924C16.7656 5.46629 17.0883 5.33333 17.4167 5.33333Z" fill="#A8A9AA"/>
</svg>
