<svg width="182" height="43" viewBox="0 0 182 43" fill="none" xmlns="http://www.w3.org/2000/svg">
<g clip-path="url(#clip0_974_40400)">
<path d="M14.2529 7.38199C12.8606 7.33806 11.4874 7.71624 10.3117 8.46738C9.77757 8.82912 9.34702 9.32524 9.06289 9.90636C8.77875 10.4875 8.65095 11.1333 8.6922 11.7795C8.66895 12.657 8.97753 13.5107 9.55566 14.1684C10.269 14.9245 11.1083 15.5495 12.0357 16.015L20.134 20.0324C22.2391 20.9611 24.0977 22.3742 25.5599 24.1579C26.7664 25.826 27.3851 27.8512 27.3181 29.9129C27.3735 32.2533 26.7142 34.5546 25.429 36.5067C24.1355 38.3996 22.3526 39.9014 20.2727 40.8502C17.9257 41.9187 15.3715 42.4482 12.7956 42.4002C10.5148 42.4032 8.24425 42.0925 6.04713 41.4769C3.87294 40.872 1.82464 39.8789 0 38.5449V29.5327C2.0023 31.4196 4.301 32.9605 6.80314 34.0933C8.73544 34.9931 10.8284 35.4915 12.9567 35.5588C14.392 35.5968 15.8105 35.2402 17.0591 34.5275C17.6147 34.2078 18.0707 33.7387 18.3759 33.1729C18.6811 32.6071 18.8235 31.967 18.787 31.3244C18.8327 30.4163 18.5557 29.5215 18.0056 28.8C17.1942 27.9516 16.2339 27.2613 15.173 26.7638L7.56013 23.0715C5.48052 22.1276 3.64943 20.7074 2.21334 18.9244C0.884262 17.0534 0.218658 14.7876 0.323308 12.4907C0.263584 10.2329 0.905111 8.01253 2.15864 6.13846C3.41068 4.34139 5.1285 2.92374 7.12547 2.03953C9.33412 1.05503 11.7289 0.564074 14.1445 0.600526C16.0797 0.59533 18.0091 0.813844 19.8947 1.25176C21.761 1.69146 23.5405 2.4439 25.1584 3.47754V12.0015C23.4536 10.6191 21.5747 9.46907 19.5704 8.58132C17.8971 7.82302 16.0879 7.41497 14.2529 7.38199ZM51.1286 42.4002C48.2918 42.4357 45.4758 41.9101 42.8408 40.8532C40.4027 39.8644 38.1962 38.3758 36.3619 36.4822C34.5317 34.58 33.0998 32.3278 32.1511 29.8588C31.137 27.1908 30.6333 24.354 30.6664 21.4979C30.6349 18.6305 31.1481 15.7834 32.1784 13.1095C33.1405 10.6279 34.6016 8.37272 36.4703 6.4852C38.3505 4.60359 40.5912 3.12584 43.0566 2.14168C45.7114 1.08808 48.5443 0.562688 51.3982 0.594636C53.6169 0.592969 55.825 0.903754 57.9581 1.51795C60.072 2.11989 62.0705 3.07413 63.8704 4.34094V13.245C62.2695 11.5816 60.3504 10.2611 58.2287 9.36319C56.0991 8.47165 53.8132 8.01937 51.5066 8.03322C49.1543 7.9798 46.8345 8.59246 44.8119 9.80128C42.9265 10.9533 41.3943 12.6066 40.3842 14.5789C39.3139 16.7058 38.7774 19.0636 38.8214 21.4468C38.7795 23.877 39.3557 26.2776 40.4956 28.4208C41.571 30.4241 43.1786 32.0876 45.1391 33.226C47.2284 34.413 49.5967 35.0131 51.9959 34.9636C54.1964 34.9687 56.3835 34.6205 58.4748 33.9322C60.5423 33.2563 62.4524 32.1668 64.0902 30.7291V39.036C62.1571 40.1907 60.0647 41.0513 57.8809 41.5899C55.671 42.1333 53.4037 42.4054 51.1286 42.4002Z" fill="#0473EA"/>
<path d="M104.201 43L77.6334 17.5361V41.8596H69.8047V0L96.3228 25.4639V1.1404H104.205L104.201 43ZM182 8.25287H169.529V41.8596H161.647V8.25189H149.121V1.13941H182V8.25287Z" fill="#38D200"/>
<path d="M117.563 41.8594H108.734L123.419 20.2498L110.138 1.13916H119.186L132.734 20.1418L117.563 41.8594Z" fill="#0473EA"/>
<path d="M148.04 41.8594H138.483L130.811 30.8031L135.543 24.0462L138.89 28.7237L148.04 41.8535V41.8594ZM135.759 16.6126L131.233 10.2869L137.349 1.13916H146.394L135.759 16.6126Z" fill="#38D200"/>
</g>
<defs>
<clipPath id="clip0_974_40400">
<rect width="182" height="43" fill="white"/>
</clipPath>
</defs>
</svg>
