<svg width="24" height="24" viewBox="0 0 24 24" fill="none" xmlns="http://www.w3.org/2000/svg">
<path d="M21.7609 5.90713C21.0336 6.23076 20.2532 6.45025 19.4332 6.54824C20.2705 6.04477 20.9113 5.24622 21.2151 4.2976C20.4297 4.76383 19.5629 5.10238 18.6392 5.2859C17.8996 4.49354 16.8475 4 15.6806 4C13.4418 4 11.6266 5.82283 11.6266 8.06974C11.6266 8.38841 11.6624 8.69966 11.7316 8.99728C8.36302 8.82738 5.37599 7.20669 3.37681 4.74399C3.02734 5.34417 2.82854 6.04351 2.82854 6.79003C2.82854 8.20242 3.54474 9.44864 4.6314 10.1777C3.96705 10.1554 3.34223 9.97191 2.79522 9.66686V9.7177C2.79522 11.6893 4.19304 13.3348 6.0465 13.7093C5.70692 13.8011 5.34883 13.8519 4.97838 13.8519C4.71661 13.8519 4.46346 13.8259 4.21526 13.7763C4.7314 15.3945 6.22803 16.5713 8.00125 16.6035C6.61453 17.6948 4.86601 18.3433 2.96686 18.3433C2.63965 18.3433 2.31734 18.3234 2 18.2875C3.79421 19.4444 5.92429 20.119 8.21365 20.119C15.6708 20.119 19.7469 13.9164 19.7469 8.53724L19.7333 8.01024C20.5298 7.43979 21.2188 6.72307 21.7609 5.90713Z" fill="#0473EA"/>
</svg>
