<svg width="14" height="14" viewBox="0 0 14 14" fill="none" xmlns="http://www.w3.org/2000/svg">
<path
    opacity="0.8"
    d="M13.0003 14.0002C12.7443 14.0002 12.4883 13.9022 12.2933 13.7072L0.29325 1.70719C-0.09775 1.31719 -0.09775 0.68325 0.29325 0.29325C0.68425 -0.09775 1.31625 -0.09775 1.70725 0.29325L13.7073 12.2933C14.0983 12.6833 14.0983 13.3172 13.7073 13.7072C13.5123 13.9022 13.2563 14.0002 13.0003 14.0002Z"
    fill="#0473EA"
  />
<path
    d="M1.00025 14.0002C0.744251 14.0002 0.48825 13.9022 0.29325 13.7072C-0.09775 13.3172 -0.09775 12.6833 0.29325 12.2933L12.2933 0.29325C12.6842 -0.09775 13.3163 -0.09775 13.7073 0.29325C14.0983 0.68325 14.0983 1.31719 13.7073 1.70719L1.70725 13.7072C1.51225 13.9022 1.25625 14.0002 1.00025 14.0002Z"
    fill="#38D200"
  />
</svg>
