<svg width="18" height="18" viewBox="0 0 18 18" fill="none" xmlns="http://www.w3.org/2000/svg">
<path d="M8.99967 15.6673C12.6816 15.6673 15.6663 12.6825 15.6663 9.00065C15.6663 5.31875 12.6816 2.33398 8.99967 2.33398C5.31778 2.33398 2.33301 5.31875 2.33301 9.00065C2.33301 12.6825 5.31778 15.6673 8.99967 15.6673Z" fill="#0473EA"/>
<path d="M14.4422 16.0598C14.6855 16.3039 14.6855 16.6998 14.4405 16.9439C14.3189 17.0656 14.1588 17.1264 13.9997 17.1264C13.8397 17.1264 13.6788 17.0648 13.5571 16.9423L11.7088 15.0889C12.1071 14.9114 12.483 14.6966 12.8355 14.4482L14.4422 16.0598ZM3.55715 16.0589C3.31381 16.3031 3.31378 16.6998 3.55878 16.9431C3.68044 17.0648 3.84049 17.1256 3.99965 17.1256C4.15965 17.1256 4.32049 17.064 4.44216 16.9423L6.29051 15.0889C5.89217 14.9114 5.5163 14.6966 5.1638 14.4482L3.55715 16.0589ZM16.9462 3.60482C17.1871 3.35815 17.1829 2.96229 16.9371 2.72062L15.2704 1.08732C15.0237 0.845654 14.6287 0.849809 14.3854 1.09648C14.1446 1.34314 14.1489 1.739 14.3948 1.98067L16.0614 3.61397C16.1831 3.73314 16.3413 3.7923 16.4988 3.7923C16.6613 3.7923 16.8237 3.72982 16.9462 3.60482ZM1.94134 3.60899L3.60801 1.94232C3.85218 1.69815 3.85218 1.30229 3.60801 1.05813C3.36384 0.813958 2.96798 0.813958 2.72381 1.05813L1.05715 2.72479C0.812982 2.96896 0.812982 3.36482 1.05715 3.60899C1.17882 3.73065 1.33884 3.7923 1.49884 3.7923C1.65884 3.7923 1.81968 3.73149 1.94134 3.60899Z" fill="#38BF07"/>
<path d="M8.30597 11.3258C8.14597 11.3258 7.98594 11.265 7.86428 11.1425L6.47512 9.75336C6.23095 9.51002 6.23095 9.11333 6.47512 8.86916C6.71928 8.62499 7.11515 8.62499 7.35931 8.86916L8.30678 9.81582L10.6426 7.48C10.8868 7.23583 11.2826 7.23583 11.5268 7.48C11.771 7.72417 11.771 8.11993 11.5268 8.36409L8.74929 11.1417C8.62595 11.265 8.46597 11.3258 8.30597 11.3258Z" fill="#38BF07"/>
</svg>
