<svg width="24" height="24" viewBox="0 0 24 24" fill="none" xmlns="http://www.w3.org/2000/svg">
<path d="M20 5.25H15.786C15.693 5.068 15.621 4.862 15.544 4.632L15.342 4.02499C15.138 3.41299 14.565 3 13.919 3H10.081C9.43499 3 8.862 3.41299 8.658 4.02499L8.45599 4.632C8.37899 4.862 8.307 5.068 8.214 5.25H4C3.586 5.25 3.25 5.586 3.25 6C3.25 6.414 3.586 6.75 4 6.75H20C20.414 6.75 20.75 6.414 20.75 6C20.75 5.586 20.414 5.25 20 5.25Z" fill="#25314C"/>
<path d="M14 16.75C13.586 16.75 13.25 16.414 13.25 16V11C13.25 10.586 13.586 10.25 14 10.25C14.414 10.25 14.75 10.586 14.75 11V16C14.75 16.414 14.414 16.75 14 16.75Z" fill="#25314C"/>
<path d="M10 16.75C9.586 16.75 9.25 16.414 9.25 16V11C9.25 10.586 9.586 10.25 10 10.25C10.414 10.25 10.75 10.586 10.75 11V16C10.75 16.414 10.414 16.75 10 16.75Z" fill="#25314C"/>
<path opacity="0.4" d="M18.9498 6.75L18.1898 18.2C18.0798 19.78 17.2498 21 15.1898 21H8.8098C6.7498 21 5.9198 19.78 5.8098 18.2L5.0498 6.75H18.9498Z" fill="#25314C"/>
</svg>
