<svg width="17" height="17" viewBox="0 0 17 17" fill="none" xmlns="http://www.w3.org/2000/svg">
<path opacity="0.4" d="M3.25 7.25C1.5 7.25 0.625 8.125 0.625 9.875V14.25C0.625 16 1.5 16.875 3.25 16.875H13.75C15.5 16.875 16.375 16 16.375 14.25V9.875C16.375 8.125 15.5 7.25 13.75 7.25H3.25Z" fill="#868788"/>
<path d="M11.5888 9.41122C11.3325 9.15485 10.9168 9.15485 10.6604 9.41122L9.15545 10.9163V1.125C9.15545 0.76275 8.86145 0.46875 8.4992 0.46875C8.13695 0.46875 7.84295 0.76275 7.84295 1.125V10.9154L6.33797 9.41037C6.0816 9.15399 5.66594 9.15399 5.40957 9.41037C5.15319 9.66675 5.15319 10.0824 5.40957 10.3388L8.03457 12.9638C8.09494 13.0242 8.16748 13.0723 8.24798 13.1055C8.32848 13.1388 8.41345 13.1562 8.4992 13.1562C8.58495 13.1562 8.6697 13.1388 8.7502 13.1055C8.8307 13.0723 8.90345 13.0242 8.96383 12.9638L11.5888 10.3388C11.8452 10.0833 11.8452 9.66672 11.5888 9.41122Z" fill="#525355"/>
</svg>
