<svg width="18" height="14" viewBox="0 0 18 14" fill="none" xmlns="http://www.w3.org/2000/svg">
<path opacity="0.4" d="M17.5921 8.47705C18.1361 7.56705 18.1361 6.43295 17.5921 5.52295C16.3651 3.46895 13.61 0 9.00004 0C4.39004 0 1.635 3.46895 0.408 5.52295C-0.136 6.43295 -0.136 7.56705 0.408 8.47705C1.635 10.5311 4.39004 14 9.00004 14C13.61 14 16.3651 10.5311 17.5921 8.47705Z" fill="#25314C"/>
<path d="M9 3.5C8.634 3.5 8.28705 3.57203 7.95605 3.67603C8.15305 3.94603 8.27197 4.27599 8.27197 4.63599C8.27197 5.53999 7.53999 6.27197 6.63599 6.27197C6.27599 6.27197 5.94703 6.15205 5.67603 5.95605C5.57203 6.28805 5.5 6.634 5.5 7C5.5 8.933 7.067 10.5 9 10.5C10.933 10.5 12.5 8.933 12.5 7C12.5 5.067 10.933 3.5 9 3.5Z" fill="#25314C"/>
</svg>
