<svg width="20" height="20" viewBox="0 0 20 20" fill="none" xmlns="http://www.w3.org/2000/svg">
<path opacity="0.4" d="M13.0003 8.00028C12.7443 8.00028 12.4883 7.90231 12.2933 7.70731C11.9023 7.31631 11.9023 6.68425 12.2933 6.29325L18.2932 0.29325C18.6842 -0.09775 19.3163 -0.09775 19.7073 0.29325C20.0983 0.68425 20.0983 1.31631 19.7073 1.70731L13.7073 7.70731C13.5123 7.90231 13.2563 8.00028 13.0003 8.00028ZM7.70731 7.70731C8.09831 7.31631 8.09831 6.68425 7.70731 6.29325L1.70731 0.29325C1.31631 -0.09775 0.68425 -0.09775 0.29325 0.29325C-0.09775 0.68425 -0.09775 1.31631 0.29325 1.70731L6.29325 7.70731C6.48825 7.90231 6.74428 8.00028 7.00028 8.00028C7.25628 8.00028 7.51231 7.90231 7.70731 7.70731ZM1.70731 19.7073L7.70731 13.7073C8.09831 13.3163 8.09831 12.6843 7.70731 12.2933C7.31631 11.9023 6.68425 11.9023 6.29325 12.2933L0.29325 18.2932C-0.09775 18.6842 -0.09775 19.3163 0.29325 19.7073C0.48825 19.9023 0.744281 20.0003 1.00028 20.0003C1.25628 20.0003 1.51231 19.9023 1.70731 19.7073ZM19.7073 19.7073C20.0983 19.3163 20.0983 18.6842 19.7073 18.2932L13.7073 12.2933C13.3163 11.9023 12.6843 11.9023 12.2933 12.2933C11.9023 12.6843 11.9023 13.3163 12.2933 13.7073L18.2932 19.7073C18.4882 19.9023 18.7443 20.0003 19.0003 20.0003C19.2563 20.0003 19.5123 19.9023 19.7073 19.7073Z" fill="#25314C"/>
<path d="M17 8H13C12.447 8 12 7.552 12 7V3C12 2.448 12.447 2 13 2C13.553 2 14 2.448 14 3V6H17C17.553 6 18 6.448 18 7C18 7.552 17.553 8 17 8ZM8 7V3C8 2.448 7.553 2 7 2C6.447 2 6 2.448 6 3V6H3C2.447 6 2 6.448 2 7C2 7.552 2.447 8 3 8H7C7.553 8 8 7.552 8 7ZM8 17V13C8 12.448 7.553 12 7 12H3C2.447 12 2 12.448 2 13C2 13.552 2.447 14 3 14H6V17C6 17.552 6.447 18 7 18C7.553 18 8 17.552 8 17ZM14 17V14H17C17.553 14 18 13.552 18 13C18 12.448 17.553 12 17 12H13C12.447 12 12 12.448 12 13V17C12 17.552 12.447 18 13 18C13.553 18 14 17.552 14 17Z" fill="#25314C"/>
</svg>
