<svg width="26" height="26" viewBox="0 0 26 26" fill="none" xmlns="http://www.w3.org/2000/svg">
<path d="M25.6362 9.11434L15.7533 0.986406C14.1573 -0.322927 11.8441 -0.32426 10.2481 0.986406L0.365484 9.11303C-0.0598494 9.4637 -0.122553 10.0931 0.228114 10.5211C0.581447 10.9477 1.20949 11.0078 1.63615 10.6584L3.00009 9.53572V21.0011C3.00009 24.0544 4.61342 25.6677 7.66675 25.6677H18.3334C21.3868 25.6677 23.0001 24.0544 23.0001 21.0011V9.53703L24.364 10.6597C24.5507 10.8131 24.7761 10.8878 25.0001 10.8878C25.2881 10.8878 25.5747 10.7637 25.7721 10.5237C26.1241 10.0943 26.0615 9.465 25.6362 9.11434Z" fill="#0473EA"/>
<path d="M10.1336 11.8667C10.1336 10.2854 11.4203 9 13.0003 9C14.5803 9 15.867 10.2854 15.867 11.8667C15.867 13.448 14.5803 14.7334 13.0003 14.7334C11.4203 14.7334 10.1336 13.4467 10.1336 11.8667ZM13.8563 16.3333H12.1457C9.643 16.3333 8.33496 18.1414 8.33496 19.9294V20.3333C8.33496 20.7013 8.63363 21 9.00163 21H17.0016C17.3696 21 17.6683 20.7013 17.6683 20.3333V19.9294C17.667 18.1414 16.3589 16.3333 13.8563 16.3333Z" fill="#38BF07"/>
</svg>
