<svg width="20" height="20" viewBox="0 0 20 20" fill="none" xmlns="http://www.w3.org/2000/svg">
<path opacity="0.4" d="M10 20C15.5228 20 20 15.5228 20 10C20 4.47715 15.5228 0 10 0C4.47715 0 0 4.47715 0 10C0 15.5228 4.47715 20 10 20Z" fill="#5D5D5B"/>
<path d="M9.99976 15.25C9.58576 15.25 9.24976 14.914 9.24976 14.5V9.92896C9.24976 9.51496 9.58576 9.17896 9.99976 9.17896C10.4138 9.17896 10.7498 9.51496 10.7498 9.92896V14.5C10.7498 14.914 10.4138 15.25 9.99976 15.25ZM11.0198 6.5C11.0198 5.948 10.5728 5.5 10.0198 5.5H10.0098C9.45777 5.5 9.01465 5.948 9.01465 6.5C9.01465 7.052 9.46778 7.5 10.0198 7.5C10.5718 7.5 11.0198 7.052 11.0198 6.5Z" fill="#5D5D5B"/>
</svg>
