<svg width="20" height="20" viewBox="0 0 20 20" fill="none" xmlns="http://www.w3.org/2000/svg">
<path opacity="0.4" d="M10 20C15.5228 20 20 15.5228 20 10C20 4.47715 15.5228 0 10 0C4.47715 0 0 4.47715 0 10C0 15.5228 4.47715 20 10 20Z" fill="#54B729"/>
<path d="M9.99976 9.69409C9.58576 9.69409 9.24976 9.35809 9.24976 8.94409V4.5C9.24976 4.086 9.58576 3.75 9.99976 3.75C10.4138 3.75 10.7498 4.086 10.7498 4.5V8.94409C10.7498 9.35809 10.4138 9.69409 9.99976 9.69409ZM15.1938 10.0559C15.1938 8.67191 14.6517 7.36806 13.6677 6.38306C13.3757 6.09106 12.9007 6.08906 12.6067 6.38306C12.3137 6.67506 12.3137 7.15109 12.6067 7.44409C13.3077 8.14509 13.6938 9.07291 13.6938 10.0559C13.6938 12.0929 12.0368 13.75 9.99976 13.75C7.96276 13.75 6.30566 12.0929 6.30566 10.0559C6.30566 9.07291 6.69182 8.14509 7.39282 7.44409C7.68582 7.15109 7.68582 6.67606 7.39282 6.38306C7.09882 6.08906 6.62379 6.09106 6.33179 6.38306C5.34779 7.36806 4.80566 8.67191 4.80566 10.0559C4.80566 12.9199 7.13576 15.25 9.99976 15.25C12.8638 15.25 15.1938 12.9199 15.1938 10.0559Z" fill="#0473EA"/>
</svg>
