<svg width="15" height="20" viewBox="0 0 15 18" fill="none" xmlns="http://www.w3.org/2000/svg">
<path opacity="0.4" d="M12 6C10 6 9 5 9 3V0H3C1 0 0 1 0 3V15C0 17 1 18 3 18H12C14 18 15 17 15 15V6H12Z" fill="#BEBEBD"/>
<path d="M12 6H15L9 0V3C9 5 10 6 12 6Z" fill="#5D5D5B"/>
<path d="M11.53 14.4709L9.97998 12.922C10.358 12.345 10.583 11.6579 10.583 10.9189C10.583 8.89695 8.93799 7.25195 6.91699 7.25195C4.89499 7.25195 3.25 8.89695 3.25 10.9189C3.25 12.9409 4.89499 14.586 6.91699 14.586C7.65699 14.586 8.34292 14.3619 8.91992 13.9839L10.47 15.5329C10.616 15.6789 10.808 15.7529 11 15.7529C11.192 15.7529 11.384 15.6799 11.53 15.5329C11.823 15.2379 11.823 14.7629 11.53 14.4709ZM4.75 10.918C4.75 9.72295 5.72199 8.75095 6.91699 8.75095C8.11099 8.75095 9.08301 9.72295 9.08301 10.918C9.08301 12.113 8.11099 13.0849 6.91699 13.0849C5.72199 13.0839 4.75 12.112 4.75 10.918Z" fill="#5D5D5B"/>
</svg>
