<svg width="36" height="36" viewBox="0 0 36 36" fill="none" xmlns="http://www.w3.org/2000/svg">
<path opacity="0.9" d="M6.75 36H29.25C33.75 36 36 33.75 36 29.25V6.75C36 2.25 33.75 0 29.25 0H6.75C2.25 0 0 2.25 0 6.75V29.25C0 33.75 2.25 36 6.75 36Z" fill="#0473EA"/>
<path d="M11.334 18.8355C10.95 18.8355 10.5659 18.6896 10.2739 18.3956L6.93994 15.0616C6.80194 14.9236 6.69416 14.7616 6.61816 14.5796C6.54216 14.3976 6.50195 14.2015 6.50195 14.0015C6.50195 13.8015 6.54416 13.6054 6.61816 13.4234C6.69416 13.2414 6.80394 13.0775 6.93994 12.9395L10.2739 9.60552C10.8599 9.01952 11.81 9.01952 12.396 9.60552C12.982 10.1915 12.982 11.1416 12.396 11.7276L11.6221 12.5015H24C24.828 12.5015 25.5 13.1735 25.5 14.0015C25.5 14.8295 24.828 15.5015 24 15.5015H11.6221L12.394 16.2735C12.98 16.8575 12.98 17.8096 12.394 18.3956C12.102 18.6896 11.718 18.8355 11.334 18.8355ZM29.5 21.9957C29.5 21.7957 29.4578 21.5995 29.3838 21.4175C29.3078 21.2355 29.198 21.0716 29.062 20.9336L25.728 17.5997C25.142 17.0137 24.192 17.0137 23.606 17.5997C23.02 18.1857 23.02 19.1357 23.606 19.7217L24.3779 20.4937H12C11.172 20.4937 10.5 21.1657 10.5 21.9937C10.5 22.8217 11.172 23.4937 12 23.4937H24.3779L23.606 24.2657C23.02 24.8497 23.02 25.8017 23.606 26.3877C23.898 26.6797 24.282 26.8277 24.666 26.8277C25.048 26.8277 25.4341 26.6817 25.7261 26.3877L29.0601 23.0538C29.1981 22.9158 29.3058 22.7514 29.3818 22.5694C29.4578 22.3914 29.5 22.1957 29.5 21.9957Z" fill="white"/>
</svg>
