<svg width="24" height="25" viewBox="0 0 24 25" fill="none" xmlns="http://www.w3.org/2000/svg">
<path opacity="0.9" d="M4 10.334C1.33333 10.334 0 11.6673 0 14.334V21.0007C0 23.6673 1.33333 25.0007 4 25.0007H20C22.6667 25.0007 24 23.6673 24 21.0007V14.334C24 11.6673 22.6667 10.334 20 10.334H4Z" fill="#0473EA"/>
<path d="M16.7067 4.29394L12.7067 0.293936C12.6147 0.201936 12.5039 0.12862 12.3812 0.0779531C12.1372 -0.0233802 11.8612 -0.0233802 11.6172 0.0779531C11.4946 0.12862 11.384 0.201936 11.292 0.293936L7.29202 4.29394C6.90136 4.6846 6.90136 5.31798 7.29202 5.70865C7.68269 6.09932 8.31607 6.09932 8.70674 5.70865L11 3.41527V18.334C11 18.886 11.448 19.334 12 19.334C12.552 19.334 13 18.886 13 18.334V3.41527L15.2933 5.70865C15.488 5.90332 15.744 6.00194 16 6.00194C16.256 6.00194 16.5121 5.90465 16.7067 5.70865C17.0974 5.31798 17.0974 4.68327 16.7067 4.29394Z" fill="#38BF07"/>
</svg>
