<svg width="25" height="26" viewBox="0 0 25 26" fill="none" xmlns="http://www.w3.org/2000/svg">
<path opacity="0.4" d="M14.8893 3.09489C13.3653 1.75089 11.3613 0.933594 9.16667 0.933594C4.38 0.933594 0.5 4.81359 0.5 9.60026C0.5 14.3869 4.38 18.2669 9.16667 18.2669H17.8333C21.5133 18.2669 24.5 15.2803 24.5 11.6003C24.5 7.92026 21.5133 4.93359 17.8333 4.93359C17.3933 4.93359 16.9667 4.97355 16.54 5.05355C16.0894 4.32155 15.532 3.66156 14.8893 3.09489Z" fill="#0473EA"/>
<path d="M15.8731 13.6266L13.2064 10.96C13.1144 10.868 13.0036 10.7946 12.8809 10.744C12.6369 10.6426 12.3609 10.6426 12.1169 10.744C11.9942 10.7946 11.8837 10.868 11.7917 10.96L9.12503 13.6266C8.73436 14.0173 8.73436 14.6507 9.12503 15.0413C9.5157 15.432 10.1491 15.432 10.5397 15.0413L11.4997 14.0813V25C11.4997 25.552 11.9477 26 12.4997 26C13.0517 26 13.4997 25.552 13.4997 25V14.0813L14.4597 15.0413C14.6543 15.236 14.9104 15.3346 15.1664 15.3346C15.4224 15.3346 15.6784 15.2373 15.8731 15.0413C16.2637 14.6507 16.2637 14.016 15.8731 13.6266Z" fill="#0473EA"/>
</svg>
