<svg width="20" height="20" viewBox="0 0 24 24" fill="none" xmlns="http://www.w3.org/2000/svg">
<path opacity="0.4" d="M6 10C4 10 3 11 3 13V18C3 20 4 21 6 21H18C20 21 21 20 21 18V13C21 11 20 10 18 10H6Z" fill="#23E33E"/>
<path d="M15.5298 5.46899L12.5298 2.46899C12.4608 2.39999 12.3777 2.345 12.2857 2.307C12.1027 2.231 11.8957 2.231 11.7127 2.307C11.6207 2.345 11.5378 2.39999 11.4688 2.46899L8.46877 5.46899C8.17577 5.76199 8.17577 6.23702 8.46877 6.53002C8.76177 6.82302 9.23681 6.82302 9.52981 6.53002L11.2498 4.80999V15.999C11.2498 16.413 11.5858 16.749 11.9998 16.749C12.4138 16.749 12.7498 16.413 12.7498 15.999V4.80999L14.4697 6.53002C14.6157 6.67602 14.8078 6.74999 14.9998 6.74999C15.1918 6.74999 15.3838 6.67702 15.5298 6.53002C15.8228 6.23702 15.8228 5.76099 15.5298 5.46899Z" fill="#0473EA"/>
</svg>
