<svg aria-hidden="true" focusable="false" width="32" height="32" viewBox="0 0 32 32"  xmlns="http://www.w3.org/2000/svg">
                            <g fill="none" fillRule="evenodd">
                                <rect className="uppy-ProviderIconBg" width="32" height="32" rx="16" fill="#2275D7"></rect>
                                <path d="M21.973 21.152H9.863l-1.108-5.087h14.464l-1.246 5.087zM9.935 11.37h3.958l.886 1.444a.673.673 0 0 0 
                                    .585.316h6.506v1.37H9.935v-3.13zm14.898 3.44a.793.793 0 0 0-.616-.31h-.978v-2.126c0-.379-.275-.613-.653-.613H15.75l-.886-1.445a.673.673 
                                    0 0 0-.585-.316H9.232c-.378 0-.667.209-.667.587V14.5h-.782a.793.793 0 0 0-.61.303.795.795 0 0 0-.155.663l1.45 
                                    6.633c.078.36.396.618.764.618h13.354c.36 0 .674-.246.76-.595l1.631-6.636a.795.795 0 0 0-.144-.675z" fill="#FFF">
                                </path>
                            </g>
                        </svg>