<svg width="16" height="16" viewBox="0 0 16 16" fill="none" xmlns="http://www.w3.org/2000/svg">
<path d="M5.25 15.5H13.1667C14.8333 15.5 15.6667 14.6667 15.6667 13V3C15.6667 1.33333 14.8333 0.5 13.1667 0.5H5.25C3.58333 0.5 2.75 1.33333 2.75 3V13C2.75 14.6667 3.58333 15.5 5.25 15.5Z" fill="#0473EA"/>
<path d="M7.33333 8.00065H11.5C12.0558 8.00065 12.3333 7.72315 12.3333 7.16732V4.66732C12.3333 4.11148 12.0558 3.83398 11.5 3.83398H7.33333C6.7775 3.83398 6.5 4.11148 6.5 4.66732V7.16732C6.5 7.72315 6.7775 8.00065 7.33333 8.00065Z" fill="#38BF07"/>
<path d="M4 5.29102H1.5C1.155 5.29102 0.875 5.01102 0.875 4.66602C0.875 4.32102 1.155 4.04102 1.5 4.04102H4C4.345 4.04102 4.625 4.32102 4.625 4.66602C4.625 5.01102 4.345 5.29102 4 5.29102ZM4.625 11.3327C4.625 10.9877 4.345 10.7077 4 10.7077H1.5C1.155 10.7077 0.875 10.9877 0.875 11.3327C0.875 11.6777 1.155 11.9577 1.5 11.9577H4C4.345 11.9577 4.625 11.6777 4.625 11.3327Z" fill="#38BF07"/>
</svg>
