<svg width="24" height="24" viewBox="0 0 24 24" fill="none" xmlns="http://www.w3.org/2000/svg">
<path opacity="0.4" d="M20 7V11.46C20 11.66 19.8 11.8 19.6 11.74C19.1 11.58 18.56 11.5 18 11.5C14.97 11.5 12.5 13.97 12.5 17C12.5 17.23 12.51 17.46 12.54 17.69C12.54 17.86 12.4 18 12.23 18H5C3 18 2 17 2 15V7C2 5 3 4 5 4H17C19 4 20 5 20 7Z" fill="#38BF07"/>
<path d="M11 14C12.6569 14 14 12.6569 14 11C14 9.34315 12.6569 8 11 8C9.34315 8 8 9.34315 8 11C8 12.6569 9.34315 14 11 14Z" fill="#38BF07"/>
<path d="M5 12C5.55228 12 6 11.5523 6 11C6 10.4477 5.55228 10 5 10C4.44772 10 4 10.4477 4 11C4 11.5523 4.44772 12 5 12Z" fill="#38BF07"/>
<path d="M18 13C15.79 13 14 14.79 14 17C14 19.21 15.79 21 18 21C20.21 21 22 19.21 22 17C22 14.79 20.21 13 18 13ZM19.6 16.52L17.94 18.19C17.84 18.28 17.71 18.33 17.58 18.33C17.46 18.33 17.33 18.28 17.23 18.19L16.4 17.35C16.2 17.16 16.2 16.84 16.4 16.65C16.59 16.45 16.91 16.45 17.1 16.65L17.58 17.13L18.9 15.81C19.09 15.62 19.41 15.62 19.6 15.81C19.8 16.01 19.8 16.32 19.6 16.52Z" fill="#38BF07"/>
</svg>
