<svg width="17" height="17" viewBox="0 0 17 17" fill="none" xmlns="http://www.w3.org/2000/svg">
<path opacity="0.4" d="M0.5 11.3327V15.4994H4.66667L12.8226 7.38112L8.61829 3.17773L0.5 11.3327Z" fill="#25314C"/>
<path d="M15.0119 2.84474L13.1552 0.988155C12.5036 0.336488 11.446 0.337263 10.7952 0.990597L8.61768 3.1781L12.8218 7.3823L15.0093 5.20477C15.6626 4.55394 15.6644 3.49641 15.0119 2.84474Z" fill="#25314C"/>
<path d="M15.4998 16.125H9.6665C9.3215 16.125 9.0415 15.845 9.0415 15.5C9.0415 15.155 9.3215 14.875 9.6665 14.875H15.4998C15.8448 14.875 16.1248 15.155 16.1248 15.5C16.1248 15.845 15.8448 16.125 15.4998 16.125Z" fill="#25314C"/>
</svg>
