<svg width="24" height="24" viewBox="0 0 24 24" fill="none" xmlns="http://www.w3.org/2000/svg">
<path
    opacity="0.4"
    d="M20.5 9.5C20.5 10.14 20.12 10.6899 19.52 10.9099L7.17001 15.47C7.12001 15.49 7.06 15.5 7 15.5V3.5C7.05 3.5 7.11001 3.51003 7.17001 3.53003L19.52 8.09009C20.12 8.31009 20.5 8.86 20.5 9.5Z"
    fill="#25314C"
  />
<path
    d="M9 20.25H7.75V3C7.75 2.586 7.414 2.25 7 2.25C6.586 2.25 6.25 2.586 6.25 3V20.25H5C4.586 20.25 4.25 20.586 4.25 21C4.25 21.414 4.586 21.75 5 21.75H9C9.414 21.75 9.75 21.414 9.75 21C9.75 20.586 9.414 20.25 9 20.25Z"
    fill="#25314C"
  />
</svg>
