<svg width="17" height="14" viewBox="0 0 17 14" fill="none" xmlns="http://www.w3.org/2000/svg">
<path opacity="0.6" d="M15.4952 5.60251L2.49581 5.47532C2.09801 5.47143 1.71495 5.62572 1.4309 5.90426C1.14686 6.1828 0.985099 6.56277 0.981207 6.96057C0.977315 7.35838 1.13161 7.74144 1.41015 8.02548C1.68869 8.30953 2.06865 8.47129 2.46646 8.47518L15.4658 8.60237C15.8636 8.60626 16.2467 8.45197 16.5307 8.17343C16.8148 7.89489 16.9765 7.51492 16.9804 7.11712C16.9843 6.71931 16.83 6.33625 16.5515 6.05221C16.273 5.76816 15.893 5.6064 15.4952 5.60251V5.60251Z" fill="#D7F6CC"/>
<path d="M10.5448 0.553645C10.2483 0.551005 9.95771 0.636281 9.70968 0.798702C9.46165 0.961123 9.26731 1.1934 9.15121 1.46621C9.03511 1.73901 9.00246 2.0401 9.05739 2.33145C9.11231 2.6228 9.25233 2.89134 9.45978 3.10315L13.361 7.08151L9.38269 10.9828C9.11496 11.2645 8.96704 11.6392 8.97009 12.0278C8.97315 12.4165 9.12694 12.7888 9.39906 13.0663C9.67118 13.3438 10.0404 13.5048 10.4289 13.5155C10.8174 13.5261 11.1949 13.3856 11.4818 13.1234L16.5305 8.17257C16.8118 7.89278 16.9716 7.51356 16.9755 7.11688C16.9793 6.72019 16.827 6.33791 16.5513 6.05267L11.6004 1.004C11.3215 0.720792 10.9422 0.558973 10.5448 0.553645Z" fill="white" fill-opacity="0.5"/>
</svg>
