<svg width="24" height="24" viewBox="0 0 24 24" fill="none" xmlns="http://www.w3.org/2000/svg">
<path
    d="M11 17.9999C8.243 17.9999 6 15.7569 6 12.9999C6 10.7119 7.54403 8.72277 9.75403 8.16077C10.281 8.02677 10.833 8.34792 10.969 8.88392C11.106 9.41992 10.781 9.96398 10.246 10.1C8.92397 10.436 8 11.6289 8 13.0009C8 14.6549 9.346 16.0009 11 16.0009C12.371 16.0009 13.564 15.0768 13.901 13.7538C14.037 13.2178 14.582 12.8939 15.117 13.0309C15.652 13.1669 15.975 13.712 15.839 14.247C15.276 16.457 13.287 17.9999 11 17.9999Z"
    fill="#25314C"
  />
<path
    opacity="0.4"
    d="M11 22C6.037 22 2 17.962 2 13C2 8.038 6.037 4 11 4C11.217 4 11.435 4.01189 11.65 4.03589C12.199 4.09689 12.594 4.59189 12.534 5.13989C12.472 5.68889 11.972 6.09095 11.43 6.02295C11.286 6.00695 11.143 6 11 6C7.141 6 4 9.14 4 13C4 16.86 7.141 20 11 20C14.859 20 18 16.86 18 13C18 12.857 17.992 12.715 17.977 12.573C17.915 12.024 18.308 11.5291 18.857 11.4661C19.423 11.3981 19.902 11.7979 19.963 12.3459C19.988 12.5639 20 12.782 20 12.999C20 17.962 15.963 22 11 22Z"
    fill="#25314C"
  />
<path
    d="M21.462 6.80898C21.385 6.62198 21.202 6.49989 21 6.49989H17.5V2.99989C17.5 2.79789 17.378 2.61498 17.191 2.53798C17.005 2.45998 16.79 2.50289 16.646 2.64589L14.0851 5.20693C13.7131 5.57893 13.4991 6.09499 13.4991 6.62099V9.08583L10.292 12.2929C9.90103 12.6839 9.90103 13.3159 10.292 13.7069C10.487 13.9019 10.7431 13.9999 10.9991 13.9999C11.2551 13.9999 11.511 13.9019 11.706 13.7069L14.9131 10.4999H17.378C17.904 10.4999 18.42 10.287 18.792 9.91396L21.3531 7.35292C21.4961 7.20992 21.539 6.99598 21.462 6.80898Z"
    fill="#25314C"
  />
</svg>
