<svg width="24" height="24" viewBox="0 0 24 24" fill="none" xmlns="http://www.w3.org/2000/svg">
<path
    d="M17.667 12.417C17.475 12.417 17.283 12.344 17.137 12.197L15.47 10.5301C15.177 10.2381 15.177 9.76202 15.47 9.46902C15.763 9.17602 16.238 9.17602 16.531 9.46902L17.668 10.605L20.471 7.80203C20.764 7.50903 21.239 7.50903 21.532 7.80203C21.825 8.09503 21.825 8.57006 21.532 8.86306L18.199 12.1961C18.051 12.3431 17.859 12.417 17.667 12.417Z"
    fill="#25314C"
  />
<path
    d="M10.009 10.5C12.2182 10.5 14.009 8.70914 14.009 6.5C14.009 4.29086 12.2182 2.5 10.009 2.5C7.79989 2.5 6.00903 4.29086 6.00903 6.5C6.00903 8.70914 7.79989 10.5 10.009 10.5Z"
    fill="#25314C"
  />
<path
    opacity="0.4"
    d="M12 12.5H8C3.94 12.5 2.5 15.473 2.5 18.019V21C2.5 21.276 2.724 21.5 3 21.5H17C17.276 21.5 17.5 21.276 17.5 21V18.019C17.5 15.473 16.06 12.5 12 12.5Z"
    fill="#25314C"
  />
</svg>
