<svg width="409" height="262" viewBox="0 0 409 262" fill="none" xmlns="http://www.w3.org/2000/svg">
<g opacity="0.5" clip-path="url(#clip0_518_144462)">
<path d="M196.375 246.442C199.097 213.936 209.262 181.892 225.706 153.739C227.47 150.827 225.117 149.297 223.318 152.268C206.657 180.792 196.359 213.259 193.6 246.191C193.332 249.658 196.112 249.853 196.375 246.442Z" fill="#0473EA"/>
<path d="M229.636 347.372C220.735 327.03 215.313 305.225 213.374 283.152C211.49 261.066 213.219 238.679 218.424 217.078C219.214 214.034 216.528 213.276 215.721 216.386C210.441 238.296 208.688 261 210.6 283.402C212.566 305.79 218.065 327.907 227.093 348.539C227.711 350.015 228.69 350.436 229.323 350.135C229.954 349.835 230.244 348.825 229.636 347.372Z" fill="#0473EA"/>
<path d="M254.921 359.289C237.343 329.248 228.626 294.121 229.83 259.357C230.128 250.664 230.967 241.976 232.508 233.4C234.005 224.823 236.063 216.328 238.789 208.047C240.069 203.88 241.667 199.821 243.226 195.755C244.922 191.742 246.607 187.724 248.57 183.84C250.431 179.902 252.567 176.119 254.687 172.328C256.934 168.624 259.139 164.875 261.629 161.347C264.321 157.313 267.252 153.487 270.219 149.689C273.285 145.993 276.357 142.304 279.687 138.854C281.62 136.805 279.662 134.773 277.682 136.868C265.753 149.458 255.548 163.99 247.484 179.711C243.452 187.576 240.05 195.768 237.128 204.123C234.272 212.506 232.027 221.086 230.313 229.768C223.616 264.532 226.854 301.052 239.659 334.049C243.255 343.273 247.565 352.214 252.531 360.757C254.027 363.265 256.389 361.748 254.921 359.289Z" fill="#0473EA"/>
<path d="M411.314 83.2795C419.792 83.4167 428.261 84.2898 436.639 85.6988C445.027 87.0715 453.302 89.1924 461.42 91.816C477.655 97.085 493.152 104.865 507.233 114.649C514.268 119.553 520.901 124.987 527.172 130.78C533.352 136.673 539.293 142.881 544.665 149.656C550.043 156.404 555.067 163.496 559.443 171.006C563.861 178.482 567.798 186.27 571.084 194.331C574.791 203.341 577.854 212.626 580.094 222.111C580.747 224.899 583.467 224.284 582.801 221.431C580.752 212.831 578.047 204.394 574.856 196.151C571.608 187.926 567.756 179.952 563.438 172.25C559.027 164.603 554.153 157.243 548.775 150.299C543.343 143.424 537.572 136.808 531.293 130.831C525.046 124.815 518.424 119.176 511.333 114.11C507.844 111.508 504.16 109.175 500.498 106.822C496.753 104.606 493.026 102.341 489.134 100.394C473.705 92.3218 457.114 86.6166 440.148 83.4237C430.648 81.601 421.015 80.6156 411.374 80.4223C408.524 80.3539 408.521 83.2124 411.314 83.2795Z" fill="#0473EA"/>
<path d="M234.159 174.234C239.138 164.323 244.915 154.847 251.371 145.942C257.869 137.061 265.014 128.836 272.784 121.165C288.323 105.791 306.654 93.1124 326.368 83.7858C329.183 82.5204 328.085 79.8932 325.209 81.1865C305.211 90.646 286.619 103.508 270.858 119.101C262.975 126.881 255.731 135.222 249.14 144.23C242.592 153.262 236.732 162.874 231.681 172.927C230.268 175.801 232.771 177.058 234.159 174.234Z" fill="#0473EA"/>
<path d="M255.117 114.491C266.1 102.817 278.473 92.2866 291.865 83.3133C294.699 81.4829 293.234 79.0511 290.345 80.9183C276.776 90.0097 264.241 100.679 253.112 112.504C250.778 114.998 252.82 116.945 255.117 114.491Z" fill="#0473EA"/>
<path d="M319.262 67.8447C333.812 61.0457 349.073 55.9518 364.657 52.6522C367.919 51.9576 367.421 49.1447 364.096 49.8525C348.308 53.1954 332.846 58.3565 318.105 65.2454C315.027 66.7474 316.235 69.3229 319.262 67.8447Z" fill="#0473EA"/>
<path d="M368.101 69.8209C382.428 66.7627 397.067 65.4054 411.68 65.7526C414.738 65.8385 414.863 62.9825 411.74 62.8952C396.92 62.5436 382.072 63.9199 367.537 67.0215C364.484 67.6885 365.1 70.4763 368.101 69.8209Z" fill="#0473EA"/>
<path d="M310.509 112.695C321.759 105.206 333.838 99.0285 346.409 94.3137C349.037 93.3242 348.144 90.6165 345.452 91.6288C332.687 96.4175 320.415 102.693 308.99 110.299C306.616 111.945 308.184 114.308 310.509 112.695Z" fill="#0473EA"/>
<path d="M298.108 200.342C301.186 195 304.537 189.809 308.344 184.992C310.163 182.512 312.232 180.254 314.195 177.904C316.304 175.691 318.318 173.382 320.567 171.306C329.313 162.749 339.337 155.539 350.115 149.887C371.697 138.582 396.431 133.921 420.483 136.487C427.218 137.199 433.891 138.498 440.433 140.292C442.349 140.834 443.136 138.091 441.157 137.532C417.272 130.905 391.61 131.521 368.056 139.267C365.09 140.172 362.215 141.35 359.319 142.455C356.477 143.706 353.606 144.894 350.849 146.337C348.041 147.677 345.353 149.257 342.643 150.788C340.008 152.449 337.321 154.035 334.804 155.88C324.537 162.989 315.41 171.706 307.535 181.428C303.155 186.915 299.21 192.776 295.701 198.903C294.689 200.733 297.126 202.12 298.108 200.342Z" fill="#0473EA"/>
<path d="M390.012 101.742C420.478 98.2871 451.942 103.995 479.486 118.236C482.955 119.956 486.281 121.945 489.622 123.905C491.27 124.923 492.886 125.99 494.512 127.046C496.147 128.088 497.733 129.197 499.293 130.345C505.635 134.808 511.528 139.844 517.139 145.153C522.739 150.481 527.916 156.315 532.788 162.408C537.554 168.597 541.983 175.076 545.897 181.884C550.258 189.519 554.032 197.5 557.173 205.728C558.062 208.159 560.682 207.183 559.768 204.691C554.08 189.737 546.293 175.567 536.675 162.898L534.879 160.519L532.998 158.214C531.733 156.689 530.486 155.142 529.179 153.655C526.529 150.727 523.891 147.77 521.056 145.048C515.501 139.471 509.492 134.379 503.178 129.665C496.891 124.906 490.146 120.773 483.245 116.984C476.31 113.238 469.084 110.086 461.715 107.368C454.322 104.717 446.752 102.635 439.093 101.039C431.419 99.5213 423.657 98.5557 415.867 98.101C407.141 97.6648 398.39 97.9393 389.709 98.9011C387.141 99.2044 387.499 102.039 390.012 101.742Z" fill="#0473EA"/>
<path d="M288.273 347.792C279.348 334.181 272.635 319.023 268.625 303.172C266.598 295.254 265.205 287.172 264.461 279.027C263.754 270.88 263.705 262.676 264.298 254.519C264.472 252.212 261.699 251.932 261.522 254.305C260.914 262.621 260.967 270.982 261.686 279.287C262.445 287.588 263.866 295.827 265.932 303.899C270.018 320.057 276.862 335.511 285.961 349.388C287.273 351.354 289.552 349.71 288.273 347.792Z" fill="#0473EA"/>
<path d="M273.723 174.207C283.727 158.993 295.891 145.53 310.178 134.414C324.377 123.244 340.503 114.615 357.484 108.927C359.893 108.14 359.091 105.403 356.618 106.211C339.344 111.997 322.935 120.778 308.49 132.141C293.955 143.451 281.583 157.141 271.408 172.62C270.006 174.857 272.355 176.395 273.723 174.207Z" fill="#0473EA"/>
<path d="M299.198 168.873C309.581 156.541 322.137 146.012 335.981 137.804C349.855 129.623 365.069 123.928 380.727 120.839C382.95 120.453 382.495 117.633 380.209 118.03C364.248 121.178 348.739 126.984 334.595 135.325C320.479 143.694 307.681 154.429 297.097 166.994C295.584 168.782 297.72 170.618 299.198 168.873Z" fill="#0473EA"/>
<path d="M247.264 253.208C248.185 240.867 250.367 228.592 253.995 216.741C254.776 214.27 252.136 213.36 251.335 215.895C247.644 227.953 245.423 240.44 244.487 252.993C244.297 255.637 247.078 255.794 247.264 253.208Z" fill="#0473EA"/>
<path d="M270.314 221.928C273.529 211.338 277.912 201.107 283.348 191.515C284.469 189.5 282.095 188.004 280.941 190.076C275.399 199.855 270.932 210.286 267.653 221.082C266.962 223.356 269.637 224.146 270.314 221.928Z" fill="#0473EA"/>
<path d="M281.303 274.898C280.642 265.171 280.973 255.36 282.447 245.716C282.783 243.706 280.038 243.206 279.694 245.281C278.187 255.137 277.85 265.162 278.524 275.102C278.666 277.197 281.44 276.935 281.303 274.898Z" fill="#0473EA"/>
<path d="M301.764 288.059C298.411 271.746 298.879 254.666 302.772 238.504C303.223 236.826 300.538 236.067 300.072 237.806C296.075 254.387 295.6 271.904 299.035 288.635C299.402 290.397 302.121 289.763 301.764 288.059Z" fill="#0473EA"/>
<path d="M357.763 321.579C347.25 311.729 339.725 299.016 336.144 284.977C332.525 270.97 332.943 255.82 337.325 242.104C338.546 238.262 340.022 234.503 341.866 230.936C342.373 229.875 339.927 228.506 339.391 229.625C332.668 242.901 329.816 258.275 331.263 273.281C332.679 288.291 338.322 302.755 347.467 314.454C350.041 317.724 352.858 320.804 355.888 323.69C356.817 324.509 358.65 322.357 357.763 321.579Z" fill="#0473EA"/>
<path d="M387.692 192.68C401.29 188.791 416.065 189.028 429.493 193.347C432.866 194.385 436.11 195.793 439.301 197.295C442.477 198.846 445.503 200.692 448.463 202.648C454.266 206.721 459.696 211.635 464.182 217.215C466.69 220.34 469.029 223.606 471.005 227.098C471.596 228.112 474.026 226.714 473.402 225.643C466.063 212.761 454.675 201.988 441.673 195.326C428.649 188.605 413.628 185.874 399.028 187.549C394.943 188 390.891 188.769 386.948 189.925C385.769 190.236 386.568 192.976 387.692 192.68Z" fill="#0473EA"/>
<path d="M318.101 248.74C321.66 228.308 332.2 209.396 347.425 195.621C348.515 194.679 346.719 192.495 345.581 193.478C329.9 207.663 319.027 227.166 315.361 248.225C315.11 249.728 317.858 250.184 318.101 248.74Z" fill="#0473EA"/>
<path d="M400.09 172.699C410.174 171.809 420.383 172.798 430.167 175.322C439.955 177.888 449.257 182.203 457.688 187.898C458.863 188.726 460.458 186.382 459.231 185.518C450.542 179.647 440.949 175.199 430.86 172.554C420.777 169.951 410.257 168.934 399.865 169.85C398.382 169.954 398.663 172.797 400.09 172.699Z" fill="#0473EA"/>
<path d="M311.507 214.85C315.206 207.435 319.757 200.47 325.024 194.128C326.137 192.816 324.051 190.921 322.898 192.282C317.498 198.786 312.828 205.931 309.031 213.539C308.245 215.148 310.746 216.407 311.507 214.85Z" fill="#0473EA"/>
<path d="M336.119 182.48C342.215 176.978 348.913 172.183 356.047 168.211C357.531 167.372 356.261 164.828 354.72 165.698C347.401 169.773 340.53 174.693 334.276 180.337C332.967 181.538 334.854 183.641 336.119 182.48Z" fill="#0473EA"/>
<path d="M364.184 183.625C370.174 180.28 376.538 177.619 383.137 175.784C384.514 175.411 383.832 172.639 382.393 173.03C375.594 174.922 369.034 177.664 362.856 181.113C361.556 181.847 362.934 184.33 364.184 183.625Z" fill="#0473EA"/>
<path d="M351.105 216.776C354.73 212.397 358.81 208.443 363.224 205.028C364.138 204.303 362.513 201.98 361.552 202.743C356.966 206.288 352.737 210.39 348.98 214.93C348.169 215.872 350.331 217.673 351.105 216.776Z" fill="#0473EA"/>
<path d="M385.558 260.174C386.571 255.898 388.598 252.236 391.959 248.863C395.131 245.734 398.803 243.78 403.15 242.914C404.359 242.704 405.588 242.574 406.82 242.526C407.176 242.525 407.157 239.666 406.74 239.669C401.763 239.817 397.023 241.432 393.178 244.172C392.657 244.464 392.241 244.92 391.727 245.242C391.308 245.7 390.77 245.994 390.361 246.489C389.416 247.296 388.588 248.361 387.757 249.318C386.952 250.303 386.326 251.357 385.653 252.366C385.092 253.439 384.536 254.501 384.067 255.612C383.583 256.875 383.174 258.174 382.848 259.514C382.771 259.923 385.493 260.524 385.558 260.174Z" fill="#0473EA"/>
<path d="M385.27 212.077C395.181 207.734 406.522 206.394 417.215 208.316C427.942 210.218 437.813 215.221 445.931 222.88C448.2 225.038 450.241 227.364 452.135 229.789C452.663 230.512 454.893 228.798 454.324 228.022C452.541 225.76 450.69 223.53 448.558 221.525C447.566 220.448 446.399 219.568 445.35 218.552C444.193 217.691 443.138 216.679 441.938 215.893C437.325 212.471 432.255 209.833 426.913 207.917C416.233 204.103 404.286 203.545 393.218 206.348C390.112 207.106 387.104 208.191 384.181 209.445C383.314 209.824 384.456 212.431 385.27 212.077Z" fill="#0473EA"/>
<path d="M404.236 225.116C411.895 224.467 419.607 226.133 426.159 229.75C427.792 230.684 429.378 231.72 430.925 232.854C432.403 234.081 433.976 235.291 435.319 236.743C436.684 238.155 437.991 239.581 439.088 241.147C439.712 241.877 440.148 242.732 440.734 243.487C441.17 244.336 441.751 245.095 442.146 245.967C443.158 247.842 444.067 249.788 444.741 251.844C444.972 252.426 447.617 251.524 447.364 250.881C444.651 243.099 439.847 236.254 433.157 231.026C426.7 225.953 419.048 222.937 410.871 222.269C408.596 222.087 406.292 222.036 404.01 222.268C403.326 222.3 403.61 225.143 404.236 225.116Z" fill="#0473EA"/>
<path d="M353.19 248.677C355.068 242.533 357.812 236.712 361.551 231.487C363.424 228.883 365.525 226.378 367.78 224.053C370.062 221.778 372.499 219.726 375.06 217.873C375.787 217.363 374.243 214.984 373.463 215.531C370.776 217.476 368.219 219.629 365.826 222.015C363.463 224.449 361.264 227.072 359.301 229.805C355.378 235.286 352.493 241.4 350.523 247.849C350.277 248.785 352.962 249.555 353.19 248.677Z" fill="#0473EA"/>
<path d="M371.337 248.912C372.239 246.886 373.292 244.934 374.492 243.049C375.726 241.191 377.155 239.405 378.701 237.697C380.236 235.967 381.908 234.481 383.655 233.135C385.402 231.79 387.223 230.573 389.146 229.536C389.697 229.269 388.466 226.705 387.86 227C385.798 228.111 383.846 229.415 381.973 230.856C380.102 232.298 378.315 233.891 376.675 235.735C375.024 237.556 373.499 239.465 372.177 241.454C370.894 243.472 369.765 245.564 368.799 247.736C368.531 248.365 371.094 249.485 371.337 248.912Z" fill="#0473EA"/>
<path d="M367.848 265.248C367.898 262.16 368.267 259.091 368.938 256.123C369.055 255.502 366.359 254.781 366.226 255.462C365.508 258.639 365.114 261.923 365.065 265.226C365.067 265.927 367.853 265.889 367.848 265.248Z" fill="#0473EA"/>
<path d="M369.713 53.1739C368.475 54.5613 366.375 54.6554 365.023 53.3843C363.67 52.1132 363.579 49.9584 364.816 48.571C366.057 47.1838 368.155 47.0897 369.509 48.3608C370.86 49.6316 370.951 51.7867 369.713 53.1739Z" fill="#0473EA"/>
<path d="M319.161 69.4104C317.924 70.7977 315.822 70.8916 314.471 69.6206C313.119 68.3496 313.027 66.1946 314.267 64.8075C315.504 63.4204 317.604 63.3262 318.958 64.5972C320.309 65.8682 320.401 68.023 319.161 69.4104Z" fill="#0473EA"/>
<path d="M285.078 192.33C283.839 193.717 281.738 193.812 280.388 192.54C279.035 191.27 278.944 189.114 280.183 187.727C281.421 186.34 283.52 186.246 284.873 187.517C286.225 188.788 286.316 190.943 285.078 192.33Z" fill="#0473EA"/>
<path d="M381.783 121.861C380.545 123.248 378.443 123.343 377.09 122.073C375.739 120.801 375.648 118.646 376.886 117.259C378.125 115.872 380.226 115.777 381.577 117.048C382.93 118.319 383.021 120.475 381.783 121.861Z" fill="#0473EA"/>
<path d="M319.161 250.563C317.924 251.95 315.822 252.044 314.471 250.773C313.119 249.502 313.027 247.346 314.267 245.959C315.504 244.572 317.604 244.479 318.958 245.749C320.309 247.02 320.401 249.176 319.161 250.563Z" fill="#0473EA"/>
<path d="M270.354 226.031C269.116 227.419 267.014 227.513 265.663 226.242C264.312 224.97 264.221 222.816 265.459 221.429C266.697 220.042 268.797 219.947 270.15 221.218C271.501 222.489 271.592 224.644 270.354 226.031Z" fill="#0473EA"/>
<path d="M219.761 216.233C218.522 217.62 216.424 217.714 215.07 216.443C213.718 215.172 213.628 213.017 214.866 211.629C216.103 210.242 218.205 210.149 219.556 211.419C220.908 212.691 221 214.846 219.761 216.233Z" fill="#0473EA"/>
<path d="M281.487 139.596C280.249 140.983 278.149 141.078 276.798 139.807C275.445 138.535 275.353 136.38 276.592 134.992C277.83 133.605 279.93 133.512 281.282 134.782C282.634 136.054 282.726 138.209 281.487 139.596Z" fill="#0473EA"/>
<path d="M311.132 113.905C309.893 115.292 307.794 115.386 306.442 114.115C305.089 112.844 304.997 110.689 306.236 109.302C307.475 107.914 309.576 107.82 310.928 109.091C312.279 110.362 312.371 112.517 311.132 113.905Z" fill="#0473EA"/>
<path d="M299.848 172.102C298.608 173.489 296.509 173.583 295.157 172.312C293.804 171.041 293.714 168.886 294.952 167.499C296.19 166.112 298.291 166.017 299.643 167.289C300.994 168.559 301.086 170.714 299.848 172.102Z" fill="#0473EA"/>
<path d="M347.595 197.389C346.356 198.776 344.257 198.87 342.905 197.599C341.551 196.329 341.46 194.173 342.698 192.786C343.939 191.399 346.038 191.304 347.39 192.576C348.742 193.847 348.834 196.001 347.595 197.389Z" fill="#0473EA"/>
<path d="M372.927 250.618C371.69 252.005 369.589 252.098 368.237 250.828C366.886 249.557 366.794 247.401 368.033 246.014C369.27 244.627 371.371 244.533 372.723 245.804C374.074 247.075 374.166 249.229 372.927 250.618Z" fill="#0473EA"/>
<path d="M197.491 250.563C196.252 251.95 194.152 252.044 192.8 250.773C191.448 249.502 191.357 247.347 192.595 245.959C193.834 244.572 195.934 244.479 197.286 245.749C198.638 247.02 198.73 249.176 197.491 250.563Z" fill="#0473EA"/>
<path d="M350.917 94.8597C349.677 96.2468 347.577 96.3408 346.225 95.0699C344.874 93.7988 344.783 91.6438 346.021 90.2565C347.258 88.8694 349.36 88.7752 350.712 90.0463C352.064 91.3173 352.154 93.4722 350.917 94.8597Z" fill="#0473EA"/>
<path d="M359.191 168.695C357.953 170.083 355.852 170.177 354.502 168.906C353.149 167.634 353.059 165.48 354.297 164.093C355.535 162.705 357.635 162.611 358.988 163.882C360.339 165.153 360.431 167.308 359.191 168.695Z" fill="#0473EA"/>
<path d="M228.449 153.349C227.211 154.737 225.109 154.831 223.758 153.561C222.407 152.289 222.316 150.134 223.553 148.747C224.792 147.359 226.893 147.265 228.244 148.536C229.596 149.808 229.688 151.962 228.449 153.349Z" fill="#0473EA"/>
<path d="M336.696 183.805C335.459 185.192 333.357 185.287 332.006 184.015C330.655 182.744 330.562 180.589 331.801 179.202C333.041 177.815 335.14 177.72 336.491 178.992C337.844 180.262 337.935 182.418 336.696 183.805Z" fill="#0473EA"/>
<path d="M390.726 231.044C389.487 232.432 387.387 232.526 386.036 231.255C384.685 229.984 384.591 227.829 385.829 226.442C387.068 225.054 389.168 224.961 390.522 226.231C391.873 227.503 391.964 229.658 390.726 231.044Z" fill="#0473EA"/>
<path d="M387.408 212.581C386.168 213.968 384.069 214.061 382.715 212.791C381.363 211.52 381.273 209.366 382.51 207.977C383.75 206.591 385.849 206.497 387.201 207.767C388.552 209.038 388.645 211.194 387.408 212.581Z" fill="#0473EA"/>
<path d="M411.221 84.1932C409.984 85.5806 407.885 85.6749 406.532 84.4037C405.18 83.1325 405.09 80.9777 406.327 79.5906C407.564 78.2033 409.666 78.1089 411.018 79.3801C412.368 80.6511 412.461 82.8061 411.221 84.1932Z" fill="#0473EA"/>
</g>
<defs>
<clipPath id="clip0_518_144462">
<rect width="408.256" height="262" fill="white" transform="translate(0.743408)"/>
</clipPath>
</defs>
</svg>
