<svg width="48" height="48" viewBox="0 0 48 48" fill="none" xmlns="http://www.w3.org/2000/svg">
<path d="M26 28.0601V37.94C26 39.098 26.4081 40.1242 27.1621 40.9942C27.5061 41.3902 27.2599 42.0001 26.7339 42.0001H10C9.84 42.0001 9.68004 42 9.54004 41.98C7.34004 41.84 6.16002 40.66 6.02002 38.46C6.00002 38.32 6 38.1601 6 38.0001V9.00005C6 7.08005 7.79993 5.64013 9.67993 6.08013L29.6799 10.7002C31.0399 11.0002 32 12.2202 32 13.6202V21.96C32 22.23 31.8079 22.4618 31.5459 22.5298C28.1119 23.4318 26 25.4341 26 28.0601Z" fill="#0473EA"/>
<path d="M15 42V34C15 31.792 16.79 30 19 30C21.21 30 23 31.792 23 34V42H15Z" fill="#38BF07"/>
<path d="M24 19.5H22C21.172 19.5 20.5 18.828 20.5 18C20.5 17.172 21.172 16.5 22 16.5H24C24.828 16.5 25.5 17.172 25.5 18C25.5 18.828 24.828 19.5 24 19.5ZM17.5 18C17.5 17.172 16.828 16.5 16 16.5H14C13.172 16.5 12.5 17.172 12.5 18C12.5 18.828 13.172 19.5 14 19.5H16C16.828 19.5 17.5 18.828 17.5 18ZM25.5 24C25.5 23.172 24.828 22.5 24 22.5H22C21.172 22.5 20.5 23.172 20.5 24C20.5 24.828 21.172 25.5 22 25.5H24C24.828 25.5 25.5 24.828 25.5 24ZM17.5 24C17.5 23.172 16.828 22.5 16 22.5H14C13.172 22.5 12.5 23.172 12.5 24C12.5 24.828 13.172 25.5 14 25.5H16C16.828 25.5 17.5 24.828 17.5 24Z" fill="#38BF07"/>
<path d="M44 36.6802V37.9399C44 40.6599 40 42 36 42C32 42 28 40.6599 28 37.9399V36.6802C29.74 38.0802 32.52 38.9199 36 38.9199C39.48 38.9199 42.26 38.0802 44 36.6802Z" fill="#38BF07"/>
<path d="M44 31.8799V32.8599C44 35.5999 40 36.9199 36 36.9199C32 36.9199 28 35.5999 28 32.8599V31.8799C29.76 33.2799 32.54 34.1201 36 34.1201C39.48 34.1201 42.26 33.2799 44 31.8799Z" fill="#38BF07"/>
<path d="M36 32.1201C40.4183 32.1201 44 30.3023 44 28.0601C44 25.8178 40.4183 24 36 24C31.5817 24 28 25.8178 28 28.0601C28 30.3023 31.5817 32.1201 36 32.1201Z" fill="#0473EA"/>
</svg>
