<svg width="48" height="48" viewBox="0 0 48 48" fill="none" xmlns="http://www.w3.org/2000/svg">
<path d="M36 18V26.444C36 26.806 35.6761 27.014 35.5181 27.04C35.2121 27.092 34.9161 27.194 34.6401 27.34C33.3601 27.98 32.0802 28.6 29.1602 29.46C27.8802 29.82 27 31 27 32.34V36.22C27 38.104 27.4499 39.74 28.1919 41.144C28.3979 41.534 28.0919 42 27.6519 42H12C8 42 6 40 6 36V12C6 8 8 6 12 6H24V12C24 15.314 26.686 18 30 18H36Z" fill="#0473EA"/>
<path d="M30 18H36L24 6V12C24 16 26 18 30 18Z" fill="#0473EA" fill-opacity="0.7"/>
<path d="M15.5 24C15.5 24.828 14.828 25.5 14 25.5C13.172 25.5 12.5 24.828 12.5 24C12.5 23.172 13.172 22.5 14 22.5C14.828 22.5 15.5 23.172 15.5 24ZM14 30.5C13.172 30.5 12.5 31.172 12.5 32C12.5 32.828 13.172 33.5 14 33.5C14.828 33.5 15.5 32.828 15.5 32C15.5 31.172 14.828 30.5 14 30.5ZM29.5 24C29.5 23.172 28.828 22.5 28 22.5H19C18.172 22.5 17.5 23.172 17.5 24C17.5 24.828 18.172 25.5 19 25.5H28C28.828 25.5 29.5 24.828 29.5 24ZM23.5 32C23.5 31.172 22.828 30.5 22 30.5H19C18.172 30.5 17.5 31.172 17.5 32C17.5 32.828 18.172 33.5 19 33.5H22C22.828 33.5 23.5 32.828 23.5 32Z" fill="#38BF07"/>
<path d="M42 32.232C39 31.454 37.5002 30.778 36.0122 30C34.5002 30.778 33.002 31.454 30 32.334C30 33.13 30 35.392 30 36.222C30 40.888 33.75 43.222 36 44C38.25 43.222 42 40.888 42 36.222C42 35.364 42 33.068 42 32.232Z" fill="#38BF07"/>
</svg>
