<svg width="69" height="17" viewBox="0 0 69 17" fill="none" xmlns="http://www.w3.org/2000/svg">
<path d="M5.33321 3.24674C4.81225 3.23039 4.29841 3.37111 3.85846 3.65061C3.65861 3.78521 3.49751 3.96981 3.39119 4.18604C3.28487 4.40227 3.23705 4.64258 3.25248 4.88303C3.24379 5.20954 3.35925 5.52719 3.57558 5.7719C3.8425 6.05327 4.15655 6.28581 4.50355 6.45902L7.53382 7.95387C8.3215 8.29942 9.01696 8.82524 9.56411 9.48892C10.0156 10.1096 10.2471 10.8632 10.222 11.6303C10.2427 12.5012 9.99602 13.3575 9.51513 14.0838C9.03111 14.7882 8.36399 15.347 7.58572 15.7C6.7075 16.0976 5.75176 16.2946 4.7879 16.2768C3.93446 16.2779 3.08487 16.1623 2.26274 15.9332C1.44919 15.7081 0.68275 15.3386 0 14.8422V11.4889C0.749228 12.191 1.60937 12.7643 2.54563 13.1858C3.26866 13.5206 4.05182 13.7061 4.84821 13.7312C5.38528 13.7453 5.91602 13.6126 6.38326 13.3474C6.59114 13.2284 6.76175 13.0539 6.87596 12.8434C6.99016 12.6328 7.04344 12.3946 7.02981 12.1555C7.0469 11.8176 6.94326 11.4847 6.73742 11.2162C6.43379 10.9006 6.07445 10.6437 5.6775 10.4586L2.82888 9.08469C2.05072 8.73347 1.36556 8.20502 0.828197 7.5416C0.330877 6.8454 0.0818183 6.00233 0.120977 5.14765C0.0986291 4.30754 0.338678 3.48136 0.80773 2.78403C1.27622 2.11536 1.919 1.58786 2.66624 1.25885C3.49268 0.892525 4.38875 0.709842 5.29264 0.723406C6.01677 0.721473 6.73872 0.80278 7.44427 0.965726C8.14263 1.12934 8.80847 1.40931 9.41389 1.79392V4.96563C8.77596 4.45124 8.0729 4.02333 7.32293 3.693C6.69682 3.41085 6.01985 3.25901 5.33321 3.24674ZM19.1315 16.2768C18.07 16.29 17.0163 16.0944 16.0303 15.7011C15.1181 15.3332 14.2924 14.7793 13.606 14.0747C12.9212 13.3669 12.3854 12.5289 12.0304 11.6102C11.651 10.6174 11.4625 9.56192 11.4749 8.49918C11.4631 7.43223 11.6551 6.37284 12.0407 5.3779C12.4006 4.45452 12.9474 3.61539 13.6466 2.91305C14.3501 2.21292 15.1886 1.66306 16.1111 1.29686C17.1045 0.904822 18.1645 0.709327 19.2324 0.721214C20.0626 0.720594 20.8888 0.836235 21.687 1.06477C22.478 1.28875 23.2258 1.64382 23.8993 2.11519V5.42834C23.3003 4.80938 22.5822 4.31805 21.7882 3.98393C20.9914 3.6522 20.1361 3.48391 19.2729 3.48906C18.3928 3.46918 17.5247 3.69715 16.7679 4.14694C16.0624 4.57559 15.4891 5.19079 15.1111 5.92468C14.7107 6.71605 14.5099 7.59339 14.5263 8.48017C14.5107 9.38441 14.7263 10.2777 15.1528 11.0751C15.5552 11.8205 16.1567 12.4395 16.8903 12.8631C17.6721 13.3048 18.5583 13.5281 19.4561 13.5097C20.2794 13.5116 21.0978 13.382 21.8803 13.1259C22.654 12.8744 23.3687 12.469 23.9815 11.934V15.025C23.2582 15.4546 22.4752 15.7749 21.6581 15.9753C20.8312 16.1775 19.9828 16.2787 19.1315 16.2768Z" fill="#0473EA"/>
<path d="M38.9903 16.5L29.049 7.02507V16.0757H26.1196V0.5L36.0423 9.97493V0.924334H38.9918L38.9903 16.5ZM68.1015 3.57084H63.4349V16.0757H60.4854V3.57047H55.7984V0.923968H68.1015V3.57084Z" fill="#38D200"/>
<path d="M43.9899 16.0755H40.6863L46.181 8.03478L41.2115 0.923828H44.597L49.6667 7.99457L43.9899 16.0755Z" fill="#0473EA"/>
<path d="M55.3935 16.0755H51.8176L48.9467 11.9616L50.7174 9.44739L51.97 11.1878L55.3935 16.0733V16.0755ZM50.7982 6.68137L49.1049 4.32762L51.3932 0.923828H54.7777L50.7982 6.68137Z" fill="#38D200"/>
</svg>
