<svg width="155" height="26" viewBox="0 0 155 26" fill="none" xmlns="http://www.w3.org/2000/svg">
<path d="M9.51494 25.42C8.27437 25.42 7.11573 25.2679 6.039 24.9636C4.96228 24.6593 4.0026 24.2379 3.15994 23.6996C2.31729 23.1378 1.61508 22.5175 1.05331 21.8387C0.514954 21.1599 0.163849 20.446 0 19.697L4.70481 18.2926C5.0091 19.0884 5.54746 19.7789 6.31989 20.3641C7.09232 20.9259 8.06371 21.2184 9.23406 21.2419C10.4746 21.2653 11.4811 20.9961 12.2536 20.4343C13.0494 19.8725 13.4473 19.1469 13.4473 18.2575C13.4473 17.485 13.1313 16.8413 12.4993 16.3264C11.8908 15.788 11.0481 15.3784 9.97138 15.0975L6.77633 14.2549C5.58257 13.9506 4.52925 13.4941 3.61638 12.8856C2.70351 12.2536 1.98959 11.4811 1.47464 10.5683C0.959687 9.65539 0.70221 8.59037 0.70221 7.3732C0.70221 5.05591 1.46294 3.25357 2.98439 1.96619C4.52925 0.655396 6.7061 0 9.51494 0C11.0832 0 12.4525 0.23407 13.6229 0.702209C14.8166 1.14694 15.8114 1.79063 16.6073 2.63329C17.4031 3.47594 18.0117 4.47074 18.433 5.61768L13.7633 7.05721C13.4824 6.26137 12.9675 5.58257 12.2185 5.0208C11.4694 4.45903 10.5214 4.17815 9.3745 4.17815C8.20415 4.17815 7.27958 4.44733 6.60077 4.98569C5.94538 5.52405 5.61768 6.28478 5.61768 7.26787C5.61768 8.0403 5.87516 8.64888 6.39011 9.09362C6.92847 9.53835 7.65409 9.87775 8.56696 10.1118L11.7971 10.9194C13.9038 11.4343 15.5422 12.3589 16.7126 13.6931C17.8829 15.0273 18.4681 16.5136 18.4681 18.1521C18.4681 19.6034 18.117 20.879 17.4148 21.9792C16.7126 23.0559 15.6944 23.8985 14.3602 24.5071C13.026 25.1157 11.4109 25.42 9.51494 25.42Z" fill="white"/>
<path d="M42.2878 24.9987L49.3451 0.421325H54.2254L46.8873 24.9987H42.2878ZM27.4712 24.9987L20.2033 0.421325H25.0837L32.0707 24.9987H27.4712ZM28.1032 24.9987L34.8093 0.421325H39.163L32.492 24.9987H28.1032ZM41.8314 24.9987L35.2306 0.421325H39.5843L46.4309 24.9987H41.8314Z" fill="white"/>
<path d="M120.71 25.42C119.469 25.42 118.31 25.2679 117.234 24.9636C116.157 24.6593 115.197 24.2379 114.355 23.6996C113.512 23.1378 112.81 22.5175 112.248 21.8387C111.71 21.1599 111.359 20.446 111.195 19.697L115.899 18.2926C116.204 19.0884 116.742 19.7789 117.515 20.3641C118.287 20.9259 119.258 21.2184 120.429 21.2419C121.669 21.2653 122.676 20.9961 123.448 20.4343C124.244 19.8725 124.642 19.1469 124.642 18.2575C124.642 17.485 124.326 16.8413 123.694 16.3264C123.085 15.788 122.243 15.3784 121.166 15.0975L117.971 14.2549C116.777 13.9506 115.724 13.4941 114.811 12.8856C113.898 12.2536 113.184 11.4811 112.669 10.5683C112.154 9.65539 111.897 8.59037 111.897 7.3732C111.897 5.05591 112.658 3.25357 114.179 1.96619C115.724 0.655396 117.901 0 120.71 0C122.278 0 123.647 0.23407 124.818 0.702209C126.011 1.14694 127.006 1.79063 127.802 2.63329C128.598 3.47594 129.206 4.47074 129.628 5.61768L124.958 7.05721C124.677 6.26137 124.162 5.58257 123.413 5.0208C122.664 4.45903 121.716 4.17815 120.569 4.17815C119.399 4.17815 118.474 4.44733 117.795 4.98569C117.14 5.52405 116.812 6.28478 116.812 7.26787C116.812 8.0403 117.07 8.64888 117.585 9.09362C118.123 9.53835 118.849 9.87775 119.762 10.1118L122.992 10.9194C125.098 11.4343 126.737 12.3589 127.907 13.6931C129.078 15.0273 129.663 16.5136 129.663 18.1521C129.663 19.6034 129.312 20.879 128.609 21.9792C127.907 23.0559 126.889 23.8985 125.555 24.5071C124.221 25.1157 122.606 25.42 120.71 25.42Z" fill="white"/>
<path d="M149.971 24.9987V0.421325H154.782V24.9987H149.971ZM133.786 24.9987V0.386215L138.596 0.421325V25.0338L133.786 24.9987ZM137.367 14.6411V10.2172H152.254V14.6411H137.367Z" fill="white"/>
<path d="M68.4224 25.4181C65.9413 25.4181 63.741 24.8797 61.8217 23.803C59.9257 22.7029 58.4394 21.2048 57.3626 19.3089C56.2859 17.3895 55.7476 15.2009 55.7476 12.7432C55.7476 10.2387 56.2859 8.0384 57.3626 6.14243C58.4394 4.22306 59.914 2.72501 61.7866 1.64829C63.6825 0.571564 65.8594 0.0332031 68.3171 0.0332031C70.7983 0.0332031 72.9751 0.583268 74.8477 1.6834C76.7436 2.76012 78.23 4.25817 79.3067 6.17754C80.3834 8.07351 80.9218 10.2621 80.9218 12.7432C80.9218 15.2009 80.3834 17.3895 79.3067 19.3089C78.2534 21.2048 76.7787 22.7029 74.8828 23.803C73.0102 24.8797 70.8568 25.4181 68.4224 25.4181Z" fill="#0473EA"/>
<path d="M96.0582 25.4181C93.5771 25.4181 91.3768 24.8797 89.4575 23.803C87.5615 22.7029 86.0752 21.2048 84.9984 19.3089C83.9217 17.3895 83.3834 15.2009 83.3834 12.7432C83.3834 10.2387 83.9217 8.0384 84.9984 6.14243C86.0752 4.22306 87.5498 2.72501 89.4224 1.64829C91.3183 0.571564 93.4952 0.0332031 95.9529 0.0332031C98.4341 0.0332031 100.611 0.583268 102.483 1.6834C104.379 2.76012 105.866 4.25817 106.943 6.17754C108.019 8.07351 108.558 10.2621 108.558 12.7432C108.558 15.2009 108.019 17.3895 106.943 19.3089C105.889 21.2048 104.415 22.7029 102.519 23.803C100.646 24.8797 98.4926 25.4181 96.0582 25.4181Z" fill="#38D200"/>
</svg>
