<svg width="353" height="223" viewBox="0 0 353 223" fill="none" xmlns="http://www.w3.org/2000/svg">
<path fill-rule="evenodd" clip-rule="evenodd" d="M201.302 220.711H51.2931V141.947C51.2931 119.418 69.5711 101.143 92.1033 101.143H201.302V220.711Z" fill="#38BF07"/>
<path fill-rule="evenodd" clip-rule="evenodd" d="M102.929 100.908C103.416 100.908 103.81 101.302 103.81 101.788C103.81 102.274 103.416 102.668 102.929 102.668C83.6949 102.668 68.0676 118.032 67.757 137.086L67.7523 137.665V220.711C67.7523 221.197 67.3582 221.591 66.8721 221.591C66.4034 221.591 66.0202 221.225 65.9934 220.763L65.9919 220.711V137.665C65.9919 117.37 82.5302 100.908 102.929 100.908Z" fill="#FFBD00"/>
<path fill-rule="evenodd" clip-rule="evenodd" d="M102.929 100.908C103.416 100.908 103.81 101.302 103.81 101.788C103.81 102.274 103.416 102.668 102.929 102.668C83.6949 102.668 68.0676 118.032 67.757 137.086L67.7523 137.665V220.711C67.7523 221.197 67.3582 221.591 66.8721 221.591C66.4034 221.591 66.0202 221.225 65.9934 220.763L65.9919 220.711V137.665C65.9919 117.37 82.5302 100.908 102.929 100.908Z" fill="white" fill-opacity="0.85"/>
<path d="M80.2155 90.737C80.2155 91.5679 79.5124 92.2709 78.6816 92.2709C77.8507 92.2709 77.1477 91.5679 77.1477 90.737C77.1477 89.9062 77.8507 89.2032 78.6816 89.2032C79.5124 89.2032 80.2155 89.9062 80.2155 90.737Z" fill="#E6EAFE"/>
<path d="M180.463 124.74C184.727 124.74 188.663 127.036 190.828 130.71L214.902 173.02L225.529 175.448C245.668 183.122 238.846 221.169 238.846 221.169L92.7588 220.907C82.9191 220.71 73.9322 215.069 69.7995 206.213C55.4991 175.447 111.52 133.727 122.278 126.118C123.393 125.331 124.771 124.871 126.148 124.871L180.463 124.74Z" fill="#0473EA"/>
<path d="M120.376 127.436C117.883 129.207 114.341 131.896 110.143 135.307C119.457 142.326 134.217 149.87 150.42 145.541C150.485 145.475 126.739 141.933 120.376 127.436Z" fill="#231F20"/>
<path d="M175.543 145.601C183.284 145.339 189.975 142.912 195.748 139.435L191.943 132.744C188.007 141.534 175.543 145.601 175.543 145.601Z" fill="#231F20"/>
<path d="M185.908 112.211C169.705 93.2532 145.762 96.9267 132.577 100.863C123.59 103.552 117.686 112.342 118.932 121.592C121.491 140.681 151.01 145.6 151.01 145.6H175.543C175.543 145.6 206.571 136.417 185.908 112.211Z" fill="#0473EA"/>
<path d="M175.543 146.262C175.281 146.262 175.019 146.065 174.887 145.803C174.756 145.475 174.953 145.081 175.347 145.016C175.478 144.95 188.991 140.883 191.812 131.306C193.452 125.795 191.287 119.564 185.383 112.61C169.443 93.9148 145.565 97.6539 132.708 101.459C123.983 104.082 118.342 112.676 119.523 121.466C122.015 139.833 150.813 144.884 151.075 144.884C151.403 144.95 151.666 145.278 151.6 145.672C151.534 146 151.206 146.262 150.813 146.196C149.566 146 120.769 140.949 118.145 121.663C116.899 112.217 122.934 103.033 132.249 100.212C145.368 96.2763 169.836 92.4716 186.301 111.757C192.533 119.039 194.764 125.73 192.992 131.634C189.975 141.867 176.199 146 175.609 146.196C175.675 146.262 175.609 146.262 175.543 146.262Z" fill="#231F20"/>
<path d="M143.733 94.4661C145.808 92.3911 145.808 89.0269 143.733 86.9518C141.658 84.8768 138.294 84.8768 136.219 86.9518C134.144 89.0269 134.144 92.3911 136.219 94.4661C138.294 96.5411 141.658 96.5411 143.733 94.4661Z" fill="white"/>
<path d="M139.989 96.6654C136.71 96.6654 134.02 93.9759 134.02 90.696C134.02 87.4161 136.71 84.7266 139.989 84.7266C143.269 84.7266 145.959 87.4161 145.959 90.696C145.959 93.9759 143.269 96.6654 139.989 96.6654ZM139.989 86.0385C137.431 86.0385 135.332 88.1377 135.332 90.696C135.332 93.2543 137.431 95.3534 139.989 95.3534C142.548 95.3534 144.647 93.2543 144.647 90.696C144.647 88.1377 142.548 86.0385 139.989 86.0385Z" fill="#231F20"/>
<path d="M141.695 99.5566V119.958C141.695 122.844 143.204 125.533 145.631 126.977L167.344 140.162L175.543 124.615V105.264L141.695 99.5566Z" fill="#FFE9D9"/>
<path d="M167.606 141.146L146.156 128.092C142.941 126.124 140.973 122.647 140.973 118.908V99.5564C140.973 99.1628 141.236 98.9005 141.629 98.9005C142.023 98.9005 142.285 99.1628 142.285 99.5564V118.908C142.285 122.188 143.991 125.271 146.811 126.976L167.016 139.309L173.379 127.239C174.297 125.468 174.822 123.434 174.822 121.466V117.924C174.822 117.53 175.084 117.268 175.478 117.268C175.871 117.268 176.134 117.53 176.134 117.924V121.466C176.134 123.697 175.609 125.927 174.559 127.895L167.606 141.146Z" fill="#231F20"/>
<path d="M167.213 120.151C153.831 120.151 142.679 109.983 141.433 96.6665L138.875 69.3122C138.875 69.3122 184.793 57.4389 187.351 69.3122C189.385 78.7583 186.892 94.633 184.465 106.113C182.76 114.312 175.544 120.151 167.213 120.151Z" fill="#FFE9D9"/>
<path d="M167.213 120.803C153.109 120.803 141.695 110.11 140.711 95.8756C140.711 95.482 140.973 95.2196 141.301 95.154C141.695 95.154 141.957 95.4164 142.023 95.7444C143.007 109.258 153.831 119.425 167.213 119.425C175.216 119.425 182.169 113.718 183.809 105.912C185.186 99.4835 186.498 90.0374 187.089 83.0184C187.089 82.6248 187.417 82.3624 187.81 82.428C188.204 82.428 188.466 82.756 188.401 83.1496C187.81 90.2342 186.433 99.7459 185.055 106.24C183.35 114.702 175.806 120.803 167.213 120.803Z" fill="#231F20"/>
<path d="M157.438 77.5771C155.929 76.9867 154.421 76.3963 152.912 75.7404C151.731 81.6442 148.714 87.1544 144.319 91.4183C143.794 91.9431 143.072 92.4679 142.351 92.2711C141.891 92.1399 141.563 91.7463 141.301 91.3527C140.448 90.1719 139.661 89.0568 138.808 87.876C137.824 86.4984 136.644 85.7769 135.463 84.5961C132.511 81.5786 130.412 77.5771 130.281 73.3788C130.149 69.1806 132.183 64.8511 135.922 62.752C139.596 60.5872 144.843 61.112 147.664 64.2607C151.797 53.6994 163.801 46.746 175.215 48.1892C182.234 49.042 188.663 53.109 192.861 58.6193C194.436 60.7184 195.682 63.0143 196.535 65.4415C197.519 68.1966 198.634 71.5421 197.453 74.4284C195.616 79.0203 191.812 82.497 186.957 83.5465C182.234 84.5961 177.249 83.6777 172.591 82.497C167.409 81.0538 162.358 79.4795 157.438 77.5771Z" fill="#414042"/>
<path d="M238.78 221.895C238.714 221.895 238.714 221.895 238.649 221.895C238.321 221.83 238.058 221.502 238.124 221.108C238.189 220.714 244.618 183.52 225.267 176.108L214.377 173.615L191.287 133.403C191.09 133.075 191.221 132.682 191.549 132.485C191.877 132.288 192.271 132.419 192.468 132.747L215.296 172.5L225.726 174.861C246.127 182.668 239.698 219.73 239.436 221.305C239.37 221.633 239.108 221.895 238.78 221.895Z" fill="#231F20"/>
<path d="M115.062 221.893C105.682 221.893 97.3506 221.762 92.6276 221.631C82.2631 221.369 73.0138 215.465 69.0779 206.543C63.1085 193.03 70.0619 174.991 89.1509 154.262C103.517 138.715 119.785 127.039 119.982 126.907C120.244 126.711 120.704 126.776 120.9 127.039C121.097 127.301 121.032 127.76 120.769 127.957C120.113 128.416 56.3519 174.466 70.3243 205.953C74.0633 214.415 82.8535 220.057 92.7588 220.253C121.294 220.909 154.159 220.45 160.915 217.433C169.771 213.366 167.278 197.491 166.688 194.342C166.425 192.833 165.113 191.718 163.605 191.653L113.685 186.798C113.357 186.733 113.029 186.47 113.094 186.077C113.16 185.749 113.422 185.421 113.816 185.486L163.67 190.341C165.769 190.472 167.541 191.981 167.934 194.08C168.787 198.737 170.952 214.284 161.374 218.613C155.602 221.303 133.43 221.893 115.062 221.893Z" fill="#231F20"/>
<path d="M163.932 197.23L181.185 198.149L200.339 208.251C201.323 208.776 201.717 209.956 201.192 210.94C200.733 211.924 199.618 212.318 198.634 211.924L186.17 206.873C185.973 206.808 185.776 207.07 185.973 207.201L198.896 215.926C199.814 216.516 200.011 217.763 199.421 218.681C198.83 219.534 197.715 219.731 196.797 219.206L182.234 210.416C182.103 210.35 181.972 210.547 182.037 210.612L187.679 215.795C188.925 216.975 188.4 219.075 186.695 219.468C186.17 219.599 185.58 219.468 185.12 219.206L179.151 215.663L163.473 215.795C158.356 215.795 154.158 211.662 154.158 206.48C154.224 201.166 158.619 196.968 163.932 197.23Z" fill="#FFE9D9"/>
<path d="M186.302 220.186C185.777 220.186 185.318 220.055 184.859 219.793L179.086 216.316L163.605 216.447C160.915 216.513 158.423 215.463 156.52 213.561C154.618 211.659 153.568 209.166 153.568 206.542C153.568 203.787 154.684 201.228 156.651 199.392C158.619 197.489 161.243 196.505 163.933 196.637L181.316 197.555L200.602 207.723C201.914 208.379 202.373 209.953 201.783 211.265C201.193 212.511 199.684 213.102 198.372 212.577L190.041 209.166L199.225 215.398C199.815 215.791 200.209 216.382 200.34 217.103C200.471 217.825 200.34 218.481 199.881 219.071C199.093 220.186 197.585 220.514 196.404 219.793L186.236 213.692L188.073 215.398C188.86 216.119 189.188 217.169 188.86 218.153C188.598 219.137 187.811 219.924 186.761 220.186C186.695 220.121 186.499 220.186 186.302 220.186ZM179.414 215.004L185.515 218.678C185.843 218.874 186.236 218.94 186.564 218.874C187.089 218.743 187.548 218.35 187.679 217.825C187.811 217.3 187.679 216.71 187.22 216.382L181.579 211.199C181.251 210.937 181.251 210.478 181.448 210.15C181.71 209.822 182.169 209.756 182.497 209.953L197.06 218.743C197.65 219.071 198.372 218.94 198.765 218.35C198.962 218.087 199.028 217.694 198.962 217.366C198.897 217.038 198.7 216.71 198.437 216.513L185.515 207.788C185.187 207.526 185.055 207.067 185.252 206.673C185.449 206.28 185.908 206.148 186.302 206.28L198.765 211.331C199.421 211.593 200.209 211.331 200.471 210.675C200.799 210.019 200.537 209.231 199.881 208.903L180.857 198.867L163.736 197.949C161.375 197.817 159.144 198.67 157.373 200.31C155.667 201.95 154.684 204.18 154.684 206.542C154.684 208.838 155.602 211.003 157.242 212.643C158.882 214.282 161.047 215.135 163.342 215.135H163.408L179.414 215.004Z" fill="#231F20"/>
<path d="M149.238 205.036C148.845 205.036 148.583 204.708 148.583 204.38C148.779 200.378 151.141 196.836 154.749 195.13C155.077 194.999 155.47 195.13 155.602 195.458C155.733 195.786 155.602 196.18 155.274 196.311C152.059 197.82 150.026 200.903 149.829 204.445C149.894 204.773 149.632 205.036 149.238 205.036Z" fill="#231F20"/>
<path d="M121.556 184.371C121.162 184.371 120.9 184.043 120.9 183.715C121.097 179.123 118.407 177.352 118.342 177.286C118.014 177.09 117.948 176.696 118.145 176.368C118.342 176.04 118.735 175.974 119.063 176.171C119.194 176.237 122.409 178.402 122.212 183.715C122.212 184.109 121.95 184.371 121.556 184.371Z" fill="#231F20"/>
<path d="M199.028 190.601H198.962C198.634 190.536 198.372 190.208 198.372 189.88C200.208 175.12 212.869 174.727 213 174.727C213.328 174.727 213.656 174.989 213.656 175.383C213.656 175.776 213.394 176.039 213 176.039C212.541 176.039 201.323 176.432 199.684 190.011C199.684 190.339 199.356 190.601 199.028 190.601Z" fill="#231F20"/>
<path d="M208.998 195.848H208.933C208.605 195.783 208.342 195.455 208.342 195.127C209.785 183.319 219.953 183.057 220.019 183.057C220.412 183.057 220.675 183.319 220.675 183.713C220.675 184.106 220.412 184.369 220.019 184.369C219.625 184.369 210.901 184.697 209.589 195.258C209.589 195.651 209.326 195.848 208.998 195.848Z" fill="#0473EA"/>
<path d="M163.474 171.839H163.408C162.686 171.774 162.162 171.183 162.162 170.462C163.408 150.914 155.339 143.829 155.274 143.763C154.749 143.304 154.618 142.452 155.143 141.927C155.602 141.402 156.455 141.271 156.979 141.73C157.373 142.058 166.163 149.602 164.851 170.593C164.72 171.315 164.13 171.839 163.474 171.839Z" fill="#0473EA"/>
<path d="M170.23 171.84C169.574 171.84 168.984 171.315 168.918 170.659C166.294 147.962 171.542 142.321 172.132 141.796C172.657 141.271 173.51 141.337 173.969 141.862C174.428 142.386 174.428 143.173 173.903 143.698C173.772 143.829 169.049 149.143 171.476 170.397C171.542 171.118 171.017 171.774 170.296 171.84H170.23Z" fill="#0473EA"/>
<path d="M173.182 105.524C173.116 105.524 172.985 105.524 172.919 105.459L170.164 104.606C169.836 104.475 169.639 104.147 169.705 103.819C169.836 103.491 170.164 103.294 170.492 103.36L172.788 104.081L172.394 95.1599C172.394 94.7663 172.657 94.5039 173.05 94.5039C173.378 94.5039 173.706 94.7663 173.706 95.1599L174.1 104.54C174.1 104.868 173.969 105.196 173.706 105.393C173.641 105.459 173.378 105.524 173.182 105.524Z" fill="#231F20"/>
<path d="M168.787 110.835C168.131 110.835 167.541 110.704 166.95 110.507C164.851 109.655 163.999 107.555 163.933 107.49C163.802 107.162 163.933 106.768 164.327 106.637C164.655 106.506 165.048 106.637 165.179 107.031C165.179 107.031 165.901 108.736 167.475 109.327C168.525 109.72 169.771 109.655 171.149 108.999C171.477 108.867 171.87 108.999 172.002 109.327C172.133 109.655 172.002 110.048 171.674 110.179C170.69 110.639 169.706 110.835 168.787 110.835Z" fill="#231F20"/>
<path d="M181.578 89.7772C181.447 89.7772 181.382 89.7772 181.25 89.7116C178.561 88.1372 176.199 89.646 176.068 89.7116C175.74 89.9084 175.347 89.8428 175.15 89.5148C174.953 89.1868 175.019 88.7932 175.347 88.5964C175.478 88.5308 178.495 86.6285 181.906 88.5964C182.234 88.7932 182.3 89.1868 182.169 89.5148C182.038 89.7116 181.841 89.7772 181.578 89.7772Z" fill="#231F20"/>
<path d="M159.406 89.3872C159.209 89.3872 159.013 89.3216 158.882 89.1248C158.685 88.7968 158.75 88.4032 159.013 88.2064C159.144 88.1408 162.096 86.1073 165.507 87.944C165.835 88.1408 165.966 88.5344 165.769 88.8624C165.573 89.1904 165.179 89.3216 164.851 89.1248C162.096 87.6816 159.8 89.256 159.669 89.3216C159.669 89.3872 159.537 89.3872 159.406 89.3872Z" fill="#231F20"/>
<path d="M179.939 94.1709C179.939 94.958 179.414 95.6796 178.692 95.6796C178.036 95.6796 177.446 95.0236 177.446 94.1709C177.446 93.3837 177.971 92.6621 178.692 92.6621C179.414 92.6621 179.939 93.3181 179.939 94.1709Z" fill="#231F20"/>
<path d="M164.72 94.1709C164.72 94.958 164.195 95.6796 163.473 95.6796C162.817 95.6796 162.227 95.0236 162.227 94.1709C162.227 93.3837 162.752 92.6621 163.473 92.6621C164.195 92.6621 164.72 93.3181 164.72 94.1709Z" fill="#231F20"/>
<path fill-rule="evenodd" clip-rule="evenodd" d="M314.74 152.972H219.038C217.785 152.972 216.699 153.836 216.393 155.061L203.445 209.823H165.103C165.103 209.823 162.875 221.294 175.823 221.294H299.871C301.124 221.294 302.21 220.431 302.516 219.206L317.385 156.313C317.775 154.615 316.494 152.972 314.74 152.972Z" fill="#0083B3"/>
<path fill-rule="evenodd" clip-rule="evenodd" d="M226.445 152.752C226.906 152.752 227.28 153.126 227.28 153.587C227.28 154.048 226.906 154.422 226.445 154.422C225.598 154.422 224.844 154.991 224.628 155.778L224.611 155.845L208.656 221.493C208.547 221.941 208.096 222.217 207.647 222.108C207.215 222.003 206.944 221.579 207.023 221.147L207.033 221.099L222.986 155.458C223.353 153.881 224.805 152.752 226.445 152.752Z" fill="#FFBD00"/>
<path fill-rule="evenodd" clip-rule="evenodd" d="M226.445 152.752C226.906 152.752 227.28 153.126 227.28 153.587C227.28 154.048 226.906 154.422 226.445 154.422C225.598 154.422 224.844 154.991 224.628 155.778L224.611 155.845L208.656 221.493C208.547 221.941 208.096 222.217 207.647 222.108C207.215 222.003 206.944 221.579 207.023 221.147L207.033 221.099L222.986 155.458C223.353 153.881 224.805 152.752 226.445 152.752Z" fill="white" fill-opacity="0.85"/>
<path fill-rule="evenodd" clip-rule="evenodd" d="M264.787 194.874C268.493 194.874 271.497 191.87 271.497 188.165C271.497 184.459 268.493 181.455 264.787 181.455C261.081 181.455 258.076 184.459 258.076 188.165C258.076 191.87 261.081 194.874 264.787 194.874Z" fill="#FFBD00"/>
<path fill-rule="evenodd" clip-rule="evenodd" d="M264.787 194.874C268.493 194.874 271.497 191.87 271.497 188.165C271.497 184.459 268.493 181.455 264.787 181.455C261.081 181.455 258.076 184.459 258.076 188.165C258.076 191.87 261.081 194.874 264.787 194.874Z" fill="white" fill-opacity="0.85"/>
<path fill-rule="evenodd" clip-rule="evenodd" d="M265.953 197.414C269.597 197.414 272.551 194.46 272.551 190.816C272.551 187.173 269.597 184.219 265.953 184.219C262.309 184.219 259.355 187.173 259.355 190.816C259.355 194.46 262.309 197.414 265.953 197.414Z" fill="#FFBD00"/>
<path fill-rule="evenodd" clip-rule="evenodd" d="M265.953 197.414C269.597 197.414 272.551 194.46 272.551 190.816C272.551 187.173 269.597 184.219 265.953 184.219C262.309 184.219 259.355 187.173 259.355 190.816C259.355 194.46 262.309 197.414 265.953 197.414Z" fill="white" fill-opacity="0.85"/>
<path d="M164.72 107.486C164.72 107.486 163.605 112.078 167.147 112.997C170.689 113.849 170.755 109.848 170.755 109.848C170.755 109.848 166.491 112.013 164.72 107.486Z" fill="#231F20"/>
<path d="M312.279 104.613H251.307C249.262 104.613 248.112 102.823 248.879 100.842L255.781 82.1798C256.356 80.5821 258.018 79.4316 259.616 79.4316H320.588C322.633 79.4316 323.783 81.2212 323.016 83.2024L316.114 101.865C315.539 103.462 313.941 104.613 312.279 104.613Z" fill="#23E33E"/>
<path d="M312.279 104.613H251.307C249.262 104.613 248.112 102.823 248.879 100.842L255.781 82.1798C256.356 80.5821 258.018 79.4316 259.616 79.4316H320.588C322.633 79.4316 323.783 81.2212 323.016 83.2024L316.114 101.865C315.539 103.462 313.941 104.613 312.279 104.613Z" fill="white" fill-opacity="0.9"/>
<path d="M269.522 84.9892H269.075C268.499 84.9892 268.052 85.2448 267.86 85.7561L266.262 90.0382C266.007 90.7412 265.559 91.3164 264.92 91.636C265.304 91.9555 265.368 92.4668 265.112 93.2338L263.45 97.7076C263.259 98.155 263.642 98.4106 264.537 98.4106L263.578 100.903H262.428C260.383 100.903 259.744 99.9445 260.447 97.9632L261.98 93.7451C262.172 93.1699 262.108 92.9142 261.853 92.9142H260.894L261.853 90.4217H262.811C263.131 90.4217 263.386 90.166 263.578 89.5908L265.112 85.5005C265.815 83.5192 267.221 82.5605 269.266 82.5605H270.417L269.522 84.9892Z" fill="#0473EA"/>
<path d="M267.541 97.648C267.349 97.3284 267.285 96.881 267.477 96.3697C267.669 95.8584 267.988 95.4111 268.5 95.0915C268.947 94.7719 269.458 94.5802 269.97 94.5802C270.481 94.5802 270.864 94.7719 271.056 95.0915C271.248 95.4111 271.312 95.8584 271.12 96.3697C270.928 96.881 270.609 97.3284 270.097 97.648C269.65 97.9675 269.139 98.1593 268.627 98.1593C268.116 98.1593 267.733 97.9675 267.541 97.648Z" fill="#0473EA"/>
<path d="M273.421 97.648C273.229 97.3284 273.165 96.881 273.357 96.3697C273.549 95.8584 273.868 95.4111 274.379 95.0915C274.827 94.7719 275.338 94.5802 275.849 94.5802C276.361 94.5802 276.744 94.7719 276.936 95.0915C277.128 95.4111 277.192 95.8584 277 96.3697C276.808 96.881 276.489 97.3284 275.977 97.648C275.53 97.9675 275.019 98.1593 274.507 98.1593C273.996 98.1593 273.613 97.9675 273.421 97.648Z" fill="#0473EA"/>
<path d="M279.301 97.648C279.109 97.3284 279.045 96.881 279.237 96.3697C279.428 95.8584 279.748 95.4111 280.259 95.0915C280.707 94.7719 281.218 94.5802 281.729 94.5802C282.24 94.5802 282.624 94.7719 282.816 95.0915C283.007 95.4111 283.071 95.8584 282.88 96.3697C282.688 96.881 282.368 97.3284 281.857 97.648C281.41 97.9675 280.898 98.1593 280.387 98.1593C279.876 98.1593 279.492 97.9675 279.301 97.648Z" fill="#0473EA"/>
<path d="M285.181 97.648C284.989 97.3284 284.925 96.881 285.117 96.3697C285.308 95.8584 285.628 95.4111 286.139 95.0915C286.587 94.7719 287.098 94.5802 287.609 94.5802C288.12 94.5802 288.504 94.7719 288.696 95.0915C288.887 95.4111 288.951 95.8584 288.76 96.3697C288.568 96.881 288.248 97.3284 287.737 97.648C287.29 97.9675 286.778 98.1593 286.267 98.1593C285.756 98.1593 285.372 97.9675 285.181 97.648Z" fill="#0473EA"/>
<path d="M291.06 97.648C290.868 97.3284 290.805 96.881 290.996 96.3697C291.188 95.8584 291.508 95.4111 292.019 95.0915C292.466 94.7719 292.978 94.5802 293.489 94.5802C294 94.5802 294.384 94.7719 294.575 95.0915C294.767 95.4111 294.831 95.8584 294.639 96.3697C294.447 96.881 294.128 97.3284 293.617 97.648C293.169 97.9675 292.658 98.1593 292.147 98.1593C291.635 98.1593 291.316 97.9675 291.06 97.648Z" fill="#0473EA"/>
<path d="M296.94 97.648C296.748 97.3284 296.685 96.881 296.876 96.3697C297.068 95.8584 297.388 95.4111 297.899 95.0915C298.346 94.7719 298.858 94.5802 299.369 94.5802C299.88 94.5802 300.264 94.7719 300.455 95.0915C300.647 95.4111 300.711 95.8584 300.519 96.3697C300.327 96.881 300.008 97.3284 299.497 97.648C299.049 97.9675 298.538 98.1593 298.027 98.1593C297.515 98.1593 297.196 97.9675 296.94 97.648Z" fill="#0473EA"/>
<path d="M301.925 98.3495H302.373C302.948 98.3495 303.395 98.0939 303.587 97.5826L305.185 93.3005C305.44 92.5975 305.888 92.0223 306.527 91.7027C306.143 91.3832 306.08 90.8719 306.335 90.1049L307.997 85.6311C308.189 85.1837 307.805 84.9281 306.91 84.9281L307.869 82.4355H309.02C311.065 82.4355 311.704 83.3942 311.001 85.3755L309.467 89.5936C309.275 90.1688 309.339 90.4245 309.595 90.4245H310.553L309.595 92.917H308.572C308.253 92.917 307.997 93.1727 307.805 93.7479L306.271 97.8382C305.568 99.8195 304.162 100.778 302.117 100.778H300.967L301.925 98.3495Z" fill="#0473EA"/>
<path d="M297.387 115.599H244.468C243.957 115.599 243.638 115.087 243.765 114.64L244.852 111.636C244.98 111.317 245.235 111.125 245.555 111.125H298.474C298.985 111.125 299.304 111.636 299.177 112.084L298.09 115.087C297.962 115.407 297.707 115.599 297.387 115.599Z" fill="#81B9F4"/>
<path d="M271.631 123.974H248.239C247.728 123.974 247.409 123.463 247.536 123.015L248.623 120.011C248.751 119.692 249.006 119.5 249.326 119.5H272.718C273.229 119.5 273.548 120.011 273.421 120.459L272.334 123.463C272.206 123.782 271.951 123.974 271.631 123.974Z" fill="#81B9F4"/>
<path d="M253.288 132.341H238.397C237.885 132.341 237.566 131.83 237.694 131.383L238.78 128.379C238.908 128.059 239.164 127.867 239.483 127.867H254.375C254.886 127.867 255.205 128.379 255.078 128.826L253.991 131.83C253.863 132.149 253.608 132.341 253.288 132.341Z" fill="#23E33E"/>
<path d="M253.288 132.341H238.397C237.885 132.341 237.566 131.83 237.694 131.383L238.78 128.379C238.908 128.059 239.164 127.867 239.483 127.867H254.375C254.886 127.867 255.205 128.379 255.078 128.826L253.991 131.83C253.863 132.149 253.608 132.341 253.288 132.341Z" fill="white" fill-opacity="0.9"/>
<path d="M261.341 132.341H302.82C303.139 132.341 303.395 132.149 303.523 131.83L304.609 128.826C304.801 128.379 304.417 127.867 303.906 127.867H262.492C262.172 127.867 261.916 128.059 261.788 128.379L260.702 131.383C260.51 131.83 260.83 132.341 261.341 132.341Z" fill="#81B9F4"/>
<path d="M263.003 140.722H242.104C241.593 140.722 241.273 140.211 241.401 139.763L242.487 136.759C242.615 136.44 242.871 136.248 243.19 136.248H264.089C264.601 136.248 264.92 136.759 264.792 137.207L263.706 140.211C263.578 140.53 263.323 140.722 263.003 140.722Z" fill="#81B9F4"/>
<path d="M268.883 140.722H282.432C282.752 140.722 283.007 140.53 283.135 140.211L284.222 137.207C284.413 136.759 284.03 136.248 283.519 136.248H269.969C269.65 136.248 269.394 136.44 269.266 136.759L268.18 139.763C268.052 140.211 268.435 140.722 268.883 140.722Z" fill="#23E33E"/>
<path d="M268.883 140.722H282.432C282.752 140.722 283.007 140.53 283.135 140.211L284.222 137.207C284.413 136.759 284.03 136.248 283.519 136.248H269.969C269.65 136.248 269.394 136.44 269.266 136.759L268.18 139.763C268.052 140.211 268.435 140.722 268.883 140.722Z" fill="white" fill-opacity="0.9"/>
<path d="M253.736 149.089H232.326C231.814 149.089 231.495 148.578 231.623 148.13L232.709 145.127C232.837 144.807 233.093 144.615 233.412 144.615H254.822C255.334 144.615 255.653 145.127 255.525 145.574L254.439 148.578C254.311 148.897 253.992 149.089 253.736 149.089Z" fill="#23E33E"/>
<path d="M253.736 149.089H232.326C231.814 149.089 231.495 148.578 231.623 148.13L232.709 145.127C232.837 144.807 233.093 144.615 233.412 144.615H254.822C255.334 144.615 255.653 145.127 255.525 145.574L254.439 148.578C254.311 148.897 253.992 149.089 253.736 149.089Z" fill="white" fill-opacity="0.9"/>
<path d="M258.977 149.089H310.042C310.361 149.089 310.617 148.897 310.745 148.578L311.831 145.574C312.023 145.127 311.64 144.615 311.128 144.615H260.063C259.743 144.615 259.488 144.807 259.36 145.127L258.274 148.13C258.082 148.578 258.465 149.089 258.977 149.089Z" fill="#81B9F4"/>
<path d="M277.191 123.974H284.157C284.477 123.974 284.732 123.782 284.86 123.463L285.947 120.459C286.139 120.011 285.755 119.5 285.244 119.5H278.277C277.958 119.5 277.702 119.692 277.574 120.011L276.488 123.015C276.296 123.463 276.68 123.974 277.191 123.974Z" fill="#23E33E"/>
<path d="M277.191 123.974H284.157C284.477 123.974 284.732 123.782 284.86 123.463L285.947 120.459C286.139 120.011 285.755 119.5 285.244 119.5H278.277C277.958 119.5 277.702 119.692 277.574 120.011L276.488 123.015C276.296 123.463 276.68 123.974 277.191 123.974Z" fill="white" fill-opacity="0.9"/>
<path d="M303.331 115.599H315.985C316.305 115.599 316.561 115.407 316.688 115.087L317.775 112.084C317.967 111.636 317.583 111.125 317.072 111.125H304.417C304.098 111.125 303.842 111.317 303.714 111.636L302.628 114.64C302.5 115.087 302.884 115.599 303.331 115.599Z" fill="#81B9F4"/>
<path d="M324.613 222.141H316.624C311.831 222.141 307.932 218.243 307.932 213.45V195.043H333.305V213.45C333.305 218.243 329.407 222.141 324.613 222.141ZM309.21 196.321V213.45C309.21 217.54 312.534 220.863 316.624 220.863H324.613C328.704 220.863 332.027 217.54 332.027 213.45V196.321H309.21Z" fill="#231F20"/>
<path d="M316.625 221.506H324.614C329.024 221.506 332.667 217.927 332.667 213.453V195.686H308.572V213.453C308.572 217.863 312.151 221.506 316.625 221.506Z" fill="white"/>
<path d="M324.358 195.686V213.453C324.358 217.863 320.779 221.506 316.305 221.506H321.418C325.828 221.506 329.471 217.927 329.471 213.453V195.686H324.358Z" fill="#CDD5FE"/>
<path d="M324.613 222.141H316.624C311.831 222.141 307.932 218.243 307.932 213.45V195.043H333.305V213.45C333.305 218.243 329.407 222.141 324.613 222.141ZM309.21 196.321V213.45C309.21 217.54 312.534 220.863 316.624 220.863H324.613C328.704 220.863 332.027 217.54 332.027 213.45V196.321H309.21Z" fill="#231F20"/>
<path d="M317.008 179.45C317.647 176.319 319.948 173.698 322.696 172.164C325.445 170.567 328.64 169.928 331.836 169.672C331.197 172.037 332.475 174.465 333.242 176.766C334.137 179.45 334.392 182.39 333.434 185.075C332.858 186.608 331.9 187.951 330.685 188.973C329.407 189.996 327.937 190.251 326.403 190.763C325.636 191.018 324.869 191.53 324.039 191.594C322.824 191.657 321.802 190.699 321.163 189.676C320.587 188.845 320.204 187.887 319.565 187.12C318.99 186.353 318.287 185.841 317.775 185.011C316.944 183.349 316.625 181.304 317.008 179.45Z" fill="#0473EA" fill-opacity="0.7"/>
<path d="M301.03 182.581C301.35 180.088 302.181 177.659 302.692 175.231C303.203 172.674 303.395 170.054 303.139 167.434C306.015 170.821 311.256 170.821 314.963 173.25C317.136 174.656 318.734 176.893 319.565 179.321C320.459 182.069 320.523 184.881 319.437 187.566C319.373 187.694 319.309 187.821 319.309 187.949C318.989 188.716 318.606 189.547 318.286 190.314C318.095 190.697 317.903 191.145 317.52 191.273C317.328 191.337 317.136 191.337 316.944 191.337C315.602 191.273 314.324 191.912 312.982 192.103C311.767 192.295 310.425 192.295 309.211 192.295C306.846 192.231 304.354 191.592 302.756 189.803C301.094 187.821 300.711 185.073 301.03 182.581Z" fill="#0473EA" fill-opacity="0.7"/>
<path d="M323.4 196.322C323.017 196.322 322.761 196.002 322.761 195.619C323.144 187.949 324.103 180.024 328.321 173.569C328.513 173.25 328.896 173.186 329.216 173.377C329.535 173.569 329.599 173.953 329.408 174.272C325.317 180.472 324.423 188.269 324.039 195.683C324.039 196.002 323.72 196.322 323.4 196.322Z" fill="#231F20"/>
<path d="M318.415 196.323C318.095 196.323 317.839 196.131 317.775 195.812C316.114 188.398 312.215 181.368 306.783 176.063C306.527 175.807 306.527 175.424 306.783 175.168C307.038 174.913 307.422 174.913 307.677 175.168C313.302 180.665 317.328 187.887 318.99 195.556C319.054 195.876 318.862 196.259 318.478 196.323C318.478 196.323 318.478 196.323 318.415 196.323Z" fill="#231F20"/>
<path fill-rule="evenodd" clip-rule="evenodd" d="M9.29397 194.139C13.0032 194.139 16.0224 197.157 16.0224 200.866C16.0224 204.575 13.0032 207.594 9.29397 207.594C5.58471 207.594 2.56555 204.575 2.56555 200.866C2.56555 197.157 5.58471 194.139 9.29397 194.139ZM9.29409 192.412C4.63597 192.412 0.840454 196.207 0.840454 200.865C0.840454 205.522 4.63597 209.317 9.29409 209.317C13.9522 209.317 17.7477 205.522 17.7477 200.865C17.7477 196.207 13.9522 192.412 9.29409 192.412Z" fill="#FFBD00"/>
<path fill-rule="evenodd" clip-rule="evenodd" d="M9.29397 194.139C13.0032 194.139 16.0224 197.157 16.0224 200.866C16.0224 204.575 13.0032 207.594 9.29397 207.594C5.58471 207.594 2.56555 204.575 2.56555 200.866C2.56555 197.157 5.58471 194.139 9.29397 194.139ZM9.29409 192.412C4.63597 192.412 0.840454 196.207 0.840454 200.865C0.840454 205.522 4.63597 209.317 9.29409 209.317C13.9522 209.317 17.7477 205.522 17.7477 200.865C17.7477 196.207 13.9522 192.412 9.29409 192.412Z" fill="white" fill-opacity="0.85"/>
<path fill-rule="evenodd" clip-rule="evenodd" d="M30.5144 221.163H19.6454C14.8723 221.163 11.0193 217.31 11.0193 212.538V191.723H39.1406V212.538C39.1406 217.281 35.2876 221.163 30.5144 221.163Z" fill="#38BF07"/>
<path d="M218.393 135.286C218.393 135.989 217.817 136.564 217.114 136.564C216.411 136.564 215.836 135.989 215.836 135.286C215.836 134.583 216.411 134.008 217.114 134.008C217.817 134.008 218.393 134.583 218.393 135.286Z" fill="#0473EA"/>
<path d="M233.667 104.16C233.667 105.246 232.773 106.077 231.75 106.077C230.663 106.077 229.833 105.182 229.833 104.16C229.833 103.073 230.727 102.242 231.75 102.242C232.836 102.242 233.667 103.137 233.667 104.16Z" fill="#0473EA"/>
<path d="M203.373 100.071C204.926 100.071 206.185 98.8125 206.185 97.2594C206.185 95.7063 204.926 94.4473 203.373 94.4473C201.82 94.4473 200.561 95.7063 200.561 97.2594C200.561 98.8125 201.82 100.071 203.373 100.071Z" fill="#0473EA"/>
<path d="M352.351 222.142H40.335C39.9516 222.142 39.6959 221.886 39.6959 221.502C39.6959 221.119 39.9516 220.863 40.335 220.863H352.351C352.735 220.863 352.99 221.119 352.99 221.502C352.99 221.822 352.671 222.142 352.351 222.142Z" fill="#231F20"/>
<path d="M239.09 44.7717L237.358 35.2091C238.882 31.8137 239.714 28.0025 239.506 23.9834C238.951 10.8867 228.211 0.353968 215.114 0.00749526C200.77 -0.338977 189.129 11.3718 189.544 25.7158C189.891 38.5352 200.147 49.1373 213.035 49.8995C218.51 50.246 223.568 48.7908 227.795 46.0883L236.18 47.6128C237.843 48.0286 239.367 46.5041 239.09 44.7717Z" fill="#38BF07"/>
<path d="M207.63 29.5293C207.353 29.5293 207.076 29.46 206.868 29.2522L202.71 25.0945L206.868 20.9368C207.284 20.5211 207.908 20.5211 208.323 20.9368C208.739 21.3526 208.739 21.9762 208.323 22.392L205.621 25.0945L208.323 27.797C208.739 28.2128 208.739 28.8364 208.323 29.2522C208.185 29.3908 207.908 29.5293 207.63 29.5293Z" fill="white"/>
<path d="M220.034 29.5293C219.757 29.5293 219.48 29.46 219.272 29.2522C218.856 28.8364 218.856 28.2128 219.272 27.797L221.974 25.0945L219.272 22.392C218.856 21.9762 218.856 21.3526 219.272 20.9368C219.688 20.5211 220.311 20.5211 220.727 20.9368L224.885 25.0945L220.727 29.2522C220.519 29.3908 220.242 29.5293 220.034 29.5293Z" fill="white"/>
<path d="M216.362 32.2342C215.946 32.2342 215.53 31.957 215.392 31.6105L210.541 19.3454C210.333 18.7911 210.61 18.2367 211.095 18.0288C211.65 17.8209 212.204 18.0981 212.412 18.5832L217.262 30.8483C217.47 31.4027 217.193 31.957 216.708 32.1649C216.57 32.1649 216.431 32.2342 216.362 32.2342Z" fill="white"/>
</svg>
