<svg width="408" height="192" viewBox="0 0 408 192" fill="none" xmlns="http://www.w3.org/2000/svg">
<path fill-rule="evenodd" clip-rule="evenodd" d="M204.144 190.511H56.9243V113.271C56.9243 91.1778 74.8625 73.2559 96.9757 73.2559H204.144V190.511Z" fill="#38BF07"/>
<path fill-rule="evenodd" clip-rule="evenodd" d="M107.6 73.0254C108.077 73.0254 108.464 73.4118 108.464 73.8884C108.464 74.365 108.077 74.7514 107.6 74.7514C88.7235 74.7514 73.3868 89.8176 73.0819 108.503L73.0773 109.071V190.51C73.0773 190.987 72.6906 191.373 72.2135 191.373C71.7535 191.373 71.3775 191.014 71.3512 190.561L71.3497 190.51V109.071C71.3497 89.1685 87.5805 73.0254 107.6 73.0254Z" fill="#FFBD00"/>
<path fill-rule="evenodd" clip-rule="evenodd" d="M107.6 73.0254C108.077 73.0254 108.464 73.4118 108.464 73.8884C108.464 74.365 108.077 74.7514 107.6 74.7514C88.7235 74.7514 73.3868 89.8176 73.0819 108.503L73.0773 109.071V190.51C73.0773 190.987 72.6906 191.373 72.2135 191.373C71.7535 191.373 71.3775 191.014 71.3512 190.561L71.3497 190.51V109.071C71.3497 89.1685 87.5805 73.0254 107.6 73.0254Z" fill="white" fill-opacity="0.85"/>
<path fill-rule="evenodd" clip-rule="evenodd" d="M164.784 81.7422L128.13 97.2477C118.571 101.275 110.883 108.726 106.506 118.104C106.506 118.104 71.6952 164.246 83.6732 189.763C92.1672 189.763 282.145 189.763 282.145 189.763L253.582 112.494C251.826 107.776 248.284 103.922 243.706 101.764L208.405 85.9997L164.784 81.7422Z" fill="#0473EA"/>
<path fill-rule="evenodd" clip-rule="evenodd" d="M136.976 93.1925C137.406 93.0276 137.886 93.2281 138.073 93.6416L138.093 93.6884L145.427 112.751L159.9 114.892C160.717 115.013 160.908 116.091 160.208 116.492L160.162 116.517L149.245 122.01L149.967 123.132C150.634 124.173 151.364 125.318 152.141 126.548C154.705 130.604 157.269 134.754 159.663 138.762C160.107 139.505 160.541 140.238 160.966 140.958L161.282 141.497C163.839 145.855 165.961 149.676 167.542 152.813C167.757 153.238 167.585 153.757 167.159 153.972C166.733 154.186 166.214 154.015 165.999 153.589L165.783 153.162C164.318 150.288 162.408 146.847 160.135 142.957L159.792 142.37C159.27 141.48 158.732 140.572 158.179 139.646C155.964 135.938 153.602 132.105 151.228 128.338L150.681 127.47C149.905 126.243 149.178 125.101 148.512 124.063L147.879 123.079L147.273 122.143C147.002 121.726 147.139 121.172 147.562 120.926L147.609 120.901L156.95 116.2L144.675 114.385C144.386 114.342 144.14 114.156 144.018 113.894L143.995 113.841L136.48 94.3077C136.309 93.8628 136.531 93.3635 136.976 93.1925Z" fill="#0473EA"/>
<path fill-rule="evenodd" clip-rule="evenodd" d="M236.376 99.4936C236.455 99.0235 236.9 98.7064 237.371 98.7853C237.824 98.8613 238.136 99.2778 238.087 99.7289L238.08 99.7792L235.2 116.924C235.152 117.212 234.962 117.455 234.697 117.571L234.643 117.593L222.977 121.816L233.079 124.579C233.551 124.708 233.818 125.2 233.678 125.661L233.631 125.793L233.05 127.383L232.177 129.789C231.938 130.45 231.69 131.138 231.435 131.851C229.764 136.507 228.093 141.259 226.534 145.83L226.156 146.94C226.032 147.308 225.908 147.673 225.786 148.035L225.169 149.873C221.748 160.12 219.66 167.323 219.46 170.007C219.424 170.483 219.01 170.839 218.534 170.804C218.059 170.768 217.702 170.354 217.737 169.879C217.959 166.9 220.179 159.307 223.854 148.359L224.334 146.937C224.457 146.571 224.582 146.203 224.709 145.832L224.899 145.273C226.341 141.045 227.878 136.664 229.422 132.346L230.345 129.777C230.659 128.906 230.958 128.079 231.241 127.303L231.717 125.996L219.896 122.763C219.101 122.546 219.04 121.455 219.78 121.139L219.83 121.12L233.58 116.142L236.376 99.4936Z" fill="#0473EA"/>
<path fill-rule="evenodd" clip-rule="evenodd" d="M112.875 150.651C117.093 149.964 127.647 150.131 142.724 150.93L143.183 150.954C147.018 151.159 151.047 151.401 155.205 151.67L157.634 151.83C160.863 152.046 164.042 152.27 167.11 152.495L169.974 152.709C170.746 152.767 171.479 152.823 172.171 152.876L175.22 153.116C175.833 153.166 176.194 153.82 175.923 154.361L175.899 154.405L173.509 158.577C173.272 158.99 172.745 159.134 172.331 158.897C171.932 158.669 171.784 158.171 171.985 157.766L172.01 157.719L173.723 154.729L171.777 154.577C170.988 154.516 170.147 154.452 169.26 154.386L166.983 154.216C163.408 153.954 159.682 153.693 155.903 153.446L155.093 153.393C151.46 153.157 147.926 152.943 144.535 152.756L142.186 152.63C127.504 151.86 117.153 151.703 113.153 152.354C112.682 152.431 112.238 152.112 112.161 151.642C112.084 151.171 112.404 150.728 112.875 150.651Z" fill="#0473EA"/>
<path fill-rule="evenodd" clip-rule="evenodd" d="M140.862 135.527C140.995 135.069 141.474 134.806 141.932 134.939C142.374 135.067 142.635 135.517 142.534 135.959L142.521 136.008L138.116 151.168C137.983 151.626 137.504 151.889 137.045 151.757C136.604 151.628 136.343 151.179 136.444 150.736L136.457 150.687L140.862 135.527Z" fill="#0473EA"/>
<path fill-rule="evenodd" clip-rule="evenodd" d="M150.198 151.485C150.606 151.238 151.138 151.368 151.385 151.775C151.632 152.183 151.502 152.713 151.094 152.961C144.841 156.75 140.315 162.063 137.274 168.523C135.237 172.851 133.962 177.488 133.306 182.189C132.892 185.155 132.772 187.742 132.822 189.741L132.836 190.158L132.85 190.453C132.882 190.929 132.523 191.341 132.047 191.373C131.571 191.405 131.159 191.046 131.127 190.57L131.114 190.325C131.111 190.27 131.109 190.208 131.106 190.139L131.096 189.787C131.043 187.698 131.167 185.017 131.595 181.95C132.273 177.088 133.594 172.286 135.711 167.789C138.89 161.035 143.639 155.46 150.198 151.485Z" fill="#0473EA"/>
<path fill-rule="evenodd" clip-rule="evenodd" d="M162.307 82.5194L154.303 86.1728C154.303 86.1728 185.774 130.071 181.369 174.085C186.753 184.614 210.623 174.085 210.623 174.085L216.468 89.5674L206.879 85.2235L162.307 82.5194Z" fill="#FF6B00"/>
<path fill-rule="evenodd" clip-rule="evenodd" d="M162.307 82.5194L154.303 86.1728C154.303 86.1728 185.774 130.071 181.369 174.085C186.753 184.614 210.623 174.085 210.623 174.085L216.468 89.5674L206.879 85.2235L162.307 82.5194Z" fill="white" fill-opacity="0.85"/>
<path fill-rule="evenodd" clip-rule="evenodd" d="M211.89 155.3C205.987 156.249 200.43 156.335 195.765 156.076C189.949 155.76 184.882 154.839 181.11 153.976C181.254 155.271 181.398 156.594 181.484 157.889C185.227 158.694 190.007 159.471 195.42 159.787C197.061 159.874 198.702 159.931 200.315 159.931C204.202 159.931 207.974 159.644 211.63 159.097L211.89 155.3Z" fill="#968BB4"/>
<path fill-rule="evenodd" clip-rule="evenodd" d="M200.027 152.25C204.144 152.25 208.204 151.992 212.149 151.503L212.408 147.677C203.827 148.856 195.823 148.655 189.316 147.964C185.947 147.619 182.808 147.13 179.958 146.555C180.188 147.849 180.418 149.172 180.62 150.496C183.154 150.956 185.889 151.359 188.797 151.675C192.598 152.049 196.341 152.25 200.027 152.25Z" fill="#968BB4"/>
<path fill-rule="evenodd" clip-rule="evenodd" d="M186.062 136.803C182.981 136.515 180.102 136.113 177.424 135.652C177.798 136.947 178.144 138.27 178.461 139.622C180.706 139.967 183.067 140.284 185.572 140.514C189.2 140.859 192.8 141.032 196.312 141.032C201.783 141.032 207.11 140.6 212.264 139.766C212.494 139.737 212.696 139.68 212.926 139.651L213.185 135.767C203.108 137.608 193.606 137.522 186.062 136.803Z" fill="#968BB4"/>
<path fill-rule="evenodd" clip-rule="evenodd" d="M196.888 131.338C202.129 131.338 207.801 130.849 213.646 129.612L213.905 125.728C202.762 128.288 192.195 127.857 184.133 126.649C180.39 126.102 176.935 125.354 173.883 124.549C174.372 125.93 174.89 127.339 175.351 128.778C177.856 129.353 180.563 129.899 183.442 130.331C187.444 130.906 191.965 131.338 196.888 131.338Z" fill="#968BB4"/>
<path fill-rule="evenodd" clip-rule="evenodd" d="M214.653 114.882C202.503 117.874 190.496 117.385 181.34 116.09C177.021 115.486 173.076 114.652 169.563 113.789C170.168 115.17 170.773 116.608 171.377 118.047C174.285 118.708 177.453 119.283 180.793 119.773C185.831 120.492 190.755 120.837 195.535 120.837C199.22 120.837 202.819 120.636 206.303 120.204C209.068 119.859 211.745 119.399 214.394 118.794L214.653 114.882Z" fill="#968BB4"/>
<path fill-rule="evenodd" clip-rule="evenodd" d="M215.287 105.245C202.33 108.295 189.488 107.604 179.785 106.08C173.796 105.13 168.44 103.836 164.121 102.57C164.87 104.008 165.648 105.504 166.425 107.087C169.938 108.007 174.026 108.928 178.46 109.647C184.536 110.625 190.467 111.143 196.197 111.143C199.307 111.143 202.359 110.999 205.325 110.711C208.665 110.395 211.889 109.877 215.028 109.187L215.287 105.245Z" fill="#968BB4"/>
<path fill-rule="evenodd" clip-rule="evenodd" d="M215.776 98.3989L216.036 94.4578C192.627 101.304 168.844 95.292 157.873 91.6386C158.737 93.0194 159.687 94.6304 160.753 96.4427C164.956 97.6797 170.6 99.0893 177.05 100.039C181.743 100.758 187.185 101.276 193.03 101.276C200.171 101.276 207.945 100.528 215.776 98.3989Z" fill="#968BB4"/>
<path fill-rule="evenodd" clip-rule="evenodd" d="M172.644 60.7148L170.082 76.8532L162.048 83.3546C162.048 83.3546 173.22 100.068 188.394 103.866C193.548 105.16 201.639 103.75 204.288 99.1765C206.822 94.7751 207.657 88.5327 208.146 81.1107C208.377 77.371 172.644 60.7148 172.644 60.7148Z" fill="#FFBD00"/>
<path fill-rule="evenodd" clip-rule="evenodd" d="M172.644 60.7148L170.082 76.8532L162.048 83.3546C162.048 83.3546 173.22 100.068 188.394 103.866C193.548 105.16 201.639 103.75 204.288 99.1765C206.822 94.7751 207.657 88.5327 208.146 81.1107C208.377 77.371 172.644 60.7148 172.644 60.7148Z" fill="white" fill-opacity="0.85"/>
<path fill-rule="evenodd" clip-rule="evenodd" d="M171.791 60.578L169.28 76.389L161.505 82.6824C161.158 82.963 161.082 83.4614 161.33 83.8323L161.473 84.0411L161.629 84.2638C161.739 84.4191 161.861 84.5899 161.997 84.7753C162.535 85.5139 163.165 86.3356 163.882 87.2199C165.928 89.7443 168.261 92.2682 170.843 94.626C176.309 99.6183 182.132 103.187 188.184 104.701C194.314 106.241 202.382 104.189 205.036 99.6071C207.378 95.5387 208.414 90.1696 209.008 81.1659C209.134 79.1258 204.108 75.8035 194.248 70.5203L193.41 70.0731C192.564 69.623 191.691 69.1646 190.794 68.6986C187.132 66.7949 183.225 64.8432 179.304 62.9385L178.568 62.5819C177.207 61.9231 175.936 61.3146 174.785 60.7682L173.009 59.9312C172.489 59.6886 171.881 60.0114 171.791 60.578ZM170.935 76.9862L173.317 61.9824L174.292 62.4444C175.373 62.9582 176.555 63.5248 177.815 64.1347L179.281 64.8465C182.698 66.5124 186.093 68.2093 189.311 69.8732L189.997 70.2292C191.038 70.77 192.046 71.3004 193.018 71.8192L193.939 72.3132C197.796 74.3908 200.961 76.2223 203.272 77.7396L203.422 77.8381C204.75 78.7159 205.768 79.4748 206.445 80.0957C206.776 80.3994 207.017 80.6627 207.162 80.8742C207.211 80.9457 207.246 81.0063 207.267 81.0535L207.281 81.0857L207.282 81.0858L207.231 81.8333C206.646 90.1135 205.644 95.0885 203.539 98.744C201.336 102.548 194.064 104.398 188.605 103.026C182.869 101.591 177.281 98.1668 172.008 93.3515C169.495 91.056 167.22 88.5943 165.225 86.133C164.581 85.3385 164.009 84.5969 163.515 83.9247L163.218 83.5166L170.625 77.5216C170.791 77.3874 170.901 77.1967 170.935 76.9862Z" fill="#0473EA"/>
<path fill-rule="evenodd" clip-rule="evenodd" d="M217.648 26.9982C215.143 13.1324 197.954 14.9448 195.449 15.2612C172.328 18.1379 171.234 37.5557 171.406 42.9927L170.398 43.1078C170.398 43.1078 170.514 44.0283 170.715 45.553C167.721 46.2722 162.336 48.6311 164.093 56.0817C165.417 61.7201 169.65 62.2379 173.163 61.5763C173.623 64.079 174.113 66.2078 174.545 67.4735C176.33 72.5365 177.539 74.7804 184.45 79.2968C191.389 83.8133 205.785 85.4242 212.235 77.1393C218.195 69.4585 218.656 55.6502 218.714 53.6365C219.261 45.9557 219.289 36.1174 217.648 26.9982Z" fill="#FF6B00"/>
<path fill-rule="evenodd" clip-rule="evenodd" d="M217.648 26.9982C215.143 13.1324 197.954 14.9448 195.449 15.2612C172.328 18.1379 171.234 37.5557 171.406 42.9927L170.398 43.1078C170.398 43.1078 170.514 44.0283 170.715 45.553C167.721 46.2722 162.336 48.6311 164.093 56.0817C165.417 61.7201 169.65 62.2379 173.163 61.5763C173.623 64.079 174.113 66.2078 174.545 67.4735C176.33 72.5365 177.539 74.7804 184.45 79.2968C191.389 83.8133 205.785 85.4242 212.235 77.1393C218.195 69.4585 218.656 55.6502 218.714 53.6365C219.261 45.9557 219.289 36.1174 217.648 26.9982Z" fill="white" fill-opacity="0.85"/>
<path fill-rule="evenodd" clip-rule="evenodd" d="M199.623 14.1485C198.053 14.1467 196.7 14.2407 195.526 14.3819L195.342 14.4045C184.742 15.7234 177.794 20.5123 173.93 27.7609L173.806 27.9966C171.43 32.5609 170.51 37.5233 170.526 42.0826L170.527 42.2241L170.3 42.2501C169.84 42.3027 169.506 42.7076 169.536 43.1637L169.546 43.253L169.734 44.714L169.76 44.915L169.673 44.941C167.852 45.492 166.222 46.3829 164.99 47.7048C163.07 49.7661 162.39 52.6229 163.252 56.2793L163.291 56.4394C164.499 61.3182 167.846 63.1067 172.299 62.5816L172.469 62.5604L172.571 63.0786C172.968 65.0736 173.367 66.6973 173.727 67.7517L173.851 68.101C175.875 73.7328 177.621 75.8647 183.977 80.0188C187.712 82.4498 193.253 83.9497 198.537 83.8812C204.584 83.8029 209.744 81.7442 212.917 77.6689C215.652 74.1439 217.459 69.2161 218.537 63.4201C218.929 61.3128 219.201 59.2044 219.376 57.1511L219.395 56.925C219.486 55.808 219.536 54.8901 219.566 54.0109L219.576 53.6812L219.575 53.6975C220.237 44.4032 219.971 35.026 218.498 26.8452C217.324 20.3467 213.051 16.5595 206.76 14.9743C204.49 14.4023 202.076 14.1512 199.623 14.1485ZM199.621 15.8749C201.942 15.8775 204.218 16.1143 206.337 16.6483C212.022 18.0807 215.758 21.3912 216.798 27.1516C218.242 35.174 218.505 44.4133 217.852 53.5754L217.85 53.612L217.84 53.9521C217.809 54.8631 217.756 55.817 217.655 57.0053C217.485 59.0048 217.22 61.0576 216.839 63.1052C215.807 68.655 214.087 73.3445 211.553 76.6107C208.74 80.2238 204.077 82.0837 198.515 82.1558C193.564 82.2199 188.359 80.8111 184.921 78.5739L184.557 78.3346C178.695 74.4677 177.27 72.6038 175.36 67.1869L175.302 67.0129C174.913 65.8137 174.457 63.8345 174.012 61.4203C173.926 60.9501 173.473 60.6398 173.003 60.7283C168.809 61.5182 165.954 60.2278 164.934 55.8847C164.2 52.7728 164.739 50.5081 166.255 48.8812C167.405 47.6462 169.06 46.8383 170.917 46.3922C171.347 46.289 171.63 45.8781 171.572 45.4401L171.366 43.8659L171.505 43.8503C171.951 43.7993 172.284 43.4145 172.27 42.9655C172.123 38.3532 172.983 33.2094 175.455 28.5727C179.019 21.8867 185.386 17.4563 195.257 16.156L195.557 16.1175C196.708 15.9722 198.05 15.8731 199.621 15.8749Z" fill="black"/>
<path fill-rule="evenodd" clip-rule="evenodd" d="M227.927 49.1504C227.726 44.5476 224.817 40.8654 220.93 38.9668C220.585 39.4846 220.182 39.9449 219.807 40.2901C219.894 46.6476 219.404 58.1832 218.857 61.549C219.145 61.4627 219.433 61.3764 219.692 61.2901C219.462 63.3325 218.828 65.6915 217.302 67.3887C215.978 68.8558 214.164 69.6613 211.774 69.8915C211.256 69.4312 210.565 69.1435 209.816 69.1435C208.175 69.1435 206.879 70.4668 206.879 72.0778C206.879 73.6887 208.204 75.012 209.816 75.012C210.622 75.012 211.342 74.6956 211.861 74.1778C215.488 73.9188 218.368 72.5956 220.47 70.2654C223.723 66.6408 224.155 61.4915 224.098 58.5572C226.603 56.1983 228.1 52.8326 227.927 49.1504Z" fill="black"/>
<path fill-rule="evenodd" clip-rule="evenodd" d="M207.032 46.5128C207.486 46.4406 207.914 46.7363 208.011 47.1796L208.021 47.2295L210.151 60.6062C210.244 61.1867 209.743 61.6822 209.17 61.5954L209.121 61.5865L204.313 60.5796C203.846 60.4818 203.547 60.0244 203.644 59.5579C203.739 59.1081 204.168 58.8141 204.617 58.8813L204.667 58.8903L208.248 59.64L206.315 47.5007C206.242 47.0468 206.538 46.6193 206.982 46.5222L207.032 46.5128Z" fill="black"/>
<path fill-rule="evenodd" clip-rule="evenodd" d="M213.15 50.0074C213.913 49.974 214.489 48.9949 214.438 47.8203C214.386 46.6458 213.727 45.7207 212.964 45.7541C212.202 45.7874 211.625 46.7666 211.677 47.9411C211.728 49.1156 212.388 50.0407 213.15 50.0074Z" fill="black"/>
<path fill-rule="evenodd" clip-rule="evenodd" d="M199.647 49.9486C200.41 49.9153 200.986 48.9361 200.935 47.7616C200.883 46.5871 200.224 45.662 199.461 45.6953C198.698 45.7287 198.122 46.7078 198.173 47.8823C198.225 49.0569 198.885 49.982 199.647 49.9486Z" fill="black"/>
<path fill-rule="evenodd" clip-rule="evenodd" d="M191.426 38.4031C193.045 37.3986 194.978 37.0061 197.141 37.5867C197.602 37.7104 197.875 38.1838 197.751 38.6441C197.627 39.1044 197.154 39.3773 196.693 39.2536C195.027 38.8066 193.575 39.1015 192.337 39.8695C192.045 40.0502 191.791 40.2433 191.577 40.4344L191.503 40.5025C191.435 40.5658 191.387 40.6141 191.36 40.6431L191.349 40.656C191.035 41.0152 190.489 41.0523 190.13 40.739C189.77 40.4257 189.733 39.8805 190.047 39.5214L190.104 39.4581C190.18 39.377 190.288 39.2712 190.426 39.1477C190.712 38.8924 191.045 38.639 191.426 38.4031Z" fill="black"/>
<path fill-rule="evenodd" clip-rule="evenodd" d="M208.961 36.1434C209.767 35.9929 210.614 35.9668 211.434 36.1503C212.788 36.4536 213.833 37.2956 214.345 38.7356C214.504 39.1848 214.269 39.6782 213.82 39.8377C213.37 39.9972 212.876 39.7624 212.717 39.3133C212.414 38.4627 211.858 38.0141 211.056 37.8345C210.498 37.7097 209.874 37.7289 209.278 37.8401L209.167 37.8619C209.099 37.8761 209.041 37.8894 208.996 37.9007L208.917 37.9225C208.461 38.0616 207.978 37.8049 207.839 37.3491C207.699 36.8932 207.956 36.4109 208.412 36.2717L208.5 36.2465C208.614 36.2155 208.77 36.179 208.961 36.1434Z" fill="black"/>
<path fill-rule="evenodd" clip-rule="evenodd" d="M204.489 66.0354C200.314 70.6094 197.982 66.5245 195.995 63.5327C195.477 62.7848 196.168 61.7779 197.061 62.008C200.804 62.9861 205.9 64.482 204.489 66.0354Z" fill="black"/>
<path fill-rule="evenodd" clip-rule="evenodd" d="M222.255 22.3961C220.931 19.5194 219.289 18.714 217.821 18.714C217.763 18.1961 217.677 17.6783 217.562 17.1605C216.554 12.5866 213.646 8.70299 209.672 6.31532C209.672 6.31532 204.778 1.10847 189.402 2.20162C173.998 3.29477 173.594 12.1263 173.594 12.1263C166.598 16.8441 161.53 22.7701 161.156 27.8044C160.09 41.9866 166.079 45.4098 168.527 46.2153C168.786 46.1003 169.045 45.9852 169.304 45.8989C169.391 46.129 169.477 46.3304 169.535 46.4455C179.238 45.7838 179.756 32.1194 182.837 25.5605C183.154 24.8701 184.018 24.5824 184.68 24.9852C188.999 27.4304 194.873 28.2071 201.812 27.2578C209.327 26.2222 212.696 22.7126 214.193 19.9509C214.251 20.0085 214.279 20.066 214.337 20.0948C214.394 20.1811 214.481 20.2386 214.538 20.3249C214.567 20.3537 214.596 20.3824 214.625 20.44C214.682 20.4975 214.74 20.5838 214.798 20.6413C214.826 20.6989 214.884 20.7276 214.913 20.7852C214.97 20.8427 214.999 20.9003 215.057 20.9866C215.114 21.0441 215.143 21.1016 215.201 21.1592C215.258 21.2167 215.287 21.2742 215.345 21.3318C215.402 21.3893 215.431 21.4756 215.489 21.5331C215.517 21.5907 215.575 21.6482 215.604 21.7057C215.661 21.792 215.69 21.8496 215.748 21.9359C215.777 21.9934 215.805 22.0509 215.834 22.1085C215.892 22.1948 215.949 22.2811 215.978 22.3674C216.007 22.4249 216.036 22.4537 216.065 22.5112C216.122 22.5975 216.18 22.7126 216.208 22.7989C216.237 22.8564 216.266 22.8852 216.266 22.9427C216.324 23.0578 216.381 23.1729 216.439 23.2879C216.957 24.3811 217.331 25.5893 217.591 26.9701C218.397 31.4866 218.8 36.1756 218.944 40.6633C219.117 40.692 219.318 40.6345 219.491 40.4907C222.629 38.0742 225.422 29.214 222.255 22.3961Z" fill="black"/>
<path fill-rule="evenodd" clip-rule="evenodd" d="M182.872 40.1452C182.366 40.1252 181.952 40.541 181.974 41.0456C182.16 45.251 182.84 48.5016 184.24 50.9408C185.947 53.9151 188.682 55.5335 192.527 55.5924C199.442 55.5274 203.445 52.9731 205.012 48.737C205.564 47.2432 205.767 45.6499 205.71 44.0483C205.69 43.476 205.637 42.9371 205.562 42.4427L205.533 42.2565C205.498 42.049 205.464 41.8757 205.433 41.7407L205.416 41.6668C205.324 41.2923 204.996 41.0235 204.611 41.0082L182.872 40.1452ZM183.751 41.9082L203.854 42.7062L203.854 42.7021C203.92 43.1335 203.966 43.6068 203.984 44.11C204.033 45.5025 203.858 46.8773 203.391 48.1396C202.084 51.6728 198.737 53.8087 192.532 53.8673C186.792 53.7792 184.279 49.7986 183.755 41.969L183.751 41.9082Z" fill="black"/>
<path fill-rule="evenodd" clip-rule="evenodd" d="M182.478 40.2525C182.911 40.0539 183.424 40.2443 183.623 40.6776C183.814 41.0955 183.644 41.5866 183.243 41.7992L183.197 41.8216L177.352 44.497C176.918 44.6955 176.406 44.5052 176.207 44.0718C176.015 43.654 176.186 43.1628 176.587 42.9502L176.633 42.9278L182.478 40.2525Z" fill="black"/>
<path fill-rule="evenodd" clip-rule="evenodd" d="M207.814 46.0998C208.291 46.0908 208.684 46.4698 208.693 46.9463C208.702 47.4059 208.35 47.7883 207.897 47.8231L207.846 47.8255L204.794 47.883C204.317 47.892 203.923 47.513 203.914 47.0364C203.905 46.5769 204.258 46.1945 204.711 46.1597L204.761 46.1573L207.814 46.0998Z" fill="black"/>
<path fill-rule="evenodd" clip-rule="evenodd" d="M226.631 40.4908L207.282 41.1524C206.787 41.1693 206.407 41.5984 206.451 42.0917L206.469 42.2569C206.48 42.3579 206.497 42.4861 206.519 42.639C206.58 43.0564 206.664 43.5198 206.774 44.0179C207.089 45.4417 207.554 46.8667 208.203 48.2046C210.151 52.2241 213.324 54.6381 217.905 54.4994C221.757 54.3948 224.11 53.5423 225.456 51.7852C226.495 50.4296 226.815 49.0328 227.084 45.7785L227.228 43.9974C227.322 42.8945 227.389 42.317 227.515 41.4811C227.595 40.9476 227.171 40.4723 226.631 40.4908ZM208.302 42.8438L225.666 42.25L225.632 42.5426C225.569 43.1104 225.513 43.7574 225.433 44.7561L225.364 45.6189C225.122 48.5399 224.851 49.7351 224.084 50.7353C223.113 52.0027 221.24 52.6814 217.855 52.7733C214.035 52.889 211.434 50.9103 209.758 47.4515C209.174 46.2459 208.749 44.9458 208.461 43.6446L208.425 43.4753C208.389 43.3076 208.357 43.1448 208.328 42.9875L208.302 42.8438Z" fill="black"/>
<path fill-rule="evenodd" clip-rule="evenodd" d="M181.369 52.8898C181.196 48.7186 178.921 45.1227 175.639 43.0227L174.199 10.3145L173.163 10.372C170.398 10.4871 168.239 12.846 168.354 15.6076L169.477 41.1528C169.16 41.1528 168.844 41.1528 168.527 41.1528C161.732 41.4405 156.491 47.1939 156.779 53.9542C157.067 60.7145 162.826 65.9788 169.592 65.6912C176.387 65.4035 181.657 59.6501 181.369 52.8898Z" fill="black"/>
<path fill-rule="evenodd" clip-rule="evenodd" d="M166.541 46.1582C169.737 46.1582 172.386 49.0349 172.53 52.7171C172.674 56.4856 170.111 59.6787 166.8 59.8514C166.713 59.8514 166.627 59.8514 166.541 59.8514C163.344 59.8514 160.696 56.9746 160.552 53.2924C160.408 49.524 162.97 46.3308 166.281 46.1582C166.368 46.1582 166.454 46.1582 166.541 46.1582ZM166.54 44.4316C166.425 44.4316 166.31 44.4316 166.195 44.4316C161.962 44.633 158.651 48.6604 158.824 53.3495C158.996 57.9522 162.394 61.5481 166.54 61.5481C166.655 61.5481 166.771 61.5481 166.886 61.5481C171.118 61.3467 174.43 57.3193 174.257 52.6303C174.084 48.0275 170.687 44.4316 166.54 44.4316Z" fill="#FFBD00"/>
<path fill-rule="evenodd" clip-rule="evenodd" d="M166.541 46.1582C169.737 46.1582 172.386 49.0349 172.53 52.7171C172.674 56.4856 170.111 59.6787 166.8 59.8514C166.713 59.8514 166.627 59.8514 166.541 59.8514C163.344 59.8514 160.696 56.9746 160.552 53.2924C160.408 49.524 162.97 46.3308 166.281 46.1582C166.368 46.1582 166.454 46.1582 166.541 46.1582ZM166.54 44.4316C166.425 44.4316 166.31 44.4316 166.195 44.4316C161.962 44.633 158.651 48.6604 158.824 53.3495C158.996 57.9522 162.394 61.5481 166.54 61.5481C166.655 61.5481 166.771 61.5481 166.886 61.5481C171.118 61.3467 174.43 57.3193 174.257 52.6303C174.084 48.0275 170.687 44.4316 166.54 44.4316Z" fill="white" fill-opacity="0.85"/>
<path fill-rule="evenodd" clip-rule="evenodd" d="M225.768 160.421C225.768 160.421 198.328 159.011 172.817 158.033C168.7 164.362 160.781 178.055 160.781 189.763H162.308L204.778 178.745C205.267 178.918 232.419 178.745 232.419 178.745L225.768 160.421Z" fill="#FFBD00"/>
<path fill-rule="evenodd" clip-rule="evenodd" d="M225.768 160.421C225.768 160.421 198.328 159.011 172.817 158.033C168.7 164.362 160.781 178.055 160.781 189.763H162.308L204.778 178.745C205.267 178.918 232.419 178.745 232.419 178.745L225.768 160.421Z" fill="white" fill-opacity="0.85"/>
<path fill-rule="evenodd" clip-rule="evenodd" d="M172.85 157.171C172.546 157.159 172.259 157.308 172.093 157.563C169.278 161.889 166.613 166.642 164.464 171.534C161.56 178.145 159.918 184.312 159.918 189.763C159.918 190.24 160.304 190.626 160.782 190.626H162.308L162.362 190.625C162.417 190.621 162.471 190.612 162.525 190.599L204.885 179.609L205.172 179.625C206.703 179.694 210.82 179.698 218.598 179.674L223.224 179.657L232.425 179.608C233.021 179.605 233.435 179.012 233.231 178.451L226.58 160.127C226.468 159.818 226.192 159.602 225.87 159.564L225.627 159.549L219.401 159.238L215.394 159.042C208.661 158.716 201.671 158.39 194.67 158.079L190.732 157.906C186.905 157.74 183.172 157.582 179.556 157.436L176.434 157.31C175.223 157.262 174.028 157.216 172.85 157.171ZM173.275 158.914L175.641 159.006L177.826 159.093C181.955 159.259 186.243 159.438 190.657 159.63L194.593 159.803C201.155 160.095 207.706 160.4 214.045 160.705L224.028 161.197L225.151 161.253L231.19 177.89L225.357 177.921C223.016 177.932 220.738 177.941 218.592 177.948L213.596 177.958C212.313 177.96 211.147 177.959 210.113 177.957L207.653 177.947C207.275 177.945 206.932 177.942 206.627 177.939L205.621 177.923C205.452 177.919 205.309 177.915 205.194 177.911L204.974 177.901C204.987 177.903 204.996 177.907 205.065 177.932L205.004 177.913C204.859 177.873 204.706 177.872 204.56 177.91L162.197 188.9H161.66L161.663 188.799C161.845 183.855 163.403 178.245 166.046 172.228C168.085 167.586 170.605 163.059 173.275 158.914Z" fill="#0473EA"/>
<path fill-rule="evenodd" clip-rule="evenodd" d="M288.259 39.3184C278.354 39.3184 270.35 47.3444 270.35 57.2115C270.35 57.4704 270.35 57.7293 270.378 57.9595L270.35 57.9307V75.0184H286.704C287.222 75.0759 287.741 75.0759 288.259 75.0759C298.164 75.0759 306.168 67.0499 306.168 57.1827C306.168 47.3444 298.135 39.3184 288.259 39.3184Z" fill="#0473EA"/>
<path fill-rule="evenodd" clip-rule="evenodd" d="M279.448 58.7078C279.448 57.6146 280.197 56.8379 281.233 56.8379C282.27 56.8379 282.99 57.6146 282.99 58.7078C282.99 59.7721 282.299 60.5776 281.205 60.5776C280.168 60.5776 279.448 59.7721 279.448 58.7078Z" fill="#FFBD00"/>
<path fill-rule="evenodd" clip-rule="evenodd" d="M279.448 58.7078C279.448 57.6146 280.197 56.8379 281.233 56.8379C282.27 56.8379 282.99 57.6146 282.99 58.7078C282.99 59.7721 282.299 60.5776 281.205 60.5776C280.168 60.5776 279.448 59.7721 279.448 58.7078Z" fill="white" fill-opacity="0.85"/>
<path fill-rule="evenodd" clip-rule="evenodd" d="M285.581 58.7078C285.581 57.6146 286.33 56.8379 287.366 56.8379C288.403 56.8379 289.123 57.6146 289.123 58.7078C289.123 59.7721 288.432 60.5776 287.338 60.5776C286.272 60.5776 285.581 59.7721 285.581 58.7078Z" fill="#FFBD00"/>
<path fill-rule="evenodd" clip-rule="evenodd" d="M285.581 58.7078C285.581 57.6146 286.33 56.8379 287.366 56.8379C288.403 56.8379 289.123 57.6146 289.123 58.7078C289.123 59.7721 288.432 60.5776 287.338 60.5776C286.272 60.5776 285.581 59.7721 285.581 58.7078Z" fill="white" fill-opacity="0.85"/>
<path fill-rule="evenodd" clip-rule="evenodd" d="M291.685 58.7078C291.685 57.6146 292.434 56.8379 293.471 56.8379C294.507 56.8379 295.227 57.6146 295.227 58.7078C295.227 59.7721 294.536 60.5776 293.442 60.5776C292.405 60.5776 291.685 59.7721 291.685 58.7078Z" fill="#FFBD00"/>
<path fill-rule="evenodd" clip-rule="evenodd" d="M291.685 58.7078C291.685 57.6146 292.434 56.8379 293.471 56.8379C294.507 56.8379 295.227 57.6146 295.227 58.7078C295.227 59.7721 294.536 60.5776 293.442 60.5776C292.405 60.5776 291.685 59.7721 291.685 58.7078Z" fill="white" fill-opacity="0.85"/>
<path fill-rule="evenodd" clip-rule="evenodd" d="M315.497 57.8437C299.776 57.8437 286.992 45.0711 286.992 29.3642C286.992 13.6574 299.776 0.884766 315.497 0.884766C323.041 0.884766 330.153 3.81901 335.537 9.11216C340.807 14.319 343.801 21.2519 344.003 28.645C344.031 28.7601 344.06 28.8464 344.06 28.9615V56.9807C344.06 57.4697 343.686 57.8437 343.196 57.8437H315.497Z" fill="#38BF07"/>
<path fill-rule="evenodd" clip-rule="evenodd" d="M315.497 1.74805C330.643 1.74805 342.966 13.9165 343.139 29.0193L343.196 28.9617V56.9809H315.497C300.237 56.9809 287.856 44.6111 287.856 29.3645C287.856 14.0891 300.237 1.74805 315.497 1.74805ZM315.497 0.0214844C299.316 0.0214844 286.128 13.1968 286.128 29.364C286.128 45.5311 299.316 58.7064 315.497 58.7064H343.196C344.147 58.7064 344.924 57.9297 344.924 56.9804V28.9612C344.924 28.7886 344.895 28.6448 344.866 28.4722C344.636 20.9064 341.555 13.8297 336.171 8.47902C330.614 3.01327 323.272 0.0214844 315.497 0.0214844Z" fill="#FFBD00"/>
<path fill-rule="evenodd" clip-rule="evenodd" d="M315.497 1.74805C330.643 1.74805 342.966 13.9165 343.139 29.0193L343.196 28.9617V56.9809H315.497C300.237 56.9809 287.856 44.6111 287.856 29.3645C287.856 14.0891 300.237 1.74805 315.497 1.74805ZM315.497 0.0214844C299.316 0.0214844 286.128 13.1968 286.128 29.364C286.128 45.5311 299.316 58.7064 315.497 58.7064H343.196C344.147 58.7064 344.924 57.9297 344.924 56.9804V28.9612C344.924 28.7886 344.895 28.6448 344.866 28.4722C344.636 20.9064 341.555 13.8297 336.171 8.47902C330.614 3.01327 323.272 0.0214844 315.497 0.0214844Z" fill="white" fill-opacity="0.85"/>
<path fill-rule="evenodd" clip-rule="evenodd" d="M314.576 37.6211C313.655 37.6211 312.906 36.8731 312.906 35.9526C312.935 34.5142 312.964 33.5649 312.992 33.1046C313.05 32.5005 313.223 31.9252 313.482 31.3211C313.77 30.717 314.087 30.2567 314.432 29.9403C314.778 29.5951 315.613 29.0772 316.908 28.3581C318.319 27.5814 319.298 26.9485 319.816 26.517C320.363 26.0855 320.824 25.4526 321.198 24.6759C321.602 23.8992 321.803 23.0362 321.803 22.1156C321.803 20.3608 321.17 18.98 319.874 17.9731C318.607 16.9663 317.081 16.4772 315.353 16.4772C311.898 16.4772 309.652 18.232 308.558 21.7416C308.27 22.6334 307.378 23.18 306.485 22.9786C305.477 22.7485 304.873 21.7129 305.161 20.706C306.658 15.7293 310.142 13.2266 315.555 13.2266C318.665 13.2266 321.141 14.0608 323.07 15.7581C324.97 17.4553 325.921 19.6129 325.921 22.2594C325.921 25.7115 323.934 28.4731 319.96 30.5156C318.233 31.4362 317.167 32.1553 316.764 32.6731C316.39 33.1909 316.188 33.9964 316.188 35.0896V35.9814C316.246 36.8731 315.497 37.6211 314.576 37.6211ZM317.052 43.2316C317.052 44.4973 316.016 45.5042 314.777 45.5042H314.662C313.395 45.5042 312.388 44.4686 312.388 43.2316C312.388 41.9658 313.424 40.959 314.662 40.959H314.777C316.016 40.959 317.052 41.9658 317.052 43.2316Z" fill="#FFBD00"/>
<path fill-rule="evenodd" clip-rule="evenodd" d="M314.576 37.6211C313.655 37.6211 312.906 36.8731 312.906 35.9526C312.935 34.5142 312.964 33.5649 312.992 33.1046C313.05 32.5005 313.223 31.9252 313.482 31.3211C313.77 30.717 314.087 30.2567 314.432 29.9403C314.778 29.5951 315.613 29.0772 316.908 28.3581C318.319 27.5814 319.298 26.9485 319.816 26.517C320.363 26.0855 320.824 25.4526 321.198 24.6759C321.602 23.8992 321.803 23.0362 321.803 22.1156C321.803 20.3608 321.17 18.98 319.874 17.9731C318.607 16.9663 317.081 16.4772 315.353 16.4772C311.898 16.4772 309.652 18.232 308.558 21.7416C308.27 22.6334 307.378 23.18 306.485 22.9786C305.477 22.7485 304.873 21.7129 305.161 20.706C306.658 15.7293 310.142 13.2266 315.555 13.2266C318.665 13.2266 321.141 14.0608 323.07 15.7581C324.97 17.4553 325.921 19.6129 325.921 22.2594C325.921 25.7115 323.934 28.4731 319.96 30.5156C318.233 31.4362 317.167 32.1553 316.764 32.6731C316.39 33.1909 316.188 33.9964 316.188 35.0896V35.9814C316.246 36.8731 315.497 37.6211 314.576 37.6211ZM317.052 43.2316C317.052 44.4973 316.016 45.5042 314.777 45.5042H314.662C313.395 45.5042 312.388 44.4686 312.388 43.2316C312.388 41.9658 313.424 40.959 314.662 40.959H314.777C316.016 40.959 317.052 41.9658 317.052 43.2316Z" fill="white" fill-opacity="0.85"/>
<path fill-rule="evenodd" clip-rule="evenodd" d="M328.502 119.17H229.54C228.244 119.17 227.121 120.062 226.804 121.327L213.415 177.912H173.767C173.767 177.912 171.464 189.764 184.853 189.764H313.126C314.422 189.764 315.545 188.873 315.862 187.607L331.237 122.622C331.64 120.867 330.316 119.17 328.502 119.17Z" fill="#0083B3"/>
<path fill-rule="evenodd" clip-rule="evenodd" d="M237.199 118.939C237.676 118.939 238.062 119.326 238.062 119.802C238.062 120.279 237.676 120.665 237.199 120.665C236.323 120.665 235.544 121.253 235.32 122.067L235.303 122.135L218.804 189.968C218.692 190.431 218.224 190.715 217.761 190.603C217.314 190.494 217.033 190.056 217.115 189.61L217.125 189.56L233.622 121.736C234.001 120.106 235.503 118.939 237.199 118.939Z" fill="#FFBD00"/>
<path fill-rule="evenodd" clip-rule="evenodd" d="M237.199 118.939C237.676 118.939 238.062 119.326 238.062 119.802C238.062 120.279 237.676 120.665 237.199 120.665C236.323 120.665 235.544 121.253 235.32 122.067L235.303 122.135L218.804 189.968C218.692 190.431 218.224 190.715 217.761 190.603C217.314 190.494 217.033 190.056 217.115 189.61L217.125 189.56L233.622 121.736C234.001 120.106 235.503 118.939 237.199 118.939Z" fill="white" fill-opacity="0.85"/>
<path fill-rule="evenodd" clip-rule="evenodd" d="M276.847 162.463C280.679 162.463 283.786 159.359 283.786 155.531C283.786 151.702 280.679 148.598 276.847 148.598C273.014 148.598 269.908 151.702 269.908 155.531C269.908 159.359 273.014 162.463 276.847 162.463Z" fill="#FFBD00"/>
<path fill-rule="evenodd" clip-rule="evenodd" d="M276.847 162.463C280.679 162.463 283.786 159.359 283.786 155.531C283.786 151.702 280.679 148.598 276.847 148.598C273.014 148.598 269.908 151.702 269.908 155.531C269.908 159.359 273.014 162.463 276.847 162.463Z" fill="white" fill-opacity="0.85"/>
<path fill-rule="evenodd" clip-rule="evenodd" d="M303.855 163.557C307.569 163.557 310.592 166.577 310.592 170.288C310.592 173.999 307.569 177.02 303.855 177.02C300.14 177.02 297.117 173.999 297.117 170.288C297.117 166.577 300.14 163.557 303.855 163.557ZM303.855 161.83C299.19 161.83 295.39 165.627 295.39 170.288C295.39 174.948 299.19 178.745 303.855 178.745C308.519 178.745 312.32 174.948 312.32 170.288C312.32 165.627 308.519 161.83 303.855 161.83Z" fill="#FFBD00"/>
<path fill-rule="evenodd" clip-rule="evenodd" d="M303.855 163.557C307.569 163.557 310.592 166.577 310.592 170.288C310.592 173.999 307.569 177.02 303.855 177.02C300.14 177.02 297.117 173.999 297.117 170.288C297.117 166.577 300.14 163.557 303.855 163.557ZM303.855 161.83C299.19 161.83 295.39 165.627 295.39 170.288C295.39 174.948 299.19 178.745 303.855 178.745C308.519 178.745 312.32 174.948 312.32 170.288C312.32 165.627 308.519 161.83 303.855 161.83Z" fill="white" fill-opacity="0.85"/>
<path fill-rule="evenodd" clip-rule="evenodd" d="M325.104 190.598H314.22C309.441 190.598 305.583 186.743 305.583 181.968V161.141H333.742V181.968C333.742 186.715 329.884 190.598 325.104 190.598Z" fill="#38BF07"/>
</svg>
