<svg width="160" height="160" viewBox="0 0 160 160" fill="none" xmlns="http://www.w3.org/2000/svg">
<mask id="mask0_518_139755" style="mask-type:alpha" maskUnits="userSpaceOnUse" x="0" y="0" width="160" height="160">
<circle cx="80" cy="80" r="80" fill="#D9D9D9"/>
</mask>
<g mask="url(#mask0_518_139755)">
<path d="M1.6001 80.8759C1.6001 124.217 36.7344 159.352 80.0758 159.352C123.417 159.352 158.552 124.217 158.552 80.8759C158.552 37.535 123.417 2.39995 80.0758 2.39995C36.7344 2.39995 1.6001 37.535 1.6001 80.8759Z" fill="#38D200"/>
<path d="M1.6001 80.8759C1.6001 124.217 36.7344 159.352 80.0758 159.352C123.417 159.352 158.552 124.217 158.552 80.8759C158.552 37.535 123.417 2.39995 80.0758 2.39995C36.7344 2.39995 1.6001 37.535 1.6001 80.8759Z" fill="#38D200"/>
<path d="M42.3775 66.185C42.3775 66.185 45.8092 125.251 36.4492 135.152L82.1773 139.162L81.7482 62.4921L42.3775 66.185Z" fill="#1D2939"/>
<path d="M118.851 67.1178C118.851 67.1178 115.514 128.948 124.873 138.847L79.1467 142.857L79.5749 66.1865L118.851 67.1178Z" fill="#1D2939"/>
<path d="M80.0755 126.001C80.0755 126.001 121.211 115.119 118.819 62.4921C116.979 22.027 90.1485 15.9093 80.2522 16.0764C52.082 16.5478 22.5178 46.2496 59.3137 131.469L80.0755 126.001Z" fill="#1D2939"/>
<path d="M127.784 130.299C121.444 128.101 90.0796 122.058 90.0796 93.612L80.0753 98.3713L70.0699 93.612C70.0699 122.058 38.706 128.101 32.3651 130.299C23.932 133.223 23.0723 162.4 23.0723 162.4H80.0173H80.1324H137.078C137.078 162.4 136.218 133.223 127.784 130.299Z" fill="#0473EA"/>
<path d="M56.3781 119.932C62.8897 123.731 71.1212 126.002 80.0753 126.002C89.0278 126.002 97.259 123.731 103.771 119.932C96.3064 114.511 90.0794 106.287 90.0794 93.6128L80.0753 98.3721L70.0701 93.6128C70.0701 106.287 63.8429 114.511 56.3781 119.932Z" fill="#BF694F"/>
<path d="M89.3163 93.9745L80.0752 98.3703L70.8323 93.9745C70.5577 94.9946 70.2526 95.9759 69.9212 96.922C69.3812 102.861 67.4003 107.728 64.5977 111.725C69.0674 114.866 74.3748 116.695 80.0752 116.695C85.7741 116.695 91.0828 114.866 95.5525 111.725C92.7503 107.728 90.7674 102.861 90.2291 96.922C89.898 95.9759 89.5928 94.9946 89.3163 93.9745Z" fill="#A9523F"/>
<path d="M54.4815 62.877C54.4815 62.877 52.9999 58.2657 50.1256 59.8102C47.2498 61.3556 48.7783 79.2524 52.9605 81.3231C57.1427 83.3939 58.1644 77.8032 58.1644 77.8032L54.4815 62.877Z" fill="#BF694F"/>
<path d="M106.565 62.877C106.565 62.877 108.046 58.2657 110.923 59.8102C113.797 61.3556 112.268 79.2524 108.086 81.3231C103.904 83.3939 102.882 77.8032 102.882 77.8032L106.565 62.877Z" fill="#BF694F"/>
<path d="M107.997 61.9321C107.669 39.0699 97.4411 28.6968 80.4211 28.7023C63.4006 28.6968 53.1737 39.0699 52.8452 61.9321C52.5168 84.7954 66.6309 99.6827 75.9337 104.379C77.6604 105.25 80.4211 105.531 80.4211 105.531C80.4211 105.531 83.1799 105.25 84.9066 104.379C94.2115 99.6827 108.326 84.7954 107.997 61.9321Z" fill="#D47C5B"/>
<path d="M89.8304 86.3901L80.421 88.6939L71.0115 86.3901C71.0115 86.3901 72.6012 93.6113 80.421 93.6113C88.2397 93.6113 89.8304 86.3901 89.8304 86.3901Z" fill="#B96147"/>
<path d="M80.4212 86.883L71.1433 86.5316C71.1433 86.5316 74.8323 90.3771 80.4212 90.4668C86.011 90.3771 89.6984 86.5316 89.6984 86.5316L80.4212 86.883Z" fill="#FEF5F6"/>
<path d="M86.8618 57.4913C86.8618 57.4913 87.4445 59.2393 89.7751 58.8518C92.1048 58.4634 98.3207 56.2446 102.011 58.9082C102.011 58.9082 98.1246 52.4426 86.8618 57.4913Z" fill="#1D2939"/>
<path d="M99.1974 64.8609V64.86C98.4122 63.4819 96.261 62.4924 93.7195 62.4924C91.178 62.4924 89.0249 63.4819 88.2397 64.86V64.8609C89.0249 66.238 91.178 67.2285 93.7195 67.2285C96.261 67.2285 98.4122 66.238 99.1974 64.8609Z" fill="#FEF5F6"/>
<path d="M98.3964 62.4918C96.5033 61.6899 90.9005 59.6553 88.2397 64.8585C89.0249 63.4814 91.178 62.4918 93.7195 62.4918C96.261 62.4918 98.4122 63.4813 99.1974 64.8594C99.1974 64.8594 101.017 64.6753 101.529 62.4918C101.529 62.4918 100.29 63.2918 98.3964 62.4918Z" fill="#1D2939"/>
<path d="M91.8089 62.6893C91.1957 63.2137 90.8054 63.9915 90.8054 64.86C90.8054 65.7293 91.1957 66.5081 91.8089 67.0315C92.4073 67.1591 93.0491 67.2285 93.7196 67.2285C94.3356 67.2285 94.9284 67.1693 95.4842 67.0611C96.1178 66.5367 96.521 65.746 96.521 64.86C96.521 63.974 96.1178 63.1823 95.4842 62.6588C94.9284 62.5506 94.3356 62.4924 93.7196 62.4924C93.0491 62.4924 92.4073 62.5617 91.8089 62.6893Z" fill="#1D2939"/>
<path d="M74.1661 57.4925C74.1661 57.4925 73.5838 59.2404 71.2524 58.8529C68.9213 58.4645 62.7071 56.2458 59.017 58.9093C58.7162 59.4097 61.7847 51.9434 74.1661 57.4925Z" fill="#1D2939"/>
<path d="M61.6433 64.8609V64.86C62.4287 63.4819 64.5817 62.4924 67.1232 62.4924C69.6646 62.4924 71.8161 63.4819 72.6016 64.86H72.6031L72.6016 64.8609H72.6031H72.6016C71.8161 66.238 69.6646 67.2285 67.1232 67.2285C64.5817 67.2285 62.4287 66.238 61.6433 64.8609Z" fill="#FEF5F6"/>
<path d="M62.4444 62.4918C64.3379 61.6899 69.9403 59.6553 72.6013 64.8585C71.8158 63.4814 69.6644 62.4918 67.123 62.4918C64.5815 62.4918 62.4284 63.4813 61.6431 64.8594C61.6431 64.8594 59.8229 64.6753 59.3134 62.4918C59.3134 62.4918 60.5514 63.2918 62.4444 62.4918Z" fill="#1D2939"/>
<path d="M69.0336 62.6893C69.6466 63.2137 70.0367 63.9915 70.0367 64.86C70.0367 65.7293 69.6466 66.5081 69.0336 67.0315C68.4353 67.1591 67.793 67.2285 67.1229 67.2285C66.5068 67.2285 65.9142 67.1693 65.3566 67.0611C64.7247 66.5367 64.3215 65.746 64.3215 64.86C64.3215 63.974 64.7247 63.1823 65.3566 62.6588C65.9142 62.5506 66.5068 62.4924 67.1229 62.4924C67.793 62.4924 68.4353 62.5617 69.0336 62.6893Z" fill="#1D2939"/>
<path d="M80.9353 81.1699C80.9353 81.1699 83.0227 77.9681 85.0823 80.0157C85.0823 80.0157 85.1101 80.9332 83.2447 80.7704C83.2447 80.7704 82.4299 80.4088 80.9353 81.1699Z" fill="#A55941"/>
<path d="M79.9725 81.1426C79.9725 81.1426 77.7167 77.8168 75.7598 79.7507C75.7598 79.7507 75.781 80.6663 77.64 80.6099C77.64 80.6099 78.4363 80.2954 79.9725 81.1426Z" fill="#A55941"/>
<path d="M81.3803 84.9772C81.3803 84.9772 80.9919 85.1473 80.4212 85.1714C79.8506 85.1473 79.4612 84.9772 79.4612 84.9772C77.089 84.622 70.647 86.4643 70.647 86.4643C74.2568 87.5187 77.5644 87.921 80.4212 87.9746C83.2781 87.921 86.5854 87.5187 90.196 86.4643C90.196 86.4643 83.7535 84.622 81.3803 84.9772Z" fill="#A04E38"/>
<path d="M80.4215 28.7008C80.4215 28.7008 79.1545 34.6839 74.1666 37.0765C69.1772 39.4692 60.4013 45.7617 52.8398 64.7461C52.8398 64.7461 50.4442 55.5518 50.4442 52.0951C50.4442 48.6394 50.6648 16.3303 80.4215 28.7008Z" fill="#1D2939"/>
<path d="M80.4211 28.7018C80.4211 28.7018 80.994 33.5242 84.1931 35.8812C99.7443 47.3353 108.111 61.2062 108 66.1855C108 66.1855 111.056 52.6754 109.461 45.8727C107.866 39.0699 92.6687 26.699 80.4211 28.7018Z" fill="#1D2939"/>
</g>
</svg>
