<svg width="303" height="188" viewBox="0 0 303 188" fill="none" xmlns="http://www.w3.org/2000/svg">
<path d="M68.3508 121.127C68.3508 121.127 92.9473 98.7552 80.4018 73.5408C80.4018 73.5408 78.795 83.3052 72.0588 89.1762C72.0588 89.1762 59.3898 106.851 68.3508 121.127Z" fill="#75E796"/>
<path d="M31.4563 129.838C31.4563 129.838 37.0183 148.254 61.3675 138.49C61.3675 138.49 61.9855 131.506 49.1311 130.765C47.0917 130.641 45.1141 131.074 43.1983 131.754C40.7881 132.619 36.4003 133.299 31.4563 129.838Z" fill="#75E796"/>
<path d="M32.8156 89.4862C32.8156 89.4862 70.8226 100.425 65.0752 131.016C65.0752 131.016 58.339 131.263 50.1196 124.094C44.743 119.336 41.1586 112.908 39.49 105.987C38.563 101.97 36.6472 96.2842 32.8156 89.4862Z" fill="#75E796"/>
<path d="M78.6713 111.733C78.6713 111.733 85.5929 101.845 99.9305 110.806C99.9305 110.806 83.8007 112.104 87.3233 119.767C87.3233 119.767 89.3627 130.706 82.2557 136.577C82.3175 136.639 68.227 121.992 78.6713 111.733Z" fill="#75E796"/>
<path d="M89.1776 156.232C88.9304 156.232 88.745 156.108 88.6214 155.861C85.7168 149.928 80.6492 145.911 75.2726 141.709C71.3792 138.619 67.3622 135.467 64.2104 131.45C62.4799 129.225 61.0585 126.815 59.6371 124.466L59.1427 123.663C53.5807 114.331 47.4625 105.308 40.8499 96.7182C40.6645 96.471 40.6645 96.0384 40.9735 95.853C41.2207 95.6676 41.6533 95.6676 41.8387 95.9766C48.4513 104.629 54.6313 113.713 60.1933 123.045L60.6877 123.848C62.0473 126.197 63.4688 128.607 65.1374 130.708C68.1656 134.602 72.1208 137.692 76.0142 140.72C81.2672 144.86 86.6438 149.063 89.672 155.305C89.7956 155.614 89.672 155.984 89.363 156.108C89.363 156.232 89.2394 156.232 89.1776 156.232Z" fill="#585858"/>
<path d="M83.7389 157.837C83.4917 157.837 83.2445 157.713 83.1827 157.466C80.4635 150.235 73.3565 141.336 65.6933 139.173C62.4797 138.246 58.9571 138.246 55.5581 138.246C51.1085 138.246 46.5353 138.246 42.4565 136.207C42.1475 136.083 42.0239 135.712 42.1475 135.403C42.2711 135.094 42.6419 134.971 42.9509 135.094C46.7825 136.948 50.9849 136.948 55.4963 136.948C58.9571 136.948 62.6033 136.948 66.0023 137.937C74.0981 140.224 81.4523 149.432 84.2951 156.971C84.4187 157.28 84.2333 157.651 83.9243 157.775C83.8625 157.775 83.8007 157.837 83.7389 157.837Z" fill="#585858"/>
<path d="M82.3178 148.628C82.0088 148.628 81.6998 148.381 81.6998 148.01C81.5144 143.56 79.0424 139.482 76.9412 136.392C76.385 135.588 75.8288 134.785 75.2726 134.043C73.295 131.262 71.2556 128.419 69.9578 125.206C67.8566 120.138 67.7948 114.267 69.7106 109.076C70.9466 105.739 72.9242 102.772 74.84 99.9295C75.5198 98.8789 76.2614 97.7665 76.9412 96.7159C80.093 91.6483 81.329 87.5695 80.8346 83.7379C80.7728 83.4289 81.02 83.0581 81.3908 83.0581C81.6998 82.9963 82.0706 83.2435 82.0706 83.6143C82.6268 87.6931 81.329 92.0809 78.0536 97.3957C77.3738 98.5081 76.6322 99.5588 75.8906 100.671C73.9748 103.452 72.059 106.357 70.8848 109.57C69.0926 114.453 69.1544 120.015 71.132 124.773C72.368 127.863 74.4074 130.644 76.3232 133.363C76.8794 134.167 77.4356 134.97 77.9918 135.774C80.2166 138.987 82.8122 143.313 82.9976 148.072C82.9358 148.381 82.6886 148.628 82.3178 148.628Z" fill="#585858"/>
<path d="M83.7392 157.837C83.492 157.837 83.2448 157.713 83.183 157.466C81.3908 153.016 81.5762 148.01 81.6998 143.623L82.565 118.964C82.6268 117.852 82.6268 116.554 83.183 115.38C83.8628 113.773 85.2842 112.784 86.4584 112.043C88.4978 110.745 90.6608 109.818 93.0092 109.262C93.3182 109.2 93.689 109.385 93.7508 109.694C93.8126 110.003 93.6272 110.374 93.3182 110.436C91.0934 110.992 89.054 111.857 87.1382 113.093C86.1494 113.711 84.9134 114.638 84.3572 115.874C83.9246 116.801 83.9246 117.914 83.8628 118.964L82.9976 143.623C82.874 147.887 82.6886 152.769 84.3572 156.971C84.4808 157.28 84.3572 157.651 83.9864 157.775C83.8628 157.775 83.801 157.837 83.7392 157.837Z" fill="#585858"/>
<path d="M196.586 186.882V153.633L194.237 143.993C192.94 138.554 193.99 132.869 197.204 128.295L200.85 123.042C202.148 121.25 201.035 118.716 198.811 118.407C187.316 116.739 157.466 110.682 130.151 89.9175C126.566 87.1983 125.268 82.3779 127.122 78.2373C129.285 73.2933 132.932 67.6077 138.061 67.6077C146.404 67.6077 251.032 109.755 267.038 116.183C268.274 116.677 269.201 117.851 269.386 119.211L270.869 130.273L256.161 186.82H196.586V186.882Z" fill="#38BF07"/>
<path d="M256.656 187.498H195.968V153.694L193.682 144.177C192.322 138.615 193.434 132.682 196.71 127.985L200.356 122.732C200.85 122.052 200.912 121.187 200.603 120.445C200.294 119.704 199.614 119.148 198.749 119.024C187.131 117.355 157.219 111.237 129.842 90.4105C126.01 87.5059 124.651 82.3765 126.628 77.9887C128.853 72.9829 132.623 66.9883 138.123 66.9883C146.528 66.9883 247.2 107.467 267.285 115.625C268.769 116.243 269.819 117.541 270.005 119.148L271.488 130.272V130.395L256.656 187.498ZM197.204 186.262H255.667L270.252 130.272L268.769 119.333C268.645 118.221 267.842 117.232 266.791 116.799C254.493 111.855 146.404 68.2861 138.061 68.2861C133.241 68.2861 129.78 73.8481 127.679 78.5449C125.949 82.4383 127.123 86.8879 130.522 89.4835C157.652 110.063 187.378 116.181 198.873 117.85C200.109 118.035 201.159 118.839 201.654 119.951C202.148 121.125 202.025 122.423 201.283 123.412L197.637 128.665C194.547 133.053 193.496 138.615 194.794 143.868L197.142 153.632V186.262H197.204Z" fill="#231F20"/>
<path d="M270.19 132.992L196.586 167.229V186.882H256.161L270.19 132.992Z" fill="#231F20"/>
<path d="M172.175 186.881H103.762C96.0989 186.881 89.8571 180.639 89.8571 172.976L111.734 13.037C111.734 7.96935 115.813 3.89055 120.881 3.89055H187.625C196.215 3.89055 203.198 10.874 203.198 19.4642L181.321 177.734C180.641 182.864 177.242 186.881 172.175 186.881Z" fill="#231F20"/>
<path d="M168.776 183.236H99.1275C94.0599 183.236 89.9811 179.157 89.9811 174.089L111.858 13.162C111.858 8.09436 115.937 4.01555 121.005 4.01555H190.715C195.783 4.01555 199.862 8.09436 199.862 13.162L177.984 174.089C176.934 178.91 173.844 183.236 168.776 183.236Z" fill="white"/>
<path d="M164.45 11.9885H141.955C141.522 11.9885 141.213 11.4941 141.46 11.1233C141.584 10.9379 141.769 10.8143 141.955 10.8143H164.388C164.821 10.8143 165.13 11.3087 164.883 11.6795C164.821 11.8649 164.635 11.9885 164.45 11.9885Z" fill="#231F20"/>
<path d="M116.864 159.689C116.493 159.689 116.246 159.442 116.246 159.071C116.246 158.7 116.493 158.453 116.864 158.453H124.033C124.404 158.453 124.651 158.7 124.651 159.071C124.651 159.442 124.404 159.689 124.033 159.689V159.071V159.689H116.864ZM109.695 159.689H102.526C102.156 159.689 101.908 159.442 101.908 159.071C101.908 158.7 102.156 158.453 102.526 158.453H109.695C110.066 158.453 110.313 158.7 110.313 159.071C110.313 159.442 110.004 159.689 109.695 159.689ZM98.4476 155.178H98.3858C98.0768 155.116 97.8296 154.807 97.8296 154.498L98.8184 147.391C98.8802 147.082 99.1892 146.835 99.4982 146.835C99.8072 146.897 100.054 147.206 100.054 147.515L99.0656 154.622C99.0038 154.931 98.7566 155.178 98.4476 155.178ZM128.791 155.178H128.73C128.421 155.116 128.173 154.807 128.173 154.498L129.162 147.391C129.224 147.082 129.533 146.835 129.842 146.835C130.151 146.897 130.398 147.206 130.398 147.515L129.409 154.622C129.348 154.931 129.1 155.178 128.791 155.178ZM100.425 140.964H100.363C100.054 140.902 99.8072 140.593 99.8072 140.284L100.796 133.177C100.858 132.868 101.167 132.621 101.476 132.621C101.785 132.683 102.032 132.992 102.032 133.301L101.043 140.408C101.043 140.717 100.734 140.964 100.425 140.964ZM130.831 140.964H130.769C130.46 140.902 130.213 140.593 130.213 140.284L131.202 133.177C131.263 132.868 131.572 132.621 131.881 132.621C132.19 132.683 132.438 132.992 132.438 133.301L131.449 140.408C131.387 140.717 131.14 140.964 130.831 140.964ZM127.741 129.345H120.572C120.201 129.345 119.954 129.098 119.954 128.727C119.954 128.357 120.201 128.109 120.572 128.109H127.741C128.112 128.109 128.359 128.357 128.359 128.727C128.359 129.036 128.112 129.345 127.741 129.345ZM113.341 129.345H106.173C105.802 129.345 105.555 129.098 105.555 128.727C105.555 128.357 105.802 128.109 106.173 128.109H113.341C113.712 128.109 113.959 128.357 113.959 128.727C113.959 129.036 113.712 129.345 113.341 129.345Z" fill="#0473EA"/>
<path d="M163.09 159.689H155.86C155.489 159.689 155.242 159.442 155.242 159.071C155.242 158.7 155.489 158.453 155.86 158.453H163.028C163.399 158.453 163.646 158.7 163.646 159.071C163.708 159.442 163.461 159.689 163.09 159.689ZM148.691 159.689H141.522C141.151 159.689 140.904 159.442 140.904 159.071C140.904 158.7 141.151 158.453 141.522 158.453H148.691C149.062 158.453 149.309 158.7 149.309 159.071C149.309 159.442 149 159.689 148.691 159.689ZM137.443 155.178H137.381C137.072 155.116 136.825 154.807 136.825 154.498L137.814 147.391C137.876 147.082 138.185 146.835 138.494 146.835C138.803 146.897 139.05 147.206 139.05 147.515L138.061 154.622C137.999 154.931 137.752 155.178 137.443 155.178ZM167.787 155.178H167.725C167.416 155.116 167.169 154.807 167.169 154.498L168.158 147.391C168.22 147.082 168.529 146.835 168.838 146.835C169.147 146.897 169.394 147.206 169.394 147.515L168.405 154.622C168.405 154.931 168.096 155.178 167.787 155.178ZM139.483 140.964H139.421C139.112 140.902 138.865 140.593 138.865 140.284L139.853 133.177C139.915 132.868 140.224 132.621 140.533 132.621C140.842 132.683 141.089 132.992 141.089 133.301L140.101 140.408C140.039 140.717 139.792 140.964 139.483 140.964ZM169.826 140.964H169.765C169.456 140.902 169.208 140.593 169.208 140.284L170.197 133.177C170.259 132.868 170.568 132.621 170.877 132.621C171.186 132.683 171.433 132.992 171.433 133.301L170.444 140.408C170.383 140.717 170.135 140.964 169.826 140.964ZM166.736 129.345H159.568C159.197 129.345 158.95 129.098 158.95 128.727C158.95 128.357 159.197 128.109 159.568 128.109H166.736C167.107 128.109 167.354 128.357 167.354 128.727C167.354 129.036 167.107 129.345 166.736 129.345ZM152.399 129.345H145.23C144.859 129.345 144.612 129.098 144.612 128.727C144.612 128.357 144.859 128.109 145.23 128.109H152.399C152.77 128.109 153.017 128.357 153.017 128.727C153.017 129.036 152.708 129.345 152.399 129.345Z" fill="#0473EA"/>
<path d="M165.439 131.139L161.545 127.307H154.129V127.555C154.129 128.482 153.388 129.223 152.461 129.223H148.691C147.702 129.223 146.775 128.852 146.033 128.111L139.73 121.745L140.78 118.779L129.904 119.212C128.791 119.273 127.864 118.346 127.864 117.234C127.864 116.369 128.42 115.627 129.224 115.38L146.713 110.003H154.747L154.933 99.2502C154.933 97.5198 156.354 96.1602 158.023 96.1602H159.259L163.276 109.942L172.855 119.397L165.439 131.139Z" fill="#FFE9D9"/>
<path d="M165.562 132.067L161.298 127.865H154.747C154.562 128.977 153.635 129.781 152.461 129.781H148.691C147.517 129.781 146.404 129.286 145.601 128.483L138.988 121.809L139.854 119.337L129.904 119.707C129.224 119.707 128.544 119.46 127.988 118.966C127.494 118.471 127.185 117.792 127.185 117.112C127.185 115.999 127.926 114.949 129.039 114.64L146.59 109.201H154.129L154.253 99.0661C154.253 97.0267 155.983 95.4199 157.961 95.4199H159.691L163.77 109.51L173.596 119.213L165.562 132.067ZM153.45 126.629H161.731L165.253 130.09L171.99 119.398L162.658 110.19L158.764 96.6559H157.961C156.601 96.6559 155.489 97.7683 155.489 99.1279L155.304 110.437H146.775L129.348 115.814C128.791 115.999 128.421 116.494 128.421 117.112C128.421 117.483 128.544 117.853 128.853 118.101C129.1 118.348 129.471 118.471 129.842 118.471L141.584 118.039L140.41 121.5L146.466 127.618C147.022 128.174 147.826 128.545 148.691 128.545H152.461C153.017 128.545 153.511 128.05 153.511 127.494V126.629H153.45Z" fill="#231F20"/>
<path d="M140.595 124.215C139.854 124.215 139.112 123.906 138.556 123.288C138.061 122.731 137.876 122.052 137.938 121.31C138 120.568 138.37 119.95 138.927 119.456L145.601 114.079C145.848 113.894 146.281 113.894 146.466 114.141C146.652 114.388 146.652 114.821 146.404 115.006L139.73 120.383C139.421 120.63 139.236 121.001 139.174 121.372C139.112 121.743 139.236 122.113 139.545 122.422C140.039 122.979 140.904 123.102 141.522 122.608L147.764 117.664C148.011 117.478 148.444 117.478 148.629 117.787C148.815 118.035 148.815 118.467 148.506 118.653L142.264 123.597C141.708 124.029 141.151 124.215 140.595 124.215Z" fill="#231F20"/>
<path d="M142.758 127.865C142.017 127.865 141.275 127.556 140.719 126.938C140.224 126.382 140.039 125.702 140.101 124.96C140.163 124.219 140.533 123.601 141.09 123.106L147.764 117.73C148.011 117.544 148.444 117.544 148.629 117.791C148.815 118.039 148.815 118.471 148.567 118.657L141.893 124.033C141.584 124.28 141.399 124.651 141.337 125.022C141.275 125.393 141.399 125.764 141.708 126.073C142.202 126.629 143.067 126.752 143.685 126.258L149.927 121.314C150.174 121.129 150.607 121.129 150.792 121.438C150.978 121.685 150.978 122.117 150.669 122.303L144.427 127.247C143.932 127.679 143.314 127.865 142.758 127.865Z" fill="#231F20"/>
<path d="M154.562 130.581H149.309C147.949 130.581 146.651 130.087 145.601 129.16L143.561 127.306C143.314 127.059 143.314 126.688 143.499 126.441C143.747 126.193 144.117 126.193 144.365 126.379L146.404 128.233C147.207 128.974 148.196 129.345 149.247 129.345H154.5C154.809 129.345 155.118 129.098 155.118 128.727C155.118 128.542 154.994 128.295 154.809 128.233L150.977 126.008C150.668 125.823 150.606 125.452 150.73 125.143C150.915 124.834 151.286 124.772 151.595 124.896L155.427 127.12C155.983 127.429 156.354 128.047 156.354 128.727C156.416 129.716 155.612 130.581 154.562 130.581Z" fill="#231F20"/>
<path d="M164.326 125.391C162.225 130.274 163.214 135.959 166.86 139.853C177.551 151.347 205.052 178.91 225.446 181.939C246.026 185.029 264.319 146.218 270.931 130.335C273.341 124.464 271.487 117.296 265.74 114.638L253.813 109.941C253.813 109.941 229.093 133.055 223.036 147.701C222.356 149.432 220.132 149.926 218.772 148.69C209.502 140.471 182.001 116.925 173.163 118.099C168.528 118.655 165.871 121.869 164.326 125.391Z" fill="#38BF07"/>
<path d="M227.733 182.678C226.93 182.678 226.126 182.616 225.323 182.493C204.805 179.464 177.304 151.902 166.366 140.221C162.534 136.143 161.545 130.21 163.708 125.08C165.686 120.507 168.838 117.911 173.04 117.417C182.928 116.181 220.873 149.43 225.199 153.199C225.446 153.447 225.508 153.817 225.261 154.065C225.014 154.312 224.643 154.374 224.396 154.126C208.946 140.469 180.827 117.602 173.225 118.591C169.517 119.086 166.675 121.434 164.882 125.575C162.843 130.21 163.832 135.648 167.293 139.356C178.108 150.975 205.361 178.29 225.508 181.257C245.531 184.223 263.515 146.401 270.313 130.024C272.724 124.215 270.561 117.479 265.431 115.13C265.122 115.007 264.999 114.636 265.122 114.327C265.246 114.018 265.617 113.894 265.926 114.018C271.611 116.675 274.083 124.091 271.426 130.519C264.813 146.587 247.633 182.678 227.733 182.678Z" fill="#231F20"/>
<path d="M223.16 148.317C223.16 148.317 223.098 148.317 223.16 148.317C222.789 148.317 222.542 148.008 222.542 147.637C222.666 146.092 223.84 143.187 227.486 143.249C227.857 143.249 228.104 143.558 228.104 143.867C228.104 144.238 227.795 144.485 227.486 144.485C224.087 144.423 223.778 147.575 223.778 147.699C223.716 148.069 223.469 148.317 223.16 148.317Z" fill="#231F20"/>
<path d="M265.555 114.511C256.717 111.05 237.807 103.634 217.104 95.6621C217.969 104.747 222.233 114.82 222.233 114.82L229.834 119.27C229.834 119.27 254.802 130.332 269.51 122.731L271.364 121.742C271.364 119.27 268.521 115.685 265.555 114.511Z" fill="#231F20"/>
<path d="M202.766 90.1641C201.283 100.423 220.255 115.193 220.255 115.193L229.031 115.378C229.031 115.378 241.391 114.266 252.268 109.26C239.29 104.254 220.935 97.0857 202.766 90.1641Z" fill="#231F20"/>
<path d="M210.738 86.6409C205.3 95.6638 218.772 116.49 218.772 116.49L226.992 119.58C226.992 119.58 273.094 131.137 273.96 100.608C274.948 63.7131 221.244 69.3369 210.738 86.6409Z" fill="#38BF07"/>
<path d="M245.284 122.304C241.267 122.304 237.559 121.933 234.716 121.563C234.407 121.501 234.16 121.192 234.16 120.883C234.222 120.574 234.531 120.327 234.84 120.327C243.245 121.439 258.571 122.242 267.1 115.012C271.055 111.613 273.218 106.792 273.341 100.612C273.712 87.9433 267.223 78.9823 255.172 75.3979C239.351 70.7629 217.598 76.4485 211.294 86.9545C207.648 92.9491 212.963 104.691 216.423 111.18C216.609 111.489 216.485 111.86 216.176 112.045C215.867 112.231 215.496 112.107 215.311 111.798C211.727 105.062 206.288 92.8255 210.182 86.3365C216.794 75.4597 239.228 69.4651 255.481 74.2855C268.15 77.9935 274.886 87.3871 274.516 100.736C274.33 107.287 272.105 112.416 267.841 116.062C261.97 121.006 253.071 122.304 245.284 122.304Z" fill="#231F20"/>
<path d="M235.705 114.079C233.48 113.399 231.07 114.079 229.278 115.439C227.424 116.86 226.126 118.9 225.014 120.939C223.778 123.164 223.098 125.45 222.851 127.984C222.604 130.333 222.604 132.619 221.986 134.968C221.306 137.501 220.255 139.85 218.772 142.013C218.278 142.693 218.648 143.743 219.328 144.114C220.07 144.547 220.997 144.238 221.429 143.558C223.036 141.209 224.21 138.614 224.952 135.895C225.694 133.114 225.632 130.271 226.003 127.428C226.373 124.771 227.609 122.299 229.154 120.136C230.39 118.282 232.492 116.366 234.902 117.107C236.818 117.664 237.621 114.697 235.705 114.079Z" fill="#231F20"/>
<path d="M217.165 110.065C218.71 111.424 219.019 113.649 218.648 115.627C218.092 118.284 216.609 120.571 215.373 122.919C212.901 127.678 210.862 133.363 212.777 138.678C213.086 139.481 213.828 139.976 214.693 139.729C215.435 139.543 216.053 138.616 215.744 137.813C213.828 132.498 216.547 127.121 219.019 122.486C220.379 120.014 221.615 117.419 221.8 114.576C221.924 112.104 221.182 109.508 219.266 107.778C217.845 106.542 215.682 108.705 217.165 110.065Z" fill="#231F20"/>
<path d="M167.849 134.17C167.478 134.17 167.231 133.861 167.231 133.552C167.355 122.613 175.883 121.254 176.007 121.254C176.316 121.192 176.687 121.439 176.687 121.748C176.748 122.057 176.501 122.428 176.192 122.428C175.883 122.49 168.653 123.664 168.529 133.552C168.467 133.861 168.158 134.17 167.849 134.17Z" fill="#231F20"/>
<path d="M254.74 87.9419C252.948 84.4193 247.324 83.2451 242.256 84.1103L234.408 108.46L246.582 103.021C253.504 99.4985 257.15 92.7623 254.74 87.9419Z" fill="#231F20"/>
<path d="M234.346 109.073C234.099 109.073 233.913 108.95 233.79 108.702C233.666 108.393 233.79 108.023 234.099 107.899L246.273 102.461C249.487 100.854 252.082 98.3817 253.566 95.6625C254.987 93.0051 255.172 90.3477 254.122 88.1847C252.391 84.8475 246.891 83.9205 242.318 84.6621C242.009 84.7239 241.638 84.4767 241.576 84.1677C241.515 83.8587 241.762 83.4879 242.071 83.4261C246.953 82.5609 253.133 83.5497 255.234 87.5667C256.532 90.1005 256.285 93.1287 254.678 96.1569C253.071 99.1233 250.29 101.719 246.829 103.449L234.593 108.888C234.531 109.073 234.469 109.073 234.346 109.073Z" fill="#231F20"/>
<path d="M213.705 77.9291C203.26 71.2547 199.738 54.8777 205.3 44.0008C209.749 35.3488 219.699 29.3542 229.093 28.1182C235.582 27.253 242.256 27.562 248.436 29.7868C254.555 32.0116 260.117 36.214 263.207 41.9614C267.718 50.3662 269.819 62.1083 265.37 70.8839C261.044 79.4123 253.566 86.7665 244.234 88.9913C239.908 89.9801 235.026 90.0419 231.812 93.1319C231.132 89.1149 227.919 85.9631 224.458 83.7383C220.997 81.5135 217.104 80.0921 213.705 77.9291Z" fill="black"/>
<path d="M275.134 33.9914C275.628 36.8342 275.134 39.8006 272.724 41.6546C271.055 42.9524 268.521 44.003 266.42 43.8794C264.319 43.7558 262.712 42.458 261.414 40.913C259.437 38.6882 257.83 36.0926 256.841 33.3116C256.223 31.7048 255.729 30.0362 255.729 28.3058C255.729 26.5754 256.285 24.7832 257.521 23.609C259.251 22.0022 261.97 21.8786 264.319 22.4348C269.695 23.7944 274.083 28.4912 275.134 33.9914Z" fill="black"/>
<path d="M251.897 75.2736C250.538 78.7344 247.015 80.6502 244.049 79.476C241.082 78.3018 239.784 74.532 241.206 71.0094C242.565 67.5486 246.088 65.6328 249.054 66.807C252.021 68.043 253.319 71.8128 251.897 75.2736Z" fill="#FFE9D9"/>
<path d="M245.903 80.4629C245.223 80.4629 244.543 80.3393 243.863 80.0921C242.257 79.4741 241.021 78.1145 240.464 76.3841C239.846 74.6537 239.97 72.6761 240.65 70.8839C242.133 67.0522 246.026 65.0128 249.302 66.3107C252.577 67.6085 253.999 71.7491 252.515 75.5807C251.279 78.5471 248.622 80.4629 245.903 80.4629ZM247.201 67.114C244.976 67.114 242.751 68.7209 241.762 71.2547C241.144 72.7997 241.082 74.4683 241.577 75.8897C242.071 77.3111 242.998 78.3617 244.296 78.8561C246.953 79.9067 250.105 78.1763 251.341 75.0245C252.577 71.8727 251.465 68.4119 248.807 67.3613C248.313 67.2376 247.757 67.114 247.201 67.114Z" fill="#231F20"/>
<path d="M217.598 87.6914L222.171 97.4558C222.913 99.0008 223.284 100.731 223.222 102.462L223.037 110.928C223.037 112.164 224.273 113.029 225.447 112.535L237.745 107.035C240.217 105.922 241.824 103.512 241.824 100.855L242.256 79.4102L217.598 87.6914Z" fill="#FFE9D9"/>
<path d="M224.644 113.278C224.211 113.278 223.778 113.154 223.346 112.907C222.666 112.475 222.295 111.733 222.295 110.93L222.481 102.463C222.542 100.856 222.172 99.1875 221.492 97.7661L216.609 87.3219L242.751 78.4845L242.318 100.794C242.257 103.699 240.526 106.356 237.869 107.531L225.571 113.031C225.323 113.216 224.953 113.278 224.644 113.278ZM218.402 88.0017L222.666 97.1481C223.408 98.8167 223.778 100.609 223.778 102.401L223.593 110.868C223.593 111.239 223.778 111.609 224.087 111.795C224.396 111.98 224.767 112.042 225.138 111.857L237.436 106.356C239.661 105.368 241.144 103.143 241.206 100.732L241.639 80.1531L218.402 88.0017Z" fill="#231F20"/>
<path d="M222.666 39.1167C221.121 39.6111 219.761 40.5999 218.896 42.0213C213.457 50.9205 193.929 85.5285 217.598 93.6243C241.7 101.844 249.858 56.7915 249.858 56.7915C249.858 56.7915 245.841 32.1951 222.666 39.1167Z" fill="#FFE9D9"/>
<path d="M223.222 95.2296C221.306 95.2296 219.329 94.8588 217.351 94.179C211.974 92.325 208.328 88.9878 206.66 84.2292C201.716 70.386 214.323 48.1379 218.34 41.6489C219.267 40.1039 220.75 38.9915 222.48 38.4971C222.789 38.3735 223.16 38.5589 223.222 38.9297C223.346 39.2387 223.16 39.6095 222.789 39.6713C221.368 40.1039 220.132 41.0309 219.39 42.3287C215.435 48.6941 203.013 70.5096 207.834 83.8584C209.379 88.2462 212.778 91.3362 217.784 93.0666C227.363 96.342 235.52 91.398 242.071 78.3582C242.195 78.0492 242.565 77.9256 242.874 78.111C243.183 78.2346 243.307 78.6054 243.122 78.9144C237.745 89.6676 230.947 95.2296 223.222 95.2296Z" fill="#231F20"/>
<path d="M231.194 48.5745C231.194 48.5745 231.256 48.5745 231.194 48.5745C230.329 49.1925 238.425 57.5355 239.104 58.2153C245.161 64.4571 258.571 73.6654 261.538 59.6367C262.959 52.9005 260.92 45.7317 257.088 39.9843C255.172 37.2033 252.824 34.6077 249.858 33.0627C247.386 31.7649 244.605 31.2705 241.885 30.8379C238.177 30.2817 234.408 29.8491 230.638 30.2817C226.744 30.7143 222.975 32.1975 219.699 34.3605C217.598 35.7819 201.653 49.3779 208.266 51.8499C210.491 52.6533 212.839 53.1477 215.25 53.2713C220.688 53.4567 226.744 51.7881 231.194 48.5745Z" fill="black"/>
<path d="M221.677 77.5562C221.615 77.5562 221.615 77.5562 221.553 77.5562L218.896 77C218.587 76.9382 218.34 76.7528 218.216 76.4438C218.092 76.1966 218.092 75.8258 218.278 75.5786L222.789 67.9772C222.975 67.6682 223.345 67.6064 223.654 67.7918C223.963 67.9772 224.025 68.348 223.84 68.657L219.514 75.8876L221.739 76.3202C222.048 76.382 222.295 76.691 222.233 77.0618C222.233 77.3708 221.986 77.5562 221.677 77.5562Z" fill="#231F20"/>
<path d="M237.56 64.5177C237.374 64.5177 237.189 64.3941 237.065 64.2087C237.004 64.0851 235.52 61.9221 232.616 62.2311C232.245 62.2929 231.998 62.0457 231.936 61.6749C231.874 61.3659 232.121 61.0569 232.492 60.9951C236.138 60.6243 237.992 63.4053 238.116 63.5289C238.301 63.8379 238.24 64.2087 237.931 64.3941C237.807 64.5177 237.683 64.5177 237.56 64.5177Z" fill="#231F20"/>
<path d="M232.059 66.6198C231.75 67.2996 231.936 68.103 232.554 68.3502C233.11 68.5974 233.852 68.2884 234.161 67.5468C234.47 66.867 234.284 66.0636 233.666 65.8164C233.11 65.5692 232.368 65.8782 232.059 66.6198Z" fill="#042FF8"/>
<path d="M219.947 59.5137C219.761 59.5137 219.576 59.3901 219.452 59.2047C219.391 59.0811 217.907 56.9181 215.003 57.2271C214.632 57.2889 214.385 57.0417 214.323 56.6709C214.261 56.3619 214.508 56.0529 214.879 55.9911C218.525 55.6203 220.379 58.4013 220.503 58.5249C220.688 58.8339 220.627 59.2047 220.318 59.3901C220.132 59.5137 220.009 59.5137 219.947 59.5137Z" fill="#231F20"/>
<path d="M216.552 62.5914C216.873 61.8751 216.654 61.0793 216.062 60.814C215.47 60.5487 214.73 60.9144 214.409 61.6307C214.088 62.347 214.307 63.1428 214.899 63.4081C215.491 63.6734 216.231 63.3078 216.552 62.5914Z" fill="#042FF8"/>
<path d="M225.57 82.2546C225.694 83.2434 224.952 84.1705 223.902 84.2941C222.851 84.4795 221.862 83.7996 221.677 82.8108C221.553 81.822 222.295 80.895 223.346 80.7714C224.458 80.6478 225.447 81.2658 225.57 82.2546Z" fill="#FF5722"/>
<path d="M221.615 83.6164C221.183 83.6164 220.874 83.5546 220.874 83.5546C220.565 83.4928 220.317 83.1838 220.379 82.8748C220.441 82.5658 220.75 82.3186 221.059 82.3804C221.183 82.3804 224.025 82.7512 225.138 80.5264C225.261 80.2174 225.632 80.0938 225.941 80.2174C226.25 80.341 226.374 80.7117 226.25 81.0207C225.076 83.3074 222.789 83.6164 221.615 83.6164Z" fill="#231F20"/>
<path d="M215.806 70.2644C211.047 70.2644 207.216 66.371 207.216 61.6742C207.216 56.9156 211.109 53.084 215.806 53.084C220.503 53.084 224.396 56.9774 224.396 61.6742C224.458 66.371 220.565 70.2644 215.806 70.2644ZM215.806 54.2582C211.727 54.2582 208.452 57.5954 208.452 61.6124C208.452 65.6912 211.789 68.9666 215.806 68.9666C219.885 68.9666 223.16 65.6294 223.16 61.6124C223.222 57.5954 219.885 54.2582 215.806 54.2582Z" fill="#231F20"/>
<path d="M233.11 75.6433C228.351 75.6433 224.52 71.7499 224.52 67.0531C224.52 62.3563 228.413 58.4629 233.11 58.4629C237.868 58.4629 241.7 62.3563 241.7 67.0531C241.7 71.7499 237.868 75.6433 233.11 75.6433ZM233.11 59.6371C229.031 59.6371 225.756 62.9743 225.756 66.9913C225.756 71.0083 229.093 74.3455 233.11 74.3455C237.189 74.3455 240.464 71.0083 240.464 66.9913C240.464 62.9743 237.189 59.6371 233.11 59.6371Z" fill="#231F20"/>
<path d="M241.144 67.6054C240.835 67.6054 240.526 67.3582 240.526 67.0492C240.526 66.6784 240.773 66.4312 241.082 66.3694L247.324 65.875C247.633 65.875 247.942 66.1222 248.004 66.4312C248.004 66.802 247.756 67.0492 247.447 67.111L241.144 67.6054Z" fill="#231F20"/>
<path d="M225.447 65.2587C225.385 65.2587 225.323 65.2587 225.261 65.1969L223.284 64.4553C222.975 64.3317 222.789 63.9609 222.913 63.6519C223.036 63.3429 223.407 63.1575 223.716 63.2811L225.694 64.0227C226.003 64.1463 226.188 64.5171 226.065 64.8261C225.941 65.1351 225.756 65.2587 225.447 65.2587Z" fill="#231F20"/>
<path d="M75.8285 107.655C71.8733 107.655 68.7215 104.441 68.6597 100.548L73.7891 66.3108V66.249C73.7891 62.2938 77.0027 59.0802 80.9579 59.0802H149.741C153.697 59.0802 156.848 62.2938 156.91 66.1872L151.781 100.363C151.039 103.824 148.814 107.593 144.612 107.593H75.8285V107.655Z" fill="white"/>
<path d="M100.919 108.273H75.8283C71.5641 108.273 68.1033 104.812 68.0415 100.548V100.486V100.424L73.1709 66.2486C73.1709 61.9226 76.6935 58.5236 80.9577 58.5236H107.346C107.717 58.5236 107.964 58.7708 107.964 59.1416C107.964 59.5124 107.717 59.7596 107.346 59.7596H80.8959C77.3115 59.7596 74.3451 62.6642 74.3451 66.3104V66.434L69.2157 100.609C69.2775 104.194 72.1821 107.037 75.7665 107.037H100.857C101.228 107.037 101.475 107.284 101.475 107.655C101.537 108.025 101.29 108.273 100.919 108.273Z" fill="#231F20"/>
<path d="M144.612 108.273H100.919C100.548 108.273 100.301 108.026 100.301 107.655C100.301 107.284 100.548 107.037 100.919 107.037H144.612C148.382 107.037 150.483 103.576 151.163 100.301L156.292 66.1869C156.23 62.6025 153.326 59.7597 149.741 59.7597H107.346C106.976 59.7597 106.728 59.5125 106.728 59.1417C106.728 58.7709 106.976 58.5237 107.346 58.5237H149.68C153.944 58.5237 157.405 61.9845 157.466 66.2487V66.3105V66.3723L152.337 100.548C151.595 104.318 149.123 108.273 144.612 108.273Z" fill="#231F20"/>
<path d="M106.728 77.99C106.481 77.99 106.234 77.7428 106.234 77.4956L106.605 75.1472C106.605 74.9 106.852 74.6528 107.099 74.6528H146.528C146.775 74.6528 147.022 74.9 147.022 75.1472L146.651 77.4956C146.589 77.7428 146.466 77.99 146.157 77.99H106.728Z" fill="#0473EA"/>
<path d="M105.863 84.2926C105.616 84.2926 105.369 84.0454 105.369 83.7982L105.74 81.4498C105.74 81.2026 105.987 80.9554 106.234 80.9554H145.662C145.91 80.9554 146.157 81.2026 146.157 81.4498L145.786 83.7982C145.724 84.0454 145.601 84.2926 145.292 84.2926H105.863Z" fill="#0473EA"/>
<path d="M105.122 90.597C104.874 90.597 104.627 90.3499 104.627 90.1027L104.998 87.7542C104.998 87.507 105.245 87.2598 105.492 87.2598H127.555C127.802 87.2598 128.049 87.507 128.049 87.7542L127.679 90.1027C127.617 90.3499 127.493 90.597 127.184 90.597H105.122Z" fill="#0473EA"/>
<path d="M100.981 81.5735C99.7452 87.6299 93.9978 92.5122 88.1267 92.5122C82.2557 92.5122 78.4241 87.6299 79.6601 81.5735C80.8961 75.5171 86.6436 70.6349 92.5146 70.6349C98.3856 70.6349 102.155 75.5171 100.981 81.5735Z" fill="#0473EA"/>
<path d="M94.1218 82.1928L86.4586 86.2716C85.9642 86.5188 85.408 86.2098 85.5316 85.6536L87.1384 77.5578C87.262 77.0016 87.88 76.6926 88.3126 76.9398L94.369 81.0186C94.8016 81.204 94.6162 81.8838 94.1218 82.1928Z" fill="#FFE9D9"/>
<path d="M140.904 52.3455H133.674C133.303 52.3455 133.056 52.0983 133.056 51.7275C133.056 51.3567 133.303 51.1095 133.674 51.1095H140.842C141.213 51.1095 141.46 51.3567 141.46 51.7275C141.46 52.0365 141.213 52.3455 140.904 52.3455ZM126.443 52.3455H119.274C118.903 52.3455 118.656 52.0983 118.656 51.7275C118.656 51.3567 118.903 51.1095 119.274 51.1095H126.443C126.814 51.1095 127.061 51.3567 127.061 51.7275C127.061 52.0365 126.814 52.3455 126.443 52.3455ZM115.257 47.8341H115.195C114.886 47.7723 114.639 47.4633 114.639 47.1543L115.628 40.0473C115.69 39.7383 115.999 39.4911 116.308 39.4911C116.617 39.5529 116.864 39.8619 116.864 40.1709L115.875 47.2779C115.813 47.5869 115.566 47.8341 115.257 47.8341ZM145.601 47.8341H145.539C145.23 47.7723 144.983 47.4633 144.983 47.1543L145.972 40.0473C146.034 39.7383 146.343 39.4911 146.652 39.4911C146.961 39.5529 147.208 39.8619 147.208 40.1709L146.219 47.2779C146.157 47.5869 145.91 47.8341 145.601 47.8341ZM117.235 33.62H117.173C116.864 33.5582 116.617 33.2493 116.617 32.9403L117.606 25.8332C117.667 25.5242 117.976 25.277 118.285 25.277C118.594 25.3388 118.842 25.6478 118.842 25.9568L117.853 33.0639C117.791 33.3729 117.544 33.62 117.235 33.62ZM147.579 33.5583H147.517C147.208 33.4965 146.961 33.1874 146.961 32.8784L147.949 25.7714C148.011 25.4624 148.32 25.2152 148.629 25.2152C148.938 25.277 149.185 25.586 149.185 25.895L148.197 33.002C148.197 33.3728 147.888 33.5583 147.579 33.5583ZM144.55 22.0016H137.382C137.011 22.0016 136.764 21.7544 136.764 21.3836C136.764 21.0128 137.011 20.7656 137.382 20.7656H144.55C144.921 20.7656 145.168 21.0128 145.168 21.3836C145.168 21.6926 144.859 22.0016 144.55 22.0016ZM130.151 22.0016H122.982C122.611 22.0016 122.364 21.7544 122.364 21.3836C122.364 21.0128 122.611 20.7656 122.982 20.7656V21.3836V20.7656H130.151C130.522 20.7656 130.769 21.0128 130.769 21.3836C130.769 21.6926 130.522 22.0016 130.151 22.0016Z" fill="url(#paint0_linear_518_139293)"/>
<path d="M181.322 51.9081H156.787C155.366 51.9081 154.191 50.7339 154.191 49.3125L158.208 23.1093C158.208 21.6879 159.383 20.5137 160.804 20.5137H185.339C186.76 20.5137 187.934 21.6879 187.934 23.1093L183.917 49.3125C183.917 50.7339 182.743 51.9081 181.322 51.9081Z" fill="white" fill-opacity="0.5"/>
<path d="M178.973 44.4347H170.136L170.198 44.1257C171.001 44.0639 171.619 43.9403 171.928 43.6931C172.546 43.3223 172.917 42.8897 173.102 42.2717C173.164 41.9009 173.164 41.4065 173.041 40.7885L172.917 40.2323L172.361 37.0805H166.49L165.377 38.9345L164.883 39.7379C164.265 40.7267 163.894 41.4683 163.771 42.0863C163.709 42.3953 163.709 42.7043 163.771 43.0133C163.832 43.3223 164.018 43.5077 164.203 43.6931C164.512 43.9403 164.883 44.0639 165.439 44.1257L165.377 44.4347H159.383L159.445 44.1257C159.939 44.1257 160.372 44.0021 160.742 43.7549C161.175 43.5695 161.546 43.1987 161.978 42.7661C162.349 42.3953 162.72 41.9009 163.153 41.3447C163.523 40.7885 164.08 39.9233 164.821 38.7491L172.546 26.0801H173.288L176.007 40.1705C176.192 41.2211 176.378 42.0245 176.563 42.4571C176.749 42.8897 176.934 43.2605 177.181 43.5077C177.367 43.6931 177.552 43.8167 177.861 43.8785C178.108 43.9403 178.541 44.0639 179.035 44.1257L178.973 44.4347ZM172.299 36.5243L171.001 29.6027L166.799 36.5243H172.299Z" fill="black"/>
<g opacity="0.3">
<path d="M123.353 128.913L106.543 129.099C104.38 129.099 102.526 130.706 102.156 132.869L99.251 150.296C98.8802 152.706 100.734 154.869 103.144 154.808L119.954 154.622C122.117 154.622 123.971 153.015 124.342 150.852L127.246 133.425C127.617 131.076 125.763 128.852 123.353 128.913Z" fill="#231F20"/>
</g>
<path d="M116.308 151.103L99.4979 151.289C97.0877 151.289 95.2337 149.126 95.6045 146.777L98.5091 129.35C98.8799 127.187 100.734 125.642 102.897 125.58L119.707 125.395C122.117 125.395 123.971 127.558 123.6 129.906L120.695 147.334C120.386 149.497 118.532 151.042 116.308 151.103Z" fill="#0473EA"/>
<path d="M100.796 138.496L101.044 137.136L106.358 134.849L106.049 136.333L102.527 137.816L105.431 139.361L105.122 140.844L100.796 138.496Z" fill="#FFE9D9"/>
<path d="M111.858 133.676H113.28L107.285 142.822H105.864L111.858 133.676Z" fill="#FFE9D9"/>
<path d="M118.471 137.135L118.224 138.495L112.909 140.782L113.218 139.298L116.74 137.753L113.836 136.27L114.145 134.787L118.471 137.135Z" fill="#FFE9D9"/>
<path d="M139.112 39.2406H141.337C141.769 39.2406 142.202 38.8698 142.326 38.4372L142.82 35.5944C142.882 35.1618 142.573 34.791 142.14 34.791H140.41C140.101 34.791 139.915 34.6056 139.854 34.3584C139.792 34.173 139.792 34.0494 139.73 33.864C139.668 33.6168 139.73 33.3078 139.977 33.0606L141.46 31.8246C141.831 31.5156 141.955 30.9594 141.646 30.6504L139.977 28.611C139.73 28.302 139.174 28.302 138.803 28.611L137.32 29.847C137.073 30.0324 136.764 30.0942 136.578 29.9706C136.393 29.9088 136.207 29.847 136.084 29.7234C135.837 29.5998 135.713 29.3526 135.775 29.1054L136.084 27.3132C136.146 26.8806 135.837 26.5098 135.404 26.5098H132.685C132.252 26.5098 131.82 26.8806 131.696 27.3132L131.387 29.0436C131.325 29.3526 131.078 29.5998 130.831 29.6616C130.645 29.7234 130.46 29.7852 130.275 29.847C129.966 29.9706 129.718 29.9088 129.533 29.7234L128.544 28.4874C128.297 28.1784 127.741 28.1784 127.37 28.4874L125.022 30.5268C124.651 30.8358 124.527 31.392 124.836 31.701L125.887 32.937C126.072 33.1224 126.072 33.4314 125.887 33.6786C125.763 33.864 125.64 34.0494 125.578 34.2348C125.454 34.482 125.145 34.6674 124.898 34.6674H123.106C122.673 34.6674 122.241 35.0382 122.117 35.4708L121.623 38.3136C121.561 38.7462 121.87 39.117 122.302 39.117H124.033C124.342 39.117 124.527 39.3024 124.589 39.5496C124.651 39.735 124.651 39.8586 124.713 40.044C124.774 40.2912 124.713 40.6002 124.465 40.8474L122.982 42.0834C122.611 42.3924 122.488 42.9486 122.797 43.2576L124.465 45.2352C124.713 45.5442 125.269 45.5442 125.64 45.2352L127.123 43.9992C127.37 43.8138 127.679 43.752 127.864 43.8756C128.05 43.9374 128.235 43.9992 128.359 44.061C128.606 44.1846 128.73 44.4318 128.668 44.679L128.359 46.4712C128.297 46.9038 128.606 47.2746 129.039 47.2746H131.881C132.314 47.2746 132.747 46.9038 132.87 46.4712L133.179 44.7408C133.241 44.4318 133.488 44.1846 133.735 44.1228C133.921 44.061 134.106 43.9992 134.23 43.9374C134.539 43.8138 134.786 43.8756 134.971 44.061L135.96 45.297C136.207 45.606 136.764 45.606 137.134 45.297L139.483 43.2576C139.854 42.9486 139.977 42.3924 139.668 42.0834L138.679 40.8474C138.494 40.662 138.494 40.353 138.679 40.1058C138.865 39.7968 139.112 39.3024 139.112 39.2406ZM128.359 36.336C129.286 33.8022 132.129 32.3808 134.353 33.3078C136.022 33.9876 136.764 35.9034 136.022 37.8192C135.095 40.353 132.252 41.7744 130.027 40.8474C128.421 40.1058 127.679 38.19 128.359 36.336Z" fill="#0473EA"/>
<path d="M161.36 146.403H163.585C164.018 146.403 164.45 146.032 164.574 145.599L165.068 142.756C165.13 142.324 164.821 141.953 164.388 141.953H162.658C162.349 141.953 162.164 141.768 162.102 141.52C162.04 141.335 162.04 141.211 161.978 141.026C161.916 140.779 161.978 140.47 162.225 140.223L163.709 138.987C164.079 138.678 164.203 138.121 163.894 137.812L162.225 135.773C161.978 135.464 161.422 135.464 161.051 135.773L159.568 137.009C159.321 137.194 159.012 137.256 158.826 137.133C158.641 137.071 158.456 137.009 158.332 136.885C158.085 136.762 157.961 136.515 158.023 136.267L158.332 134.475C158.394 134.043 158.085 133.672 157.652 133.672H154.809C154.377 133.672 153.944 134.043 153.821 134.475L153.512 136.206C153.45 136.515 153.203 136.762 152.955 136.824C152.77 136.885 152.585 136.947 152.399 137.009C152.09 137.133 151.843 137.071 151.658 136.885L150.669 135.649C150.422 135.34 149.865 135.34 149.495 135.649L147.146 137.689C146.775 137.998 146.652 138.554 146.961 138.863L148.011 140.099C148.197 140.284 148.197 140.593 148.011 140.841C147.888 141.026 147.764 141.211 147.702 141.397C147.579 141.644 147.27 141.829 147.023 141.829H145.23C144.798 141.829 144.365 142.2 144.242 142.633L143.747 145.476C143.685 145.908 143.994 146.279 144.427 146.279H146.157C146.466 146.279 146.652 146.464 146.714 146.712C146.775 146.897 146.775 147.021 146.837 147.206C146.899 147.453 146.837 147.762 146.59 148.009L145.107 149.245C144.736 149.554 144.612 150.111 144.921 150.42L146.59 152.397C146.837 152.706 147.393 152.706 147.764 152.397L149.247 151.161C149.495 150.976 149.804 150.914 149.989 151.038C150.174 151.1 150.36 151.161 150.483 151.223C150.731 151.347 150.854 151.594 150.792 151.841L150.483 153.633C150.422 154.066 150.731 154.437 151.163 154.437H154.006C154.439 154.437 154.871 154.066 154.995 153.633L155.304 151.903C155.366 151.594 155.613 151.347 155.86 151.285C156.045 151.223 156.231 151.161 156.354 151.099C156.663 150.976 156.911 151.038 157.096 151.223L158.085 152.459C158.332 152.768 158.888 152.768 159.259 152.459L161.607 150.42C161.978 150.111 162.102 149.554 161.793 149.245L160.804 148.009C160.619 147.824 160.619 147.515 160.804 147.268C161.051 146.959 161.36 146.403 161.36 146.403ZM150.607 143.436C151.534 140.902 154.377 139.481 156.602 140.408C158.27 141.088 159.012 143.004 158.27 144.919C157.343 147.453 154.5 148.875 152.276 147.948C150.607 147.206 149.865 145.29 150.607 143.436Z" fill="#0473EA"/>
<g opacity="0.3">
<path d="M177.898 93.6971C182.238 89.8461 183.296 83.951 180.26 80.5299C177.225 77.1089 171.246 77.4574 166.905 81.3084C162.565 85.1594 161.508 91.0546 164.543 94.4756C167.579 97.8966 173.558 97.5481 177.898 93.6971Z" fill="#0473EA"/>
</g>
<path d="M179.035 84.9744C177.799 90.1038 172.608 94.3062 167.478 94.3062C162.349 94.3062 159.135 90.1038 160.371 84.9744C161.607 79.845 166.798 75.6426 171.928 75.6426C177.119 75.6426 180.271 79.845 179.035 84.9744Z" fill="#0473EA"/>
<path d="M167.601 88.7465L165.129 85.5329L167.416 83.6789L168.466 85.0385L173.225 81.2069L174.646 83.0609L167.601 88.7465Z" fill="#FFE9D9"/>
<path d="M106.729 56.546C106.729 55.619 106.172 54.8774 105.554 54.8774L91.2168 54.6302C89.1774 54.5684 87.6324 56.9786 88.1268 59.5124L88.8066 62.9732C89.1774 64.7036 90.4134 65.9396 91.8348 65.9396H92.4528H92.8236C92.9472 65.9396 93.0708 66.0632 93.0708 66.2486C93.1944 69.0296 95.3574 71.1926 97.5822 71.1926C97.8294 72.4286 98.6328 73.2938 99.498 73.2938H100.363C101.105 73.2938 101.785 72.6758 102.155 71.687L102.341 71.1926C104.627 71.1926 106.852 68.8442 106.852 65.9396V62.1698L106.729 56.546Z" fill="#FFE9D9"/>
<path d="M100.363 73.8451H99.4979C98.3855 73.8451 97.4585 72.9799 97.0877 71.7439C94.7393 71.4349 92.6999 69.2101 92.4527 66.4909H91.8347C90.1043 66.4909 88.6211 65.0695 88.1885 63.0301L87.5087 59.5693C87.1997 58.0243 87.5705 56.4174 88.5593 55.2432C89.3009 54.378 90.2279 53.9454 91.2167 53.9454L105.554 54.1926C106.543 54.1926 107.285 55.1814 107.347 56.4792L107.47 62.1031V65.8729C107.47 68.8393 105.307 71.4349 102.773 71.6821L102.711 71.8057C102.279 73.1035 101.414 73.8451 100.363 73.8451ZM91.1549 55.1815C90.5369 55.1815 89.9807 55.4904 89.4863 56.0466C88.8065 56.8501 88.4975 58.1479 88.7447 59.3221L89.4245 62.7829C89.7335 64.2661 90.7223 65.2549 91.8347 65.2549H92.8235C93.2561 65.2549 93.6269 65.6257 93.6887 66.1819C93.8123 68.5303 95.6045 70.5697 97.5821 70.5697H98.0765L98.2001 71.0641C98.3855 71.9911 98.9417 72.6709 99.4979 72.6709H100.363C100.857 72.6709 101.352 72.2383 101.599 71.4967L101.908 70.5697H102.341C104.442 70.5697 106.234 68.4067 106.234 65.9347V62.1649L106.11 56.6028C106.11 55.9848 105.802 55.5522 105.554 55.5522L91.1549 55.1815C91.2167 55.1815 91.1549 55.1815 91.1549 55.1815Z" fill="#231F20"/>
<path d="M93.0089 66.4938C92.6999 66.4938 92.4527 66.3084 92.3909 65.9994L91.4639 60.252C91.4021 59.943 91.6493 59.5722 91.9583 59.5722C92.2673 59.5104 92.6381 59.7576 92.6381 60.0666L93.5651 65.814C93.6269 66.123 93.3797 66.4938 93.0707 66.4938C93.0707 66.4938 93.0707 66.4938 93.0089 66.4938Z" fill="#231F20"/>
<path d="M97.4587 71.6237C97.1497 71.6237 96.8407 71.3765 96.8407 71.0057L96.5935 61.4267C96.5935 61.0559 96.8407 60.8087 97.2115 60.8087C97.5205 60.8087 97.8295 61.0559 97.8295 61.4267L98.0767 71.0057C98.0767 71.3147 97.8295 71.6237 97.4587 71.6237Z" fill="#231F20"/>
<path d="M102.464 71.7486C102.094 71.7486 101.846 71.5014 101.846 71.1306V61.3662C101.846 60.9954 102.094 60.7482 102.464 60.7482C102.835 60.7482 103.082 60.9954 103.082 61.3662V71.1306C103.082 71.5014 102.835 71.7486 102.464 71.7486Z" fill="#231F20"/>
<path d="M85.8404 43.6264L62.5418 43.8736C59.2046 43.9354 56.609 40.9072 57.1652 37.57L61.1822 13.4061C61.6766 10.4397 64.2722 8.21493 67.2386 8.21493L90.5373 7.96773C93.8745 7.90593 96.4701 10.9341 95.9139 14.2713L91.8969 38.4352C91.4025 41.4016 88.8687 43.6264 85.8404 43.6264Z" fill="#38D200"/>
<path d="M78.3008 31.9475L70.8848 33.2453C70.2668 33.3689 69.7724 32.8745 69.896 32.2565C69.9578 31.7621 70.3904 31.3913 70.8848 31.2677L78.3008 29.9699C78.9188 29.8463 79.4132 30.3407 79.2896 30.9587C79.166 31.4531 78.7952 31.8857 78.3008 31.9475Z" fill="#FFE9D9"/>
<path d="M77.683 35.0394L70.267 36.3372C69.649 36.4608 69.1546 35.9664 69.2782 35.3484C69.34 34.854 69.7726 34.4832 70.267 34.3596L77.683 33.0618C78.301 32.9382 78.7954 33.4326 78.6718 34.0506C78.61 34.545 78.1774 34.9158 77.683 35.0394Z" fill="#FFE9D9"/>
<path d="M83.7393 20.5802C84.4809 16.6868 81.9471 13.535 78.0537 13.535C74.1603 13.535 70.3905 16.6868 69.6489 20.5802C69.2163 22.7432 69.8343 24.659 71.1321 25.9568L70.2669 30.3446L79.7223 28.676L80.2167 25.9568C82.0089 24.659 83.3685 22.7432 83.7393 20.5802Z" fill="#FFE9D9"/>
<path d="M72.5533 36.8939C72.5533 37.6355 73.0477 38.1299 73.7893 38.1299C74.6545 38.1299 75.458 37.4501 75.5816 36.5849C75.5816 36.4613 75.5816 36.3995 75.5816 36.3377L72.5533 36.8939Z" fill="#FFE9D9"/>
<path d="M11.9892 51.6034C10.2588 51.6034 8.77563 53.0248 8.77563 54.817C8.77563 56.5474 10.197 58.0306 11.9892 58.0306C13.7814 58.0306 15.2028 56.6092 15.2028 54.817C15.2028 53.0248 13.7814 51.6034 11.9892 51.6034ZM11.9892 56.6092C11.0004 56.6092 10.197 55.8058 10.197 54.817C10.197 53.8282 11.0004 53.0248 11.9892 53.0248C12.978 53.0248 13.7814 53.8282 13.7814 54.817C13.7814 55.8058 12.978 56.6092 11.9892 56.6092Z" fill="#E6EAFE"/>
<path d="M289.473 100.981C288.113 100.981 286.939 102.093 286.939 103.514C286.939 104.874 288.052 106.048 289.473 106.048C290.833 106.048 292.007 104.936 292.007 103.514C291.945 102.093 290.833 100.981 289.473 100.981ZM289.473 104.936C288.67 104.936 288.052 104.318 288.052 103.514C288.052 102.711 288.67 102.093 289.473 102.093C290.276 102.093 290.894 102.711 290.894 103.514C290.894 104.318 290.276 104.936 289.473 104.936Z" fill="#E6EAFE"/>
<path d="M48.3896 53.8866C49.5842 53.8866 50.5526 52.9182 50.5526 51.7236C50.5526 50.529 49.5842 49.5606 48.3896 49.5606C47.195 49.5606 46.2266 50.529 46.2266 51.7236C46.2266 52.9182 47.195 53.8866 48.3896 53.8866Z" fill="#E6EAFE"/>
<path d="M279.585 139.11C279.585 139.851 278.967 140.469 278.225 140.469C277.483 140.469 276.865 139.851 276.865 139.11C276.865 138.368 277.483 137.75 278.225 137.75C279.028 137.812 279.585 138.368 279.585 139.11Z" fill="#E6EAFE"/>
<path d="M39.1195 9.39195L37.0183 8.27955L38.1307 6.17835C38.4397 5.62215 38.2543 4.94235 37.6981 4.63335C37.1419 4.32435 36.4621 4.50974 36.1531 5.06594L35.0407 7.16714L32.9395 6.05475C32.3833 5.74575 31.7035 5.93115 31.3945 6.48735C31.0855 7.04355 31.2709 7.72335 31.8271 8.03235L33.9283 9.14475L32.8159 11.246C32.5069 11.8022 32.6923 12.482 33.2485 12.791C33.8047 13.1 34.4845 12.9146 34.7935 12.3584L35.9059 10.2571L38.0071 11.3696C38.5633 11.6786 39.2431 11.4932 39.5521 10.937C39.8611 10.319 39.6757 9.63915 39.1195 9.39195Z" fill="#E6EAFE"/>
<path d="M299.176 129.037L297.878 128.357L298.558 127.059C298.743 126.75 298.619 126.317 298.31 126.132C298.001 125.947 297.569 126.07 297.383 126.379L296.704 127.677L295.406 126.997C295.097 126.812 294.664 126.935 294.479 127.244C294.293 127.553 294.417 127.986 294.726 128.171L296.024 128.851L295.344 130.149C295.159 130.458 295.282 130.891 295.591 131.076C295.9 131.261 296.333 131.138 296.518 130.829L297.198 129.531L298.496 130.211C298.805 130.396 299.237 130.273 299.423 129.964C299.608 129.655 299.485 129.222 299.176 129.037Z" fill="#E6EAFE"/>
<path d="M8.77562 128.791L7.47781 128.111L8.15762 126.813C8.34302 126.504 8.21942 126.071 7.91042 125.886C7.60142 125.701 7.16881 125.824 6.98341 126.133L6.30361 127.431L5.00581 126.751C4.69681 126.566 4.26421 126.689 4.07881 126.998C3.89341 127.307 4.01701 127.74 4.32601 127.925L5.62381 128.605L4.94401 129.903C4.75861 130.212 4.88221 130.645 5.19121 130.83C5.50021 131.015 5.93281 130.892 6.11821 130.583L6.79801 129.285L8.09582 129.965C8.40482 130.15 8.83742 130.027 9.02282 129.718C9.27002 129.409 9.14642 128.976 8.77562 128.791Z" fill="#E6EAFE"/>
<path d="M16.7478 171.189C12.6072 171.189 9.27002 174.527 9.27002 178.667C9.27002 182.808 12.6072 186.145 16.7478 186.145H47.8333V171.251H16.7478V171.189Z" fill="#E6EAFE"/>
<path d="M46.3505 186.079C45.4235 183.792 44.9291 181.258 44.9291 178.601C44.9291 175.944 45.4235 173.472 46.3505 171.123H104.443C103.516 173.41 103.021 175.944 103.021 178.601C103.021 181.258 103.516 183.73 104.443 186.079H46.3505Z" fill="#CDD5FE"/>
<path d="M105.369 186.697H45.9176L45.7322 186.326C44.7434 183.854 44.249 181.32 44.249 178.663C44.249 176.006 44.7434 173.41 45.7322 171L45.9176 170.629H105.369L105.06 171.494C104.133 173.781 103.701 176.253 103.701 178.725C103.701 181.197 104.195 183.669 105.06 185.955L105.369 186.697ZM46.721 185.461H103.515C102.774 183.298 102.341 180.95 102.341 178.601C102.341 176.253 102.712 173.966 103.515 171.741H46.721C45.9176 173.904 45.485 176.253 45.485 178.601C45.485 180.95 45.9176 183.298 46.721 185.461Z" fill="#231F20"/>
<path d="M106.729 170.389H38.5635V171.995H106.729V170.389Z" fill="#414042"/>
<path d="M106.729 185.277H38.5635V186.884H106.729V185.277Z" fill="#414042"/>
<path d="M51.4794 186.882H16.7477C12.1745 186.882 8.52832 183.174 8.52832 178.663C8.52832 174.09 12.2363 170.443 16.7477 170.443H51.4176V172.05H16.7477C13.1015 172.05 10.0733 175.017 10.0733 178.725C10.0733 182.371 13.0397 185.399 16.7477 185.399H51.4176V186.882H51.4794Z" fill="#414042"/>
<path d="M20.2082 149.066C14.6462 149.066 10.073 153.578 10.073 159.202C10.073 164.764 14.5844 169.337 20.2082 169.337H51.6645V149.128H20.2082V149.066Z" fill="#E6EAFE"/>
<path d="M41.8387 169.267C40.6027 166.115 39.9229 162.716 39.9229 159.131C39.9229 155.547 40.6027 152.148 41.8387 148.996H90.9697C89.7337 152.148 89.0539 155.547 89.0539 159.131C89.0539 162.716 89.7337 166.115 90.9697 169.267H41.8387Z" fill="#CDD5FE"/>
<path d="M91.8349 169.885H41.406L41.2206 169.514C39.9228 166.239 39.243 162.778 39.243 159.194C39.243 155.609 39.9228 152.148 41.2206 148.873L41.406 148.502H91.8349L91.5259 149.367C90.2899 152.519 89.6101 155.856 89.6101 159.255C89.6101 162.654 90.2281 165.992 91.5259 169.143L91.8349 169.885ZM42.2094 168.649H90.0427C88.9303 165.621 88.3741 162.407 88.3741 159.132C88.3741 155.856 88.9303 152.705 90.0427 149.615H42.2094C41.0352 152.643 40.479 155.856 40.479 159.132C40.479 162.469 41.097 165.621 42.2094 168.649Z" fill="#231F20"/>
<path d="M51.6648 170.383H20.2085C14.0285 170.383 9.02271 165.378 9.02271 159.198C9.02271 153.018 14.0285 148.012 20.2085 148.012H51.6648V150.175H20.2085C15.2027 150.175 11.1857 154.254 11.1857 159.198C11.1857 164.203 15.2645 168.22 20.2085 168.22H51.6648V170.383Z" fill="#0473EA"/>
<path d="M93.9975 148.012H49.7487V150.175H93.9975V148.012Z" fill="#0473EA"/>
<path d="M93.9981 168.217H49.7493V170.38H93.9981V168.217Z" fill="#0473EA"/>
<path d="M36.5857 166.547L32.0125 164.508L27.5011 166.547V157.772H36.5857V166.547Z" fill="#0473EA"/>
<path d="M211.542 27.8708C211.542 28.5506 210.986 29.1068 210.306 29.1068C209.626 29.1068 209.07 28.5506 209.07 27.8708C209.07 27.191 209.626 26.6348 210.306 26.6348C210.986 26.6348 211.542 27.191 211.542 27.8708Z" fill="#042FF8"/>
<path d="M224.396 20.4513C225.488 20.4513 226.374 19.5659 226.374 18.4737C226.374 17.3815 225.488 16.4961 224.396 16.4961C223.304 16.4961 222.418 17.3815 222.418 18.4737C222.418 19.5659 223.304 20.4513 224.396 20.4513Z" fill="#042FF8"/>
<path d="M211.542 2.8428C211.542 4.3878 210.244 5.68561 208.699 5.68561C207.154 5.68561 205.856 4.3878 205.856 2.8428C205.856 1.2978 207.154 0 208.699 0C210.244 0 211.542 1.2978 211.542 2.8428Z" fill="#042FF8"/>
<path d="M301.832 187.5H0.618001C0.2472 187.5 0 187.252 0 186.882C0 186.511 0.2472 186.264 0.618001 186.264H301.77C302.141 186.264 302.388 186.511 302.388 186.882C302.45 187.191 302.141 187.5 301.832 187.5Z" fill="#231F20"/>
<defs>
<linearGradient id="paint0_linear_518_139293" x1="131.912" y1="20.7656" x2="131.912" y2="52.3455" gradientUnits="userSpaceOnUse">
<stop stop-color="#2C3A87"/>
<stop offset="1" stop-color="#0061C7"/>
</linearGradient>
</defs>
</svg>
