<svg width="80" height="80" viewBox="0 0 80 80" fill="none" xmlns="http://www.w3.org/2000/svg">
<mask id="mask0_518_144611" style="mask-type:alpha" maskUnits="userSpaceOnUse" x="0" y="0" width="80" height="80">
<circle cx="40" cy="40" r="40" fill="#D9D9D9"/>
</mask>
<g mask="url(#mask0_518_144611)">
<g filter="url(#filter0_d_518_144611)">
<path d="M0.800781 40.4379C0.800781 62.1086 18.3679 79.6758 40.0386 79.6758C61.7091 79.6758 79.2766 62.1086 79.2766 40.4379C79.2766 18.7675 61.7091 1.19997 40.0386 1.19997C18.3679 1.19997 0.800781 18.7675 0.800781 40.4379Z" fill="#38D200"/>
<mask id="path-3-outside-1_518_144611" maskUnits="userSpaceOnUse" x="-0.199219" y="-0.324219" width="81" height="81" fill="black">
<rect fill="white" x="-0.199219" y="-0.324219" width="81" height="81"/>
<path d="M0.800781 40.4379C0.800781 62.1086 18.3679 79.6758 40.0386 79.6758C61.7091 79.6758 79.2766 62.1086 79.2766 40.4379C79.2766 18.7675 61.7091 1.19997 40.0386 1.19997C18.3679 1.19997 0.800781 18.7675 0.800781 40.4379Z"/>
</mask>
<path d="M0.800781 40.4379C0.800781 62.1086 18.3679 79.6758 40.0386 79.6758C61.7091 79.6758 79.2766 62.1086 79.2766 40.4379C79.2766 18.7675 61.7091 1.19997 40.0386 1.19997C18.3679 1.19997 0.800781 18.7675 0.800781 40.4379Z" fill="#38D200"/>
<path d="M1.80078 40.4379C1.80078 61.5563 18.9202 78.6758 40.0386 78.6758V80.6758C17.8156 80.6758 -0.199219 62.6609 -0.199219 40.4379H1.80078ZM40.0386 78.6758C61.1568 78.6758 78.2766 61.5563 78.2766 40.4379H80.2766C80.2766 62.6609 62.2613 80.6758 40.0386 80.6758V78.6758ZM78.2766 40.4379C78.2766 19.3198 61.1568 2.19997 40.0386 2.19997V0.199974C62.2613 0.199974 80.2766 18.2152 80.2766 40.4379H78.2766ZM40.0386 2.19997C18.9202 2.19997 1.80078 19.3198 1.80078 40.4379H-0.199219C-0.199219 18.2152 17.8156 0.199974 40.0386 0.199974V2.19997Z" fill="white" mask="url(#path-3-outside-1_518_144611)"/>
<path d="M21.1895 33.0935C21.1895 33.0935 22.9053 62.6267 18.2253 67.577L41.0894 69.582L40.8748 31.247L21.1895 33.0935Z" fill="#1D2939"/>
<path d="M59.4266 33.5599C59.4266 33.5599 57.7577 64.4748 62.4374 69.4246L39.5742 71.4297L39.7883 33.0942L59.4266 33.5599Z" fill="#1D2939"/>
<path d="M40.0386 63.0005C40.0386 63.0005 60.6065 57.5596 59.4101 31.246C58.4904 11.0135 45.075 7.95461 40.1269 8.03817C26.0418 8.27385 11.2597 23.1248 29.6576 65.7344L40.0386 63.0005Z" fill="#1D2939"/>
<path d="M63.8926 65.1504C60.7226 64.0512 45.0405 61.0302 45.0405 46.8069L40.0384 49.1866L35.0357 46.8069C35.0357 61.0302 19.3537 64.0512 16.1833 65.1504C11.9667 66.6126 11.5369 81.2012 11.5369 81.2012H40.0094H40.0669H68.5398C68.5398 81.2012 68.1097 66.6126 63.8926 65.1504Z" fill="#0473EA"/>
<path d="M28.1895 59.9671C31.4453 61.8667 35.561 63.002 40.0381 63.002C44.5143 63.002 48.6299 61.8667 51.8859 59.9671C48.1536 57.2563 45.0401 53.1444 45.0401 46.8074L40.0381 49.187L35.0355 46.8074C35.0355 53.1444 31.9219 57.2563 28.1895 59.9671Z" fill="#BF694F"/>
<path d="M44.6586 46.9873L40.0381 49.1852L35.4166 46.9873C35.2793 47.4973 35.1268 47.988 34.9611 48.461C34.6911 51.4307 33.7006 53.864 32.2993 55.8626C34.5342 57.433 37.1879 58.3477 40.0381 58.3477C42.8875 58.3477 45.5419 57.433 47.7768 55.8626C46.3756 53.864 45.3842 51.4307 45.115 48.461C44.9495 47.988 44.7969 47.4973 44.6586 46.9873Z" fill="#A9523F"/>
<path d="M27.2412 31.4395C27.2412 31.4395 26.5004 29.1338 25.0632 29.9061C23.6253 30.6788 24.3896 39.6272 26.4807 40.6625C28.5718 41.6979 29.0826 38.9026 29.0826 38.9026L27.2412 31.4395Z" fill="#BF694F"/>
<path d="M53.2828 31.4395C53.2828 31.4395 54.0236 29.1338 55.4617 29.9061C56.8989 30.6788 56.1346 39.6272 54.0435 40.6625C51.9524 41.6979 51.4414 38.9026 51.4414 38.9026L53.2828 31.4395Z" fill="#BF694F"/>
<path d="M53.9993 30.966C53.8351 19.5349 48.7212 14.3483 40.2112 14.3511C31.7009 14.3483 26.5875 19.5349 26.4232 30.966C26.259 42.3976 33.3161 49.8413 37.9675 52.1894C38.8308 52.625 40.2112 52.7656 40.2112 52.7656C40.2112 52.7656 41.5906 52.625 42.4539 52.1894C47.1064 49.8413 54.1634 42.3976 53.9993 30.966Z" fill="#D47C5B"/>
<path d="M44.9158 43.196L40.2111 44.3479L35.5063 43.196C35.5063 43.196 36.3012 46.8066 40.2111 46.8066C44.1204 46.8066 44.9158 43.196 44.9158 43.196Z" fill="#B96147"/>
<path d="M40.2112 43.4425L35.5723 43.2668C35.5723 43.2668 37.4168 45.1895 40.2112 45.2344C43.0061 45.1895 44.8498 43.2668 44.8498 43.2668L40.2112 43.4425Z" fill="#FEF5F6"/>
<path d="M43.4316 28.7466C43.4316 28.7466 43.723 29.6206 44.8883 29.4269C46.0531 29.2327 49.1611 28.1233 51.0062 29.4551C51.0062 29.4551 49.063 26.2223 43.4316 28.7466Z" fill="#1D2939"/>
<path d="M49.5994 32.4314V32.431C49.2068 31.7419 48.1312 31.2472 46.8605 31.2472C45.5897 31.2472 44.5132 31.7419 44.1206 32.431V32.4314C44.5132 33.12 45.5897 33.6152 46.8605 33.6152C48.1312 33.6152 49.2068 33.12 49.5994 32.4314Z" fill="#FEF5F6"/>
<path d="M49.199 31.2459C48.2524 30.845 45.451 29.8276 44.1206 32.4292C44.5132 31.7407 45.5897 31.2459 46.8605 31.2459C48.1312 31.2459 49.2068 31.7407 49.5994 32.4297C49.5994 32.4297 50.5095 32.3377 50.7652 31.2459C50.7652 31.2459 50.1455 31.6459 49.199 31.2459Z" fill="#1D2939"/>
<path d="M45.9051 31.3457C45.5985 31.6078 45.4033 31.9967 45.4033 32.431C45.4033 32.8656 45.5985 33.255 45.9051 33.5167C46.2042 33.5805 46.5252 33.6152 46.8604 33.6152C47.1684 33.6152 47.4648 33.5856 47.7427 33.5315C48.0595 33.2693 48.2611 32.874 48.2611 32.431C48.2611 31.988 48.0595 31.5921 47.7427 31.3304C47.4648 31.2763 47.1684 31.2472 46.8604 31.2472C46.5252 31.2472 46.2042 31.2818 45.9051 31.3457Z" fill="#1D2939"/>
<path d="M37.0839 28.7482C37.0839 28.7482 36.7927 29.6222 35.6271 29.4284C34.4615 29.2342 31.3544 28.1248 29.5093 29.4566C29.3589 29.7068 30.8932 25.9736 37.0839 28.7482Z" fill="#1D2939"/>
<path d="M30.8223 32.4314V32.431C31.215 31.7419 32.2915 31.2472 33.5622 31.2472C34.8329 31.2472 35.9087 31.7419 36.3014 32.431H36.3022L36.3014 32.4314H36.3022H36.3014C35.9087 33.12 34.8329 33.6152 33.5622 33.6152C32.2915 33.6152 31.215 33.12 30.8223 32.4314Z" fill="#FEF5F6"/>
<path d="M31.2228 31.2459C32.1695 30.845 34.9707 29.8276 36.3012 32.4292C35.9085 31.7407 34.8327 31.2459 33.562 31.2459C32.2913 31.2459 31.2148 31.7407 30.8221 32.4297C30.8221 32.4297 29.912 32.3377 29.6572 31.2459C29.6572 31.2459 30.2762 31.6459 31.2228 31.2459Z" fill="#1D2939"/>
<path d="M34.5174 31.3457C34.8239 31.6078 35.019 31.9967 35.019 32.431C35.019 32.8656 34.8239 33.255 34.5174 33.5167C34.2182 33.5805 33.8971 33.6152 33.5621 33.6152C33.254 33.6152 32.9577 33.5856 32.6789 33.5315C32.3629 33.2693 32.1614 32.874 32.1614 32.431C32.1614 31.988 32.3629 31.5921 32.6789 31.3304C32.9577 31.2763 33.254 31.2472 33.5621 31.2472C33.8971 31.2472 34.2182 31.2818 34.5174 31.3457Z" fill="#1D2939"/>
<path d="M40.4683 40.5859C40.4683 40.5859 41.512 38.985 42.5418 40.0088C42.5418 40.0088 42.5556 40.4676 41.6229 40.3862C41.6229 40.3862 41.2155 40.2054 40.4683 40.5859Z" fill="#A55941"/>
<path d="M39.9867 40.5723C39.9867 40.5723 38.8589 38.9094 37.8804 39.8763C37.8804 39.8763 37.891 40.3341 38.8205 40.3059C38.8205 40.3059 39.2186 40.1487 39.9867 40.5723Z" fill="#A55941"/>
<path d="M40.6909 42.4896C40.6909 42.4896 40.4967 42.5747 40.2114 42.5867C39.926 42.5747 39.7314 42.4896 39.7314 42.4896C38.5452 42.312 35.3242 43.2331 35.3242 43.2331C37.1292 43.7603 38.7829 43.9615 40.2114 43.9883C41.6398 43.9615 43.2934 43.7603 45.0987 43.2331C45.0987 43.2331 41.8775 42.312 40.6909 42.4896Z" fill="#A04E38"/>
<path d="M40.2113 14.3504C40.2113 14.3504 39.5778 17.3419 37.0838 18.5383C34.5891 19.7346 30.2012 22.8808 26.4205 32.373C26.4205 32.373 25.2227 27.7759 25.2227 26.0476C25.2227 24.3197 25.333 8.16516 40.2113 14.3504Z" fill="#1D2939"/>
<path d="M40.2109 14.3519C40.2109 14.3519 40.4974 16.7631 42.0969 17.9416C49.8725 23.6686 54.0557 30.6041 54.0005 33.0938C54.0005 33.0938 55.5285 26.3387 54.7309 22.9373C53.9332 19.5359 46.3347 13.3505 40.2109 14.3519Z" fill="#1D2939"/>
</g>
</g>
<defs>
<filter id="filter0_d_518_144611" x="-18.1992" y="-1.80005" width="116.476" height="117.001" filterUnits="userSpaceOnUse" color-interpolation-filters="sRGB">
<feFlood flood-opacity="0" result="BackgroundImageFix"/>
<feColorMatrix in="SourceAlpha" type="matrix" values="0 0 0 0 0 0 0 0 0 0 0 0 0 0 0 0 0 0 127 0" result="hardAlpha"/>
<feOffset dy="16"/>
<feGaussianBlur stdDeviation="9"/>
<feColorMatrix type="matrix" values="0 0 0 0 0.6 0 0 0 0 0.607843 0 0 0 0 0.658824 0 0 0 0.18 0"/>
<feBlend mode="normal" in2="BackgroundImageFix" result="effect1_dropShadow_518_144611"/>
<feBlend mode="normal" in="SourceGraphic" in2="effect1_dropShadow_518_144611" result="shape"/>
</filter>
</defs>
</svg>
