<svg width="266" height="262" viewBox="0 0 266 262" fill="none" xmlns="http://www.w3.org/2000/svg">
<mask id="mask0_518_144574" style="mask-type:alpha" maskUnits="userSpaceOnUse" x="0" y="0" width="266" height="262">
<rect x="0.6521" width="264.399" height="262" fill="#D9D9D9"/>
</mask>
<g mask="url(#mask0_518_144574)">
<path d="M92.6327 150.101L66.3092 147.278L55.2016 121.337L46.5493 123.653C46.5493 123.653 52.9447 151.066 60.0922 155.313C67.2398 159.56 91.6921 160.332 91.6921 160.332L92.6327 150.101Z" fill="#0473EA"/>
<path d="M86.2371 155.313C86.2371 161.923 91.458 167.281 97.899 167.281C104.34 167.281 109.561 161.923 109.561 155.313C109.561 148.702 104.34 143.344 97.899 143.344C91.458 143.344 86.2371 148.702 86.2371 155.313Z" fill="#005ABB"/>
<path d="M97.8993 143.36C94.7881 143.36 91.8635 144.603 89.664 146.86C87.4641 149.118 86.2529 152.119 86.2529 155.313C86.2529 158.505 87.4641 161.506 89.664 163.764C91.8635 166.021 94.7881 167.265 97.8993 167.265C101.01 167.265 103.935 166.021 106.134 163.764C108.334 161.506 109.546 158.505 109.546 155.313C109.546 152.119 108.334 149.118 106.134 146.86C103.935 144.603 101.01 143.36 97.8993 143.36ZM97.8993 167.297C94.7801 167.297 91.8474 166.05 89.6418 163.786C87.4363 161.524 86.2217 158.514 86.2217 155.313C86.2217 152.11 87.4363 149.101 89.6418 146.838C91.8474 144.574 94.7801 143.327 97.8993 143.327C101.018 143.327 103.951 144.574 106.156 146.838C108.362 149.101 109.577 152.111 109.577 155.313C109.577 158.514 108.362 161.524 106.156 163.786C103.951 166.05 101.018 167.297 97.8993 167.297Z" fill="#1D2939"/>
<path d="M53.1909 148.642C53.1909 153.601 57.107 157.619 61.9375 157.619C66.7681 157.619 70.6837 153.601 70.6837 148.642C70.6837 143.685 66.7681 139.666 61.9375 139.666C57.107 139.666 53.1909 143.685 53.1909 148.642Z" fill="#005ABB"/>
<path d="M43.0972 118.255C43.0972 122.306 46.2966 125.59 50.2434 125.59C54.1902 125.59 57.3896 122.306 57.3896 118.255C57.3896 114.205 54.1902 110.921 50.2434 110.921C46.2966 110.921 43.0972 114.205 43.0972 118.255Z" fill="#1D2939"/>
<path d="M55.5106 119.377L61.3856 114.285C62.0321 113.725 62.1135 112.733 61.5675 112.07L61.4232 111.894C60.8772 111.23 59.911 111.147 59.2648 111.707L53.3895 116.799L55.5106 119.377Z" fill="#1D2939"/>
<path d="M53.9099 112.605V104.939C53.9099 104.071 53.2244 103.368 52.3784 103.368H52.1541C51.3084 103.368 50.6227 104.071 50.6227 104.939V112.605C50.6227 112.731 50.7214 112.832 50.8434 112.832H53.6892C53.8111 112.832 53.9099 112.731 53.9099 112.605Z" fill="#1D2939"/>
<path d="M50.2407 112.45L48.61 104.969C48.4254 104.122 47.6065 103.588 46.7811 103.778L46.5621 103.828C45.7367 104.018 45.2172 104.858 45.4021 105.705L47.0325 113.186C47.0594 113.308 47.1773 113.385 47.2961 113.358L50.0734 112.72C50.1921 112.693 50.2672 112.572 50.2407 112.45Z" fill="#1D2939"/>
<path d="M46.6437 113.483L42.909 106.844C42.4859 106.093 41.5493 105.835 40.8167 106.269L40.6226 106.384C39.8901 106.818 39.6394 107.78 40.062 108.531L43.7966 115.17C43.8576 115.278 43.9927 115.315 44.0983 115.253L46.5627 113.792C46.6685 113.73 46.7046 113.591 46.6437 113.483Z" fill="#1D2939"/>
<path d="M214.782 213.845L206.913 217.279L184.203 162.478L192.072 159.044L214.782 213.845Z" fill="#0473EA"/>
<path d="M195.447 160.089C197.345 153.772 193.894 147.072 187.74 145.125C181.585 143.176 175.057 146.717 173.159 153.034C171.261 159.351 174.711 166.051 180.866 167.998C187.02 169.947 193.548 166.406 195.447 160.089Z" fill="#005ABB"/>
<path d="M184.288 144.604C182.417 144.604 180.562 145.072 178.86 145.994C176.11 147.486 174.09 149.988 173.174 153.039C172.257 156.09 172.552 159.325 174.006 162.147C175.46 164.97 177.898 167.043 180.87 167.984C183.843 168.924 186.995 168.621 189.745 167.129C192.495 165.638 194.515 163.135 195.432 160.085L195.447 160.089L195.432 160.085C196.348 157.034 196.053 153.799 194.599 150.976C193.145 148.154 190.708 146.081 187.735 145.14C186.601 144.781 185.441 144.604 184.288 144.604ZM184.317 168.553C183.16 168.553 181.997 168.374 180.861 168.014C177.88 167.071 175.436 164.992 173.979 162.162C172.521 159.332 172.224 156.089 173.144 153.029C174.063 149.97 176.088 147.462 178.845 145.966C181.604 144.471 184.764 144.166 187.744 145.11C190.725 146.053 193.169 148.131 194.626 150.961C196.084 153.791 196.381 157.035 195.461 160.094C194.542 163.154 192.517 165.662 189.76 167.158C188.054 168.082 186.194 168.553 184.317 168.553Z" fill="#1D2939"/>
<path d="M207.851 192.573C209.274 187.835 206.686 182.81 202.07 181.349C197.455 179.888 192.558 182.544 191.135 187.281C189.711 192.019 192.299 197.044 196.915 198.505C201.531 199.966 206.427 197.31 207.851 192.573Z" fill="#005ABB"/>
<path d="M219.452 215.537C218.203 211.694 214.155 209.619 210.411 210.902C206.667 212.185 204.645 216.339 205.895 220.182C207.144 224.023 211.193 226.099 214.936 224.816C218.68 223.533 220.702 219.379 219.452 215.537Z" fill="#1D2939"/>
<path d="M207.331 218.507L203.33 225.246C202.889 225.988 203.118 226.955 203.84 227.407L204.032 227.526C204.754 227.978 205.696 227.743 206.136 227.002L210.138 220.263L207.331 218.507Z" fill="#1D2939"/>
<path d="M210.938 224.41L213.304 231.682C213.571 232.505 214.439 232.949 215.241 232.675L215.454 232.602C216.256 232.327 216.69 231.436 216.422 230.613L214.056 223.342C214.018 223.223 213.893 223.159 213.777 223.199L211.078 224.123C210.963 224.163 210.9 224.292 210.938 224.41Z" fill="#1D2939"/>
<path d="M214.466 223.364L218.32 229.93C218.757 230.674 219.698 230.914 220.423 230.465L220.614 230.347C221.339 229.899 221.573 228.933 221.136 228.19L217.281 221.624C217.219 221.517 217.083 221.481 216.979 221.546L214.541 223.054C214.437 223.118 214.403 223.257 214.466 223.364Z" fill="#1D2939"/>
<path d="M217.561 221.216L223.152 226.3C223.785 226.876 224.752 226.816 225.314 226.165L225.462 225.994C226.023 225.344 225.965 224.35 225.332 223.775L219.741 218.691C219.65 218.608 219.51 218.617 219.43 218.711L217.542 220.897C217.462 220.99 217.47 221.133 217.561 221.216Z" fill="#1D2939"/>
<path d="M94.5597 142.632C94.5597 142.632 95.401 226.648 141.342 228.291C187.283 229.935 189.208 143.232 189.208 142.632C189.208 142.632 183.783 130.101 141.884 130.592C99.9855 131.082 94.5597 142.632 94.5597 142.632Z" fill="#0473EA"/>
<ellipse cx="141.513" cy="180.126" rx="12.3082" ry="12.6321" fill="#38D200"/>
<path d="M142.232 152.371C130.057 152.371 116.141 150.58 101.255 145.441C101.498 145.519 101.747 145.6 102.001 145.683C103.666 146.209 105.542 146.885 107.676 147.416C108.737 147.702 109.849 148.002 111.007 148.315C112.167 148.622 113.393 148.852 114.653 149.138C117.168 149.743 119.896 150.157 122.76 150.641C128.507 151.459 134.876 152.019 141.576 152.048C148.279 152.02 154.649 151.462 160.397 150.644C163.261 150.16 165.991 149.747 168.505 149.143C169.764 148.856 170.992 148.627 172.152 148.32C173.31 148.008 174.422 147.707 175.483 147.422C177.617 146.891 179.492 146.217 181.158 145.691C181.987 145.416 182.765 145.179 183.469 144.927C184.168 144.66 184.806 144.416 185.383 144.196C186.517 143.757 187.405 143.413 188.026 143.173C188.315 143.058 188.541 142.968 188.71 142.9C188.863 142.837 188.941 142.802 188.939 142.796C188.939 142.796 188.938 142.795 188.936 142.795C188.921 142.795 188.84 142.82 188.697 142.868C188.526 142.928 188.296 143.008 188.003 143.11C187.377 143.337 186.483 143.66 185.34 144.073C184.762 144.285 184.12 144.521 183.42 144.777C182.712 145.019 181.933 145.247 181.102 145.513C179.434 146.02 177.557 146.678 175.423 147.194C174.362 147.473 173.251 147.765 172.094 148.07C170.934 148.369 169.708 148.592 168.45 148.872C165.938 149.464 163.213 149.866 160.355 150.34C154.618 151.139 148.263 151.686 141.576 151.714C134.892 151.685 128.539 151.136 122.802 150.337C119.945 149.862 117.219 149.46 114.708 148.867C113.45 148.587 112.224 148.364 111.065 148.065C109.907 147.759 108.797 147.467 107.735 147.188C105.602 146.673 103.724 146.015 102.056 145.506C101.225 145.241 100.446 145.012 99.7389 144.769C99.0383 144.513 98.3972 144.278 97.8183 144.066C96.6756 143.652 95.7816 143.329 95.1563 143.103C94.8625 143 94.6321 142.92 94.4606 142.86C94.446 142.855 94.4324 142.85 94.4189 142.846C94.6718 142.351 100.775 131.302 141.735 130.823C142.538 130.813 143.331 130.809 144.107 130.809H144.108H144.109C161.748 130.809 172.584 133.185 179.18 135.827C181.716 136.842 183.625 137.896 185.054 138.871C188.278 141.069 189.057 142.859 189.059 142.863C189.059 142.863 170.273 152.371 142.232 152.371ZM97.2884 144C96.8884 143.847 96.4893 143.692 96.0881 143.535C96.4432 143.672 96.8439 143.827 97.2884 144Z" fill="#005ABB"/>
<path d="M120.222 128.07H159.054C161.588 128.07 163.642 125.962 163.642 123.362V122.672C163.642 120.072 161.588 117.964 159.054 117.964H120.222C117.688 117.964 115.634 120.072 115.634 122.672V123.362C115.634 125.962 117.688 128.07 120.222 128.07Z" fill="#1D2939"/>
<path d="M137.97 53.3594H141.323V35.9611H137.97V53.3594Z" fill="#1D2939"/>
<path d="M178.786 95.2927C178.786 100.876 183.197 105.402 188.637 105.402C194.076 105.402 198.487 100.876 198.487 95.2927C198.487 89.7097 194.076 85.1831 188.637 85.1831C183.197 85.1831 178.786 89.7097 178.786 95.2927Z" fill="#005ABB"/>
<path d="M79.3386 94.6267C79.3386 100.21 83.7488 104.736 89.1887 104.736C94.6292 104.736 99.0393 100.21 99.0393 94.6267C99.0393 89.0436 94.6292 84.5171 89.1887 84.5171C83.7488 84.5171 79.3386 89.0436 79.3386 94.6267Z" fill="#005ABB"/>
<path d="M137.692 49.5876C137.692 49.5876 97.639 49.0936 91.2985 84.6981C84.9582 120.302 118.83 120.967 128.572 121.642C132.989 121.946 142.441 121.979 150.781 121.83C169.244 121.501 182.291 117.833 186.73 100.253C187.248 98.2027 187.597 96.0981 187.728 93.9562C188.901 74.6877 176.193 48.6394 137.692 49.5876Z" fill="#0473EA"/>
<path d="M166.748 103.814L108.559 104.747C102.459 104.844 97.4384 99.8491 97.3428 93.5895C97.2477 87.3292 102.115 82.176 108.214 82.078L166.403 81.1458C172.503 81.0477 177.524 86.0433 177.619 92.3029C177.715 98.5626 172.847 103.716 166.748 103.814Z" fill="#1D2939"/>
<path d="M120.634 92.3541C120.257 94.3255 118.394 95.6107 116.474 95.2244C114.553 94.8381 113.3 92.9268 113.676 90.9554C114.053 88.9833 115.915 87.6981 117.836 88.0844C119.758 88.4708 121.01 90.382 120.634 92.3541Z" fill="#38D200"/>
<path d="M161.286 91.688C160.91 93.6595 159.047 94.9447 157.126 94.5584C155.205 94.172 153.953 92.2608 154.329 90.2894C154.706 88.3179 156.568 87.0321 158.489 87.4184C160.41 87.8048 161.662 89.7166 161.286 91.688Z" fill="#38D200"/>
<path d="M134.121 35.6143C134.121 38.7461 136.595 41.2852 139.647 41.2852C142.698 41.2852 145.172 38.7461 145.172 35.6143C145.172 32.4826 142.698 29.9435 139.647 29.9435C136.595 29.9435 134.121 32.4826 134.121 35.6143Z" fill="#38D200"/>
<path d="M179.18 135.828C172.583 133.186 161.747 130.81 144.109 130.81C161.747 130.81 172.581 133.185 179.18 135.827V135.828ZM144.107 130.81H144.108H144.107Z" fill="#A7A9A8"/>
<path d="M185.054 138.871C183.625 137.897 181.715 136.842 179.18 135.827V135.826C181.716 136.841 183.624 137.895 185.054 138.87V138.871Z" fill="#20353D"/>
<path d="M189.058 142.863C189.056 142.859 188.277 141.069 185.053 138.871V138.87C188.28 141.069 189.056 142.859 189.058 142.863Z" fill="#A7A9A8"/>
</g>
</svg>
