<svg width="20" height="20" viewBox="0 0 20 20" fill="none" xmlns="http://www.w3.org/2000/svg">
<path d="M17.68 19.1808C17.483 19.1817 17.2877 19.1433 17.1057 19.0677C16.9236 18.9922 16.7585 18.881 16.62 18.7408L12.8 14.9208C12.5351 14.6364 12.3908 14.2603 12.3977 13.8717C12.4046 13.4831 12.562 13.1124 12.8368 12.8375C13.1116 12.5627 13.4824 12.4053 13.871 12.3984C14.2596 12.3916 14.6357 12.5358 14.92 12.8008L18.74 16.6208C18.8803 16.7594 18.9917 16.9244 19.0677 17.1064C19.1438 17.2883 19.1829 17.4836 19.1829 17.6808C19.1829 17.878 19.1438 18.0732 19.0677 18.2552C18.9917 18.4371 18.8803 18.6022 18.74 18.7408C18.6026 18.8824 18.4377 18.9945 18.2554 19.0701C18.0732 19.1458 17.8774 19.1834 17.68 19.1808Z" fill="#CDE3FB"/>
<path d="M9.08025 17.3408C7.16657 17.3421 5.31167 16.6796 3.83172 15.4664C2.35177 14.2532 1.33837 12.5642 0.964265 10.6875C0.590159 8.81073 0.878498 6.86232 1.78013 5.17435C2.68177 3.48638 4.1409 2.16335 5.9088 1.43076C7.6767 0.698168 9.64396 0.601367 11.4752 1.15685C13.3065 1.71234 14.8885 2.88573 15.9515 4.47703C17.0145 6.06832 17.4927 7.97902 17.3047 9.88344C17.1166 11.7879 16.2739 13.5681 14.9202 14.9208C14.155 15.6901 13.2449 16.3 12.2425 16.7154C11.2401 17.1308 10.1653 17.3433 9.08025 17.3408ZM9.08025 3.82078C8.21739 3.82429 7.36864 4.04002 6.60883 4.44895C5.84901 4.85788 5.20147 5.44745 4.72327 6.16569C4.24508 6.88394 3.95093 7.70879 3.86674 8.56754C3.78255 9.42629 3.91092 10.2926 4.24053 11.09C4.57013 11.8874 5.09085 12.5915 5.75679 13.1402C6.42272 13.6889 7.21341 14.0654 8.05917 14.2364C8.90492 14.4074 9.77975 14.3677 10.6066 14.1209C11.4333 13.874 12.1867 13.4275 12.8002 12.8208C13.543 12.0862 14.0503 11.1471 14.2573 10.1232C14.4643 9.09929 14.3618 8.03691 13.9628 7.07148C13.5637 6.10605 12.8862 5.2813 12.0167 4.70237C11.1471 4.12343 10.1249 3.81653 9.08025 3.82078Z" fill="#CDE3FB"/>
</svg>
