<svg width="48" height="48" viewBox="0 0 48 48" fill="none" xmlns="http://www.w3.org/2000/svg">
<path d="M42 10C32 8 28.4441 6.222 24.0361 4C19.5561 6.222 16 8 6 10C6 12.274 6 19.4038 6 21.7778C6 35.1118 17.334 41.778 24 44C30.666 41.778 42 35.1118 42 21.7778C42 19.3278 42 12.388 42 10Z" fill="#0473EA"/>
<path d="M20.2119 19.2998C20.2119 17.2038 21.9161 15.5 24.0098 15.5C26.1038 15.5 27.8101 17.2042 27.8101 19.2998C27.8101 21.3955 26.1038 23.1001 24.0098 23.1001C21.9163 23.1001 20.2119 21.394 20.2119 19.2998ZM22.7178 26.5H25.2842C28.7367 26.5 30.5001 28.9623 30.502 31.3944V32C30.502 32.2759 30.2778 32.5 30.002 32.5H18.002C17.7261 32.5 17.502 32.2759 17.502 32V31.394C17.502 28.9623 19.2652 26.5 22.7178 26.5Z" fill="#38BF07" stroke="white"/>
</svg>
