<svg width="444" height="259" viewBox="0 0 444 259" fill="none" xmlns="http://www.w3.org/2000/svg">
<path d="M395.194 150.154C357.164 189.746 305.971 164.06 269.721 135.536C251.063 120.853 232.413 102.986 214.374 85.6921C191.02 63.3057 166.874 40.1574 142.546 23.8059C118.804 7.83874 59.937 -22.3529 26.2772 41.792C6.91668 78.7003 -1.33552 143.095 1.75169 233.19C2.03867 241.66 2.42994 250.232 2.83903 258.801L1.9311 258.924C1.51306 250.22 1.12179 241.513 0.825876 232.909C-2.28562 142.297 6.03769 77.4872 25.5673 40.286C59.5232 -24.4197 118.759 5.95394 142.65 22.0169C167.039 38.418 191.223 61.5805 214.609 84.0012C232.636 101.277 251.266 119.128 269.883 133.777C305.962 162.171 356.888 187.757 394.652 148.413C408.103 134.411 419.184 112.759 429.908 91.8294C434.381 83.1051 438.906 74.2966 443.631 65.963L443.929 68.1803C439.348 76.3017 434.962 84.86 430.618 93.3353C419.868 114.345 408.748 136.041 395.194 150.154Z" fill="url(#paint0_linear_518_139824)" fill-opacity="0.2"/>
<defs>
<linearGradient id="paint0_linear_518_139824" x1="423.571" y1="71.4479" x2="40.7625" y2="122.612" gradientUnits="userSpaceOnUse">
<stop stop-color="#263959"/>
<stop offset="1" stop-color="#F4F8FD"/>
</linearGradient>
</defs>
</svg>
