<svg width="477" height="235" viewBox="0 0 477 235" fill="none" xmlns="http://www.w3.org/2000/svg">
<path d="M422.974 127.703C381.535 164.165 327.558 142.243 289.572 117.427C270.021 104.654 250.55 89.0173 231.719 73.8826C207.338 54.2908 182.131 34.0321 156.575 19.888C131.634 6.07597 69.5805 -19.7214 32.2387 38.7138C10.7601 72.3366 0.493311 130.416 1.72551 211.34C1.83786 218.949 2.05909 226.646 2.29932 234.34L1.3288 234.471C1.08209 226.656 0.863968 218.837 0.745131 211.109C-0.501126 129.72 9.85092 71.2661 31.5164 37.3761C69.1866 -21.57 131.629 4.38257 156.726 18.2773C182.347 32.4647 207.594 52.7352 232.008 72.3571C250.828 87.4761 270.277 103.098 289.785 115.843C327.591 140.544 381.285 162.383 422.436 126.15C437.092 113.255 449.397 93.5363 461.306 74.4759C466.273 66.5306 471.297 58.5085 476.523 50.9086L476.79 52.8952C471.722 60.301 466.851 68.095 462.029 75.8135C450.09 94.947 437.742 114.706 422.974 127.703Z" fill="url(#paint0_linear_518_139292)" fill-opacity="0.2"/>
<defs>
<linearGradient id="paint0_linear_518_139292" x1="455.017" y1="56.2978" x2="45.8164" y2="110.927" gradientUnits="userSpaceOnUse">
<stop stop-color="#263959"/>
<stop offset="1" stop-color="#F4F8FD"/>
</linearGradient>
</defs>
</svg>
