<svg width="217" height="36" viewBox="0 0 217 36" fill="none" xmlns="http://www.w3.org/2000/svg">
<path d="M13.3397 35.6382C11.6005 35.6382 9.97608 35.4249 8.46654 34.9983C6.957 34.5717 5.61154 33.981 4.43016 33.2262C3.24879 32.4387 2.26431 31.569 1.47672 30.6174C0.721953 29.6657 0.229712 28.6648 0 27.6147L6.59602 25.6457C7.02263 26.7615 7.7774 27.7296 8.86033 28.55C9.94326 29.3375 11.3051 29.7477 12.9459 29.7806C14.6852 29.8134 16.0963 29.436 17.1792 28.6484C18.2949 27.8608 18.8528 26.8435 18.8528 25.5965C18.8528 24.5136 18.4098 23.6111 17.5238 22.8892C16.6705 22.1344 15.4892 21.5601 13.9796 21.1663L9.50024 19.985C7.82662 19.5584 6.3499 18.9184 5.07008 18.0652C3.79025 17.1792 2.78936 16.0963 2.06741 14.8164C1.34546 13.5366 0.984481 12.0435 0.984481 10.3371C0.984481 7.08826 2.051 4.56143 4.18404 2.75655C6.3499 0.918849 9.4018 0 13.3397 0C15.5384 0 17.4581 0.32816 19.0989 0.98448C20.7726 1.60798 22.1672 2.51043 23.283 3.6918C24.3987 4.87318 25.2519 6.26786 25.8426 7.87585L19.2958 9.89403C18.902 8.77829 18.1801 7.82662 17.13 7.03904C16.0799 6.25145 14.7508 5.85766 13.1428 5.85766C11.502 5.85766 10.2058 6.23504 9.25412 6.98981C8.33527 7.74458 7.87585 8.8111 7.87585 10.1894C7.87585 11.2723 8.23682 12.1255 8.95878 12.749C9.71355 13.3725 10.7308 13.8484 12.0107 14.1765L16.5393 15.3087C19.4927 16.0306 21.7898 17.3269 23.4307 19.1974C25.0715 21.0679 25.8919 23.1517 25.8919 25.4488C25.8919 27.4834 25.3996 29.2719 24.4151 30.8143C23.4307 32.3238 22.0032 33.5052 20.1326 34.3584C18.2621 35.2116 15.9978 35.6382 13.3397 35.6382Z" fill="black"/>
<path d="M59.2865 35.0475L69.1806 0.590687H76.0227L65.7349 35.0475H59.2865ZM38.514 35.0475L28.3246 0.590687H35.1667L44.9623 35.0475H38.514ZM39.4 35.0475L48.8018 0.590687H54.9056L45.553 35.0475H39.4ZM58.6466 35.0475L49.3925 0.590687H55.4963L65.095 35.0475H58.6466Z" fill="black"/>
<path d="M169.232 35.6382C167.493 35.6382 165.868 35.4249 164.359 34.9983C162.849 34.5717 161.504 33.981 160.322 33.2262C159.141 32.4387 158.156 31.569 157.369 30.6174C156.614 29.6657 156.122 28.6648 155.892 27.6147L162.488 25.6457C162.915 26.7615 163.67 27.7296 164.753 28.55C165.835 29.3375 167.197 29.7477 168.838 29.7806C170.577 29.8134 171.988 29.436 173.071 28.6484C174.187 27.8608 174.745 26.8435 174.745 25.5965C174.745 24.5136 174.302 23.6111 173.416 22.8892C172.563 22.1344 171.381 21.5601 169.872 21.1663L165.392 19.985C163.719 19.5584 162.242 18.9184 160.962 18.0652C159.682 17.1792 158.682 16.0963 157.96 14.8164C157.238 13.5366 156.877 12.0435 156.877 10.3371C156.877 7.08826 157.943 4.56143 160.076 2.75655C162.242 0.918849 165.294 0 169.232 0C171.431 0 173.35 0.32816 174.991 0.98448C176.665 1.60798 178.059 2.51043 179.175 3.6918C180.291 4.87318 181.144 6.26786 181.735 7.87585L175.188 9.89403C174.794 8.77829 174.072 7.82662 173.022 7.03904C171.972 6.25145 170.643 5.85766 169.035 5.85766C167.394 5.85766 166.098 6.23504 165.146 6.98981C164.227 7.74458 163.768 8.8111 163.768 10.1894C163.768 11.2723 164.129 12.1255 164.851 12.749C165.606 13.3725 166.623 13.8484 167.903 14.1765L172.431 15.3087C175.385 16.0306 177.682 17.3269 179.323 19.1974C180.964 21.0679 181.784 23.1517 181.784 25.4488C181.784 27.4834 181.292 29.2719 180.307 30.8143C179.323 32.3238 177.895 33.5052 176.025 34.3584C174.154 35.2116 171.89 35.6382 169.232 35.6382Z" fill="black"/>
<path d="M210.256 35.0475V0.590687H217V35.0475H210.256ZM187.564 35.0475V0.541463L194.308 0.590687V35.0968L187.564 35.0475ZM192.585 20.5264V14.3242H213.456V20.5264H192.585Z" fill="black"/>
<path d="M95.9266 35.6378C92.4481 35.6378 89.3634 34.8831 86.6725 33.3735C84.0144 31.8312 81.9306 29.7309 80.421 27.0728C78.9115 24.3819 78.1567 21.3136 78.1567 17.8679C78.1567 14.3566 78.9115 11.2719 80.421 8.61382C81.9306 5.9229 83.998 3.82267 86.6233 2.31314C89.2814 0.803597 92.3333 0.0488281 95.779 0.0488281C99.2575 0.0488281 102.309 0.820005 104.935 2.36236C107.593 3.8719 109.677 5.97212 111.186 8.66304C112.696 11.3211 113.45 14.3894 113.45 17.8679C113.45 21.3136 112.696 24.3819 111.186 27.0728C109.709 29.7309 107.642 31.8312 104.984 33.3735C102.359 34.8831 99.3395 35.6378 95.9266 35.6378Z" fill="#0473EA"/>
<path d="M134.671 35.6378C131.193 35.6378 128.108 34.8831 125.417 33.3735C122.759 31.8312 120.675 29.7309 119.166 27.0728C117.656 24.3819 116.901 21.3136 116.901 17.8679C116.901 14.3566 117.656 11.2719 119.166 8.61382C120.675 5.9229 122.743 3.82267 125.368 2.31314C128.026 0.803597 131.078 0.0488281 134.524 0.0488281C138.002 0.0488281 141.054 0.820005 143.679 2.36236C146.337 3.8719 148.421 5.97212 149.931 8.66304C151.44 11.3211 152.195 14.3894 152.195 17.8679C152.195 21.3136 151.44 24.3819 149.931 27.0728C148.454 29.7309 146.387 31.8312 143.729 33.3735C141.103 34.8831 138.084 35.6378 134.671 35.6378Z" fill="#38D200"/>
</svg>
