<svg width="24" height="24" viewBox="0 0 24 24" fill="none" xmlns="http://www.w3.org/2000/svg">
<path opacity="0.6" d="M18.4957 10.6025L5.4963 10.4753C5.09849 10.4714 4.71544 10.6257 4.43139 10.9043C4.14735 11.1828 3.98559 11.5628 3.9817 11.9606C3.9778 12.3584 4.1321 12.7414 4.41064 13.0255C4.68918 13.3095 5.06914 13.4713 5.46695 13.4752L18.4663 13.6024C18.8641 13.6063 19.2472 13.452 19.5312 13.1734C19.8153 12.8949 19.977 12.5149 19.9809 12.1171C19.9848 11.7193 19.8305 11.3363 19.552 11.0522C19.2734 10.7682 18.8935 10.6064 18.4957 10.6025V10.6025Z" fill="#D7F6CC"/>
<path d="M13.5448 5.55365C13.2483 5.55101 12.9577 5.63628 12.7097 5.7987C12.4616 5.96112 12.2673 6.1934 12.1512 6.46621C12.0351 6.73901 12.0025 7.0401 12.0574 7.33145C12.1123 7.6228 12.2523 7.89134 12.4598 8.10315L16.361 12.0815L12.3827 15.9828C12.115 16.2645 11.967 16.6392 11.9701 17.0278C11.9731 17.4165 12.1269 17.7888 12.3991 18.0663C12.6712 18.3438 13.0404 18.5048 13.4289 18.5155C13.8174 18.5261 14.1949 18.3856 14.4818 18.1234L19.5305 13.1726C19.8118 12.8928 19.9716 12.5136 19.9755 12.1169C19.9793 11.7202 19.827 11.3379 19.5513 11.0527L14.6004 6.004C14.3215 5.72079 13.9422 5.55897 13.5448 5.55365V5.55365Z" fill="white" fill-opacity="0.5"/>
</svg>
