<svg width="40" height="40" viewBox="0 0 40 40" fill="none" xmlns="http://www.w3.org/2000/svg">
<rect x="0.25" y="0.25" width="39.5" height="39.5" rx="7.75" stroke="#CFDBD5" stroke-opacity="0.6" stroke-width="0.5" stroke-linecap="square"/>
<path d="M14.0003 27.0002C13.7443 27.0002 13.4882 26.9022 13.2932 26.7072C12.9022 26.3172 12.9022 25.6833 13.2932 25.2933L25.2933 13.2932C25.6843 12.9022 26.3163 12.9022 26.7073 13.2932C27.0983 13.6832 27.0983 14.3172 26.7073 14.7072L14.7073 26.7072C14.5123 26.9022 14.2563 27.0002 14.0003 27.0002Z" fill="#25314C"/>
<path opacity="0.4" d="M26.0003 27.0002C25.7443 27.0002 25.4883 26.9022 25.2933 26.7072L13.2932 14.7072C12.9022 14.3172 12.9022 13.6832 13.2932 13.2932C13.6842 12.9022 14.3163 12.9022 14.7073 13.2932L26.7073 25.2933C27.0983 25.6833 27.0983 26.3172 26.7073 26.7072C26.5123 26.9022 26.2563 27.0002 26.0003 27.0002Z" fill="#25314C"/>
</svg>
