<svg width="48" height="48" viewBox="0 0 48 48" fill="none" xmlns="http://www.w3.org/2000/svg">
<path d="M34 18C30 18 28 16 28 12V6H16C12 6 10 8 10 12V36C10 40 12 42 16 42H34C38 42 40 40 40 36V18H34Z" fill="#0073EF"/>
<path opacity="0.8" d="M34 18H40L28 6V12C28 16 30 18 34 18Z" fill="#0073EF"/>
<path d="M27.0601 26.94L23.0601 22.94C22.9221 22.802 22.7558 22.692 22.5718 22.616C22.2058 22.464 21.7918 22.464 21.4258 22.616C21.2418 22.692 21.076 22.802 20.938 22.94L16.938 26.94C16.352 27.526 16.352 28.476 16.938 29.062C17.524 29.648 18.4741 29.648 19.0601 29.062L20.5 27.622V34C20.5 34.828 21.172 35.5 22 35.5C22.828 35.5 23.5 34.828 23.5 34V27.622L24.94 29.062C25.232 29.354 25.616 29.502 26 29.502C26.384 29.502 26.7681 29.356 27.0601 29.062C27.6461 28.476 27.6461 27.524 27.0601 26.94Z" fill="white"/>
</svg>
