<svg width="32" height="32" viewBox="0 0 32 32" fill="none" xmlns="http://www.w3.org/2000/svg">
<path d="M28.6362 12.1134L18.7533 3.98543C17.1573 2.6761 14.8441 2.67476 13.2481 3.98543L3.36548 12.1121C2.94015 12.4627 2.87745 13.0921 3.22811 13.5201C3.58145 13.9468 4.20949 14.0068 4.63615 13.6575L6.00009 12.5347V24.0001C6.00009 27.0534 7.61342 28.6667 10.6668 28.6667H21.3334C24.3868 28.6667 26.0001 27.0534 26.0001 24.0001V12.536L27.364 13.6588C27.5507 13.8121 27.7761 13.8868 28.0001 13.8868C28.2881 13.8868 28.5747 13.7627 28.7721 13.5227C29.1241 13.0934 29.0615 12.464 28.6362 12.1134Z" fill="#0473EA"/>
<path d="M13.1331 14.8667C13.1331 13.2854 14.4198 12 15.9998 12C17.5798 12 18.8665 13.2854 18.8665 14.8667C18.8665 16.448 17.5798 17.7334 15.9998 17.7334C14.4198 17.7334 13.1331 16.4467 13.1331 14.8667ZM16.8558 19.3333H15.1452C12.6425 19.3333 11.3345 21.1414 11.3345 22.9294V23.3333C11.3345 23.7013 11.6331 24 12.0011 24H20.0011C20.3691 24 20.6678 23.7013 20.6678 23.3333V22.9294C20.6665 21.1414 19.3585 19.3333 16.8558 19.3333Z" fill="#38BF07"/>
</svg>
