<svg width="40" height="40" viewBox="0 0 40 40" fill="none" xmlns="http://www.w3.org/2000/svg">
<rect width="40" height="40" rx="12" fill="#FFFBEB"/>
<path d="M13.007 28.0318H27.007C27.3333 28.0295 27.6541 27.9474 27.9414 27.7926C28.2287 27.6379 28.4738 27.4152 28.6552 27.144C28.8367 26.8728 28.949 26.5613 28.9825 26.2367C29.0159 25.9121 28.9694 25.5843 28.847 25.2818L21.747 13.0318C21.5741 12.7192 21.3205 12.4586 21.0128 12.2771C20.705 12.0957 20.3543 12 19.997 12C19.6398 12 19.289 12.0957 18.9813 12.2771C18.6735 12.4586 18.42 12.7192 18.247 13.0318L11.147 25.2818C11.027 25.5773 10.9794 25.8973 11.0082 26.2151C11.037 26.5328 11.1414 26.839 11.3127 27.1082C11.484 27.3773 11.7171 27.6016 11.9928 27.7623C12.2684 27.9229 12.5784 28.0153 12.897 28.0318" stroke="#F6A723" stroke-width="1.5" stroke-linecap="round" stroke-linejoin="round"/>
<path d="M20.0068 24.0312V24.0413M20.0068 18.0312V20.0312V18.0312Z" stroke="#F6A723" stroke-width="2" stroke-linecap="round" stroke-linejoin="round"/>
</svg>
