<svg width="21" height="20" viewBox="0 0 21 20" fill="none" xmlns="http://www.w3.org/2000/svg">
<path d="M11.3336 14.1666C11.1202 14.1666 10.9069 14.0849 10.7444 13.9224C10.4185 13.5966 10.4185 13.0699 10.7444 12.744L13.4885 9.99991L10.7444 7.25577C10.4185 6.92993 10.4185 6.40322 10.7444 6.07738C11.0702 5.75155 11.5969 5.75155 11.9228 6.07738L15.2561 9.41072C15.5819 9.73655 15.5819 10.2633 15.2561 10.5891L11.9228 13.9224C11.7603 14.0849 11.5469 14.1666 11.3336 14.1666Z" fill="#292929"/>
<path opacity="0.4" d="M6.33357 14.1666C6.12023 14.1666 5.90687 14.0849 5.74437 13.9224C5.41854 13.5966 5.41854 13.0699 5.74437 12.744L8.48852 9.99991L5.74437 7.25577C5.41854 6.92993 5.41854 6.40322 5.74437 6.07738C6.07021 5.75155 6.59693 5.75155 6.92276 6.07738L10.2561 9.41072C10.5819 9.73655 10.5819 10.2633 10.2561 10.5891L6.92276 13.9224C6.76026 14.0849 6.5469 14.1666 6.33357 14.1666Z" fill="#A5A6A8"/>
</svg>
