<svg width="27" height="24" viewBox="0 0 27 24" fill="none" xmlns="http://www.w3.org/2000/svg">
<path opacity="0.4" d="M14.6794 12.0003L22.6544 4.70731C23.082 4.31631 23.082 3.68425 22.6544 3.29325C22.2269 2.90225 21.5357 2.90225 21.1081 3.29325L13.1331 10.5862L5.15801 3.29325C4.73044 2.90225 4.03926 2.90225 3.61169 3.29325C3.18412 3.68425 3.18412 4.31631 3.61169 4.70731L11.5868 12.0003L3.61169 19.2932C3.18412 19.6842 3.18412 20.3163 3.61169 20.7073C3.82493 20.9023 4.10491 21.0003 4.38485 21.0003C4.66479 21.0003 4.94477 20.9023 5.15801 20.7073L13.1331 13.4143L21.1081 20.7073C21.3214 20.9023 21.6013 21.0003 21.8813 21.0003C22.1612 21.0003 22.4412 20.9023 22.6544 20.7073C23.082 20.3163 23.082 19.6842 22.6544 19.2932L14.6794 12.0003Z" fill="#25314C"/>
<path d="M8.75865 21H4.38454C3.77982 21 3.29102 20.552 3.29102 20V16C3.29102 15.448 3.77982 15 4.38454 15C4.98926 15 5.47807 15.448 5.47807 16V19H8.75865C9.36337 19 9.85218 19.448 9.85218 20C9.85218 20.552 9.36337 21 8.75865 21ZM22.9745 8V4C22.9745 3.448 22.4857 3 21.881 3H17.5069C16.9022 3 16.4133 3.448 16.4133 4C16.4133 4.552 16.9022 5 17.5069 5H20.7875V8C20.7875 8.552 21.2763 9 21.881 9C22.4857 9 22.9745 8.552 22.9745 8ZM22.9745 20V16C22.9745 15.448 22.4857 15 21.881 15C21.2763 15 20.7875 15.448 20.7875 16V19H17.5069C16.9022 19 16.4133 19.448 16.4133 20C16.4133 20.552 16.9022 21 17.5069 21H21.881C22.4857 21 22.9745 20.552 22.9745 20ZM5.47807 8V5H8.75865C9.36337 5 9.85218 4.552 9.85218 4C9.85218 3.448 9.36337 3 8.75865 3H4.38454C3.77982 3 3.29102 3.448 3.29102 4V8C3.29102 8.552 3.77982 9 4.38454 9C4.98926 9 5.47807 8.552 5.47807 8Z" fill="#25314C"/>
</svg>
