<svg width="18" height="18" viewBox="0 0 21 20" fill="none" xmlns="http://www.w3.org/2000/svg">
<path
    d="M6.75 17.5H14.6667C16.3333 17.5 17.1667 16.6667 17.1667 15V5C17.1667 3.33333 16.3333 2.5 14.6667 2.5H6.75C5.08333 2.5 4.25 3.33333 4.25 5V15C4.25 16.6667 5.08333 17.5 6.75 17.5Z"
    fill="#A5A6A8"
  />
<path
    d="M8.83333 9.99967H13C13.5558 9.99967 13.8333 9.72217 13.8333 9.16634V6.66634C13.8333 6.11051 13.5558 5.83301 13 5.83301H8.83333C8.2775 5.83301 8 6.11051 8 6.66634V9.16634C8 9.72217 8.2775 9.99967 8.83333 9.99967Z"
    fill="#292929"
  />
<path
    d="M5.5 7.29199H3C2.655 7.29199 2.375 7.01199 2.375 6.66699C2.375 6.32199 2.655 6.04199 3 6.04199H5.5C5.845 6.04199 6.125 6.32199 6.125 6.66699C6.125 7.01199 5.845 7.29199 5.5 7.29199ZM6.125 13.3337C6.125 12.9887 5.845 12.7087 5.5 12.7087H3C2.655 12.7087 2.375 12.9887 2.375 13.3337C2.375 13.6787 2.655 13.9587 3 13.9587H5.5C5.845 13.9587 6.125 13.6787 6.125 13.3337Z"
    fill="#292929"
  />
</svg>
