<svg width="32" height="32" viewBox="0 0 32 32" fill="none" xmlns="http://www.w3.org/2000/svg">
<path d="M27.3333 12.6667C27.3333 13.52 26.8266 14.2532 26.0266 14.5466L9.55994 20.6266C9.49327 20.6533 9.41325 20.6667 9.33325 20.6667V4.66667C9.39992 4.66667 9.47994 4.68004 9.55994 4.70671L26.0266 10.7868C26.8266 11.0801 27.3333 11.8133 27.3333 12.6667Z" fill="white"/>
<path d="M12.0001 27H10.3334V4C10.3334 3.448 9.88542 3 9.33341 3C8.78141 3 8.33341 3.448 8.33341 4V27H6.66675C6.11475 27 5.66675 27.448 5.66675 28C5.66675 28.552 6.11475 29 6.66675 29H12.0001C12.5521 29 13.0001 28.552 13.0001 28C13.0001 27.448 12.5521 27 12.0001 27Z" fill="white"/>
</svg>
