<svg width="32" height="32" viewBox="0 0 32 32" fill="none" xmlns="http://www.w3.org/2000/svg">
<path d="M14.6667 23.9999C10.9907 23.9999 8 21.0092 8 17.3332C8 14.2825 10.0587 11.6304 13.0054 10.881C13.708 10.7024 14.444 11.1306 14.6253 11.8452C14.808 12.5599 14.3746 13.2853 13.6613 13.4666C11.8986 13.9146 10.6667 15.5052 10.6667 17.3345C10.6667 19.5398 12.4613 21.3345 14.6667 21.3345C16.4947 21.3345 18.0853 20.1024 18.5347 18.3384C18.716 17.6237 19.4427 17.1919 20.156 17.3745C20.8693 17.5559 21.3 18.2826 21.1187 18.9959C20.368 21.9426 17.716 23.9999 14.6667 23.9999Z" fill="white"/>
<path d="M14.6667 29.3333C8.04942 29.3333 2.66675 23.9493 2.66675 17.3333C2.66675 10.7173 8.04942 5.33333 14.6667 5.33333C14.9561 5.33333 15.2468 5.34918 15.5334 5.38118C16.2654 5.46251 16.7921 6.12252 16.7121 6.85319C16.6294 7.58519 15.9627 8.12126 15.2401 8.03059C15.0481 8.00926 14.8574 7.99999 14.6667 7.99999C9.52141 7.99999 5.33341 12.1867 5.33341 17.3333C5.33341 22.48 9.52141 26.6667 14.6667 26.6667C19.8121 26.6667 24.0001 22.48 24.0001 17.3333C24.0001 17.1427 23.9894 16.9533 23.9694 16.764C23.8867 16.032 24.4107 15.3721 25.1427 15.2881C25.8974 15.1974 26.5361 15.7306 26.6174 16.4613C26.6508 16.7519 26.6667 17.0427 26.6667 17.332C26.6667 23.9494 21.2841 29.3333 14.6667 29.3333Z" fill="white"/>
<path d="M28.616 9.07864C28.5133 8.82931 28.2693 8.66653 28 8.66653H23.3333V3.99986C23.3333 3.73053 23.1706 3.48665 22.9213 3.38398C22.6733 3.27998 22.3867 3.33719 22.1947 3.52786L18.78 6.94257C18.284 7.43857 17.9987 8.12666 17.9987 8.82799V12.1144L13.7227 16.3905C13.2013 16.9118 13.2013 17.7546 13.7227 18.2759C13.9827 18.5359 14.324 18.6665 14.6654 18.6665C15.0067 18.6665 15.348 18.5359 15.608 18.2759L19.884 13.9999H23.1707C23.872 13.9999 24.56 13.7159 25.056 13.2186L28.4707 9.8039C28.6614 9.61323 28.7186 9.32797 28.616 9.07864Z" fill="white"/>
</svg>
