<svg width="92" height="92" viewBox="0 0 92 92" fill="none" xmlns="http://www.w3.org/2000/svg">
<circle opacity="0.9" cx="49.3334" cy="49.3333" r="39.6667" fill="#0473EA" stroke="white" stroke-width="6" stroke-linecap="round" stroke-linejoin="round"/>
<path d="M43.2441 63.0572C45.7891 63.7915 48.8914 61.6623 55.0961 57.4037C59.8879 54.115 62.2837 52.4706 62.6737 50.2512C62.7805 49.6438 62.7805 49.0229 62.6737 48.4155C62.2837 46.1961 59.8878 44.5517 55.0961 41.2629C48.8914 37.0044 45.7891 34.8752 43.2441 35.6095C42.5585 35.8073 41.9186 36.134 41.3601 36.5713C39.2871 38.1944 39.2871 41.9074 39.2871 49.3333C39.2871 56.7593 39.2871 60.4723 41.3601 62.0954C41.9186 62.5327 42.5585 62.8594 43.2441 63.0572Z" fill="#0473EA" stroke="white" stroke-width="6" stroke-linecap="round" stroke-linejoin="round"/>
</svg>
