<svg width="32" height="32" viewBox="0 0 32 32" fill="none" xmlns="http://www.w3.org/2000/svg">
<path d="M23.5561 16.556C23.3001 16.556 23.0441 16.4587 22.8494 16.2627L20.6267 14.0401C20.2361 13.6507 20.2361 13.016 20.6267 12.6254C21.0174 12.2347 21.6508 12.2347 22.0415 12.6254L23.5574 14.14L27.2947 10.4027C27.6854 10.012 28.3188 10.012 28.7094 10.4027C29.1001 10.7934 29.1001 11.4267 28.7094 11.8174L24.2654 16.2614C24.0681 16.4574 23.8121 16.556 23.5561 16.556Z" fill="white"/>
<path d="M13.3453 14C16.2908 14 18.6786 11.6122 18.6786 8.66666C18.6786 5.72114 16.2908 3.33333 13.3453 3.33333C10.3998 3.33333 8.01196 5.72114 8.01196 8.66666C8.01196 11.6122 10.3998 14 13.3453 14Z" fill="white"/>
<path d="M15.9999 16.6667H10.6666C5.25325 16.6667 3.33325 20.6307 3.33325 24.0254V28C3.33325 28.368 3.63192 28.6667 3.99992 28.6667H22.6666C23.0346 28.6667 23.3333 28.368 23.3333 28V24.0254C23.3333 20.6307 21.4133 16.6667 15.9999 16.6667Z" fill="white"/>
</svg>
