<svg width="25" height="24" viewBox="0 0 25 24" fill="none" xmlns="http://www.w3.org/2000/svg">
<path opacity="0.6" d="M19.0159 10.6023L6.01656 10.4751C5.61876 10.4712 5.2357 10.6255 4.95166 10.904C4.66761 11.1826 4.50585 11.5625 4.50196 11.9603C4.49807 12.3581 4.65236 12.7412 4.9309 13.0252C5.20944 13.3093 5.58941 13.471 5.98721 13.4749L18.9866 13.6021C19.3844 13.606 19.7675 13.4517 20.0515 13.1732C20.3355 12.8946 20.4973 12.5147 20.5012 12.1169C20.5051 11.7191 20.3508 11.336 20.0723 11.052C19.7937 10.7679 19.4137 10.6062 19.0159 10.6023Z" fill="#D7F6CC"/>
<path d="M14.065 5.55365C13.7686 5.55101 13.478 5.63628 13.2299 5.7987C12.9819 5.96112 12.7876 6.1934 12.6715 6.46621C12.5554 6.73901 12.5227 7.0401 12.5776 7.33145C12.6326 7.6228 12.7726 7.89134 12.98 8.10315L16.8813 12.0815L12.903 15.9828C12.6352 16.2645 12.4873 16.6392 12.4904 17.0278C12.4934 17.4165 12.6472 17.7888 12.9193 18.0663C13.1914 18.3438 13.5607 18.5048 13.9492 18.5155C14.3377 18.5261 14.7152 18.3856 15.0021 18.1234L20.0508 13.1726C20.332 12.8928 20.4918 12.5136 20.4957 12.1169C20.4996 11.7202 20.3472 11.3379 20.0715 11.0527L15.1207 6.004C14.8418 5.72079 14.4625 5.55897 14.065 5.55365Z" fill="white" fill-opacity="0.5"/>
</svg>
