<svg width="46" height="46" viewBox="0 0 46 46" fill="none" xmlns="http://www.w3.org/2000/svg">
<circle cx="23" cy="23" r="23" fill="#F5F5FA"/>
<path d="M25.6367 24.5117H25.0391L24.8281 24.3008C25.5664 23.457 25.9883 22.332 25.9883 21.1367C25.9883 18.4297 23.8086 16.25 21.1367 16.25C18.4297 16.25 16.25 18.4297 16.25 21.1367C16.25 23.8086 18.4297 25.9883 21.1367 25.9883C22.332 25.9883 23.457 25.5664 24.3008 24.8281L24.5117 25.0391V25.6367L28.2383 29.3633L29.3633 28.2383L25.6367 24.5117ZM21.1367 24.5117C19.2734 24.5117 17.7617 23 17.7617 21.1367C17.7617 19.2734 19.2734 17.7617 21.1367 17.7617C23 17.7617 24.5117 19.2734 24.5117 21.1367C24.5117 23 23 24.5117 21.1367 24.5117Z" fill="black"/>
</svg>
