<svg width="24" height="24" viewBox="0 0 24 24" fill="none" xmlns="http://www.w3.org/2000/svg">
<path d="M21.72 21.5259C21.57 21.6759 21.3801 21.7459 21.1901 21.7459C21.0001 21.7459 20.81 21.6759 20.66 21.5259L16.29 17.1559C16.68 16.8359 17.03 16.4859 17.35 16.0959L21.72 20.4659C22.01 20.7559 22.01 21.2359 21.72 21.5259Z" fill="white"/>
<path d="M11.1899 18.9961C15.6082 18.9961 19.1899 15.4144 19.1899 10.9961C19.1899 6.57782 15.6082 2.99609 11.1899 2.99609C6.77166 2.99609 3.18994 6.57782 3.18994 10.9961C3.18994 15.4144 6.77166 18.9961 11.1899 18.9961Z" fill="white"/>
<path d="M14.75 9.5C14.75 9.914 14.414 10.25 14 10.25H8C7.586 10.25 7.25 9.914 7.25 9.5C7.25 9.086 7.586 8.75 8 8.75H14C14.414 8.75 14.75 9.086 14.75 9.5ZM12 11.75H8C7.586 11.75 7.25 12.086 7.25 12.5C7.25 12.914 7.586 13.25 8 13.25H12C12.414 13.25 12.75 12.914 12.75 12.5C12.75 12.086 12.414 11.75 12 11.75Z" fill="#0473EA"/>
</svg>
